<svg xmlns="http://www.w3.org/2000/svg" xmlns:xlink="http://www.w3.org/1999/xlink" width="500" zoomAndPan="magnify" viewBox="0 0 375 374.999991" height="500" preserveAspectRatio="xMidYMid meet" version="1.0"><defs><clipPath id="ac565add43"><path d="M 7.066406 7.066406 L 367 7.066406 L 367 367 L 7.066406 367 Z M 7.066406 7.066406 " clip-rule="nonzero"/></clipPath></defs><g clip-path="url(#ac565add43)"><path fill="#2aa198" d="M 186.910156 18.261719 C 93.917969 18.261719 18.261719 93.917969 18.261719 186.910156 C 18.261719 279.902344 93.917969 355.554688 186.910156 355.554688 C 279.902344 355.554688 355.554688 279.902344 355.554688 186.910156 C 355.554688 93.917969 279.902344 18.261719 186.910156 18.261719 Z M 186.910156 366.75 C 138.871094 366.75 93.710938 348.046875 59.742188 314.078125 C 25.773438 280.109375 7.066406 234.945312 7.066406 186.910156 C 7.066406 138.871094 25.773438 93.710938 59.742188 59.742188 C 93.710938 25.773438 138.871094 7.066406 186.910156 7.066406 C 234.945312 7.066406 280.109375 25.773438 314.078125 59.742188 C 348.046875 93.710938 366.75 138.871094 366.75 186.910156 C 366.75 234.945312 348.046875 280.109375 314.078125 314.078125 C 280.109375 348.046875 234.945312 366.75 186.910156 366.75 " fill-opacity="1" fill-rule="nonzero"/></g><path fill="#2aa198" d="M 272.277344 252.691406 C 271.164062 252.691406 270.035156 252.359375 269.054688 251.667969 L 183.683594 191.484375 C 182.199219 190.4375 181.3125 188.730469 181.3125 186.910156 L 181.3125 98.738281 C 181.3125 95.644531 183.820312 93.140625 186.910156 93.140625 C 190 93.140625 192.507812 95.644531 192.507812 98.738281 L 192.507812 184.007812 L 275.507812 242.515625 C 278.035156 244.296875 278.640625 247.789062 276.859375 250.316406 C 275.769531 251.859375 274.035156 252.691406 272.277344 252.691406 " fill-opacity="1" fill-rule="nonzero"/><path fill="#2aa198" d="M 186.910156 56.957031 C 183.820312 56.957031 181.3125 54.449219 181.3125 51.359375 L 181.3125 30.613281 C 181.3125 27.523438 183.820312 25.015625 186.910156 25.015625 C 190 25.015625 192.507812 27.523438 192.507812 30.613281 L 192.507812 51.359375 C 192.507812 54.449219 190 56.957031 186.910156 56.957031 " fill-opacity="1" fill-rule="nonzero"/><path fill="#2aa198" d="M 119.140625 75.117188 C 117.203125 75.117188 115.324219 74.113281 114.289062 72.320312 L 103.914062 54.351562 C 102.367188 51.675781 103.285156 48.25 105.960938 46.707031 C 108.640625 45.15625 112.066406 46.078125 113.609375 48.753906 L 123.980469 66.722656 C 125.53125 69.398438 124.613281 72.824219 121.933594 74.367188 C 121.050781 74.875 120.089844 75.117188 119.140625 75.117188 " fill-opacity="1" fill-rule="nonzero"/><path fill="#2aa198" d="M 69.515625 124.734375 C 68.566406 124.734375 67.601562 124.492188 66.722656 123.980469 L 48.753906 113.609375 C 46.078125 112.066406 45.160156 108.640625 46.703125 105.964844 C 48.25 103.285156 51.675781 102.367188 54.351562 103.914062 L 72.320312 114.289062 C 74.996094 115.832031 75.914062 119.253906 74.367188 121.933594 C 73.332031 123.730469 71.449219 124.734375 69.515625 124.734375 " fill-opacity="1" fill-rule="nonzero"/><path fill="#2aa198" d="M 51.359375 192.507812 L 30.613281 192.507812 C 27.523438 192.507812 25.015625 190 25.015625 186.910156 C 25.015625 183.820312 27.523438 181.3125 30.613281 181.3125 L 51.359375 181.3125 C 54.449219 181.3125 56.957031 183.820312 56.957031 186.910156 C 56.957031 190 54.449219 192.507812 51.359375 192.507812 " fill-opacity="1" fill-rule="nonzero"/><path fill="#2aa198" d="M 51.558594 270.65625 C 49.621094 270.65625 47.742188 269.652344 46.703125 267.859375 C 45.160156 265.179688 46.078125 261.757812 48.753906 260.210938 L 66.722656 249.835938 C 69.398438 248.289062 72.824219 249.207031 74.367188 251.886719 C 75.914062 254.5625 74.996094 257.988281 72.320312 259.53125 L 54.351562 269.90625 C 53.46875 270.414062 52.507812 270.65625 51.558594 270.65625 " fill-opacity="1" fill-rule="nonzero"/><path fill="#2aa198" d="M 108.753906 327.867188 C 107.804688 327.867188 106.84375 327.625 105.960938 327.113281 C 103.285156 325.566406 102.367188 322.144531 103.914062 319.46875 L 114.289062 301.5 C 115.832031 298.820312 119.257812 297.90625 121.933594 299.453125 C 124.613281 300.996094 125.53125 304.421875 123.980469 307.101562 L 113.609375 325.066406 C 112.574219 326.859375 110.691406 327.867188 108.753906 327.867188 " fill-opacity="1" fill-rule="nonzero"/><path fill="#2aa198" d="M 186.910156 348.804688 C 183.820312 348.804688 181.3125 346.296875 181.3125 343.207031 L 181.3125 322.460938 C 181.3125 319.367188 183.820312 316.863281 186.910156 316.863281 C 190 316.863281 192.507812 319.367188 192.507812 322.460938 L 192.507812 343.207031 C 192.507812 346.296875 190 348.804688 186.910156 348.804688 " fill-opacity="1" fill-rule="nonzero"/><path fill="#2aa198" d="M 265.066406 327.867188 C 263.128906 327.867188 261.246094 326.859375 260.210938 325.066406 L 249.835938 307.101562 C 248.292969 304.421875 249.207031 300.996094 251.886719 299.453125 C 254.5625 297.90625 257.988281 298.824219 259.53125 301.5 L 269.90625 319.46875 C 271.453125 322.144531 270.535156 325.566406 267.859375 327.117188 C 266.976562 327.625 266.011719 327.867188 265.066406 327.867188 " fill-opacity="1" fill-rule="nonzero"/><path fill="#2aa198" d="M 322.261719 270.65625 C 321.3125 270.65625 320.347656 270.414062 319.46875 269.90625 L 301.5 259.53125 C 298.820312 257.988281 297.90625 254.5625 299.453125 251.886719 C 300.996094 249.207031 304.421875 248.292969 307.097656 249.835938 L 325.066406 260.210938 C 327.742188 261.757812 328.660156 265.179688 327.117188 267.859375 C 326.078125 269.652344 324.195312 270.65625 322.261719 270.65625 " fill-opacity="1" fill-rule="nonzero"/><path fill="#2aa198" d="M 343.207031 192.507812 L 322.460938 192.507812 C 319.367188 192.507812 316.863281 190 316.863281 186.910156 C 316.863281 183.820312 319.367188 181.3125 322.460938 181.3125 L 343.207031 181.3125 C 346.296875 181.3125 348.804688 183.820312 348.804688 186.910156 C 348.804688 190 346.296875 192.507812 343.207031 192.507812 " fill-opacity="1" fill-rule="nonzero"/><path fill="#2aa198" d="M 304.304688 124.734375 C 302.371094 124.734375 300.488281 123.730469 299.453125 121.933594 C 297.90625 119.253906 298.820312 115.832031 301.5 114.289062 L 319.46875 103.914062 C 322.144531 102.367188 325.566406 103.285156 327.117188 105.964844 C 328.660156 108.640625 327.742188 112.066406 325.066406 113.609375 L 307.097656 123.980469 C 306.21875 124.492188 305.253906 124.734375 304.304688 124.734375 " fill-opacity="1" fill-rule="nonzero"/><path fill="#2aa198" d="M 254.679688 75.117188 C 253.730469 75.117188 252.769531 74.875 251.886719 74.367188 C 249.207031 72.824219 248.292969 69.398438 249.835938 66.722656 L 260.210938 48.753906 C 261.757812 46.078125 265.179688 45.15625 267.859375 46.707031 C 270.535156 48.25 271.453125 51.675781 269.90625 54.351562 L 259.53125 72.320312 C 258.496094 74.113281 256.617188 75.117188 254.679688 75.117188 " fill-opacity="1" fill-rule="nonzero"/></svg>