<svg xmlns="http://www.w3.org/2000/svg" xmlns:xlink="http://www.w3.org/1999/xlink" width="500" zoomAndPan="magnify" viewBox="0 0 375 374.999991" height="500" preserveAspectRatio="xMidYMid meet" version="1.0"><path fill="#2aa198" d="M 358.167969 195.925781 C 354.582031 188.40625 348.464844 184.46875 341.4375 182.992188 C 343.265625 181.304688 344.8125 179.265625 346.214844 176.945312 C 349.589844 171.394531 351.066406 164.855469 351.207031 158.386719 C 351.488281 145.101562 346.074219 131.675781 337.78125 121.484375 C 321.964844 102.011719 293.214844 102.222656 272.335938 114.101562 C 274.585938 102.855469 273.109375 90.625 266.785156 81.203125 C 259.402344 70.097656 246.890625 64.195312 234.027344 62.15625 C 206.960938 57.9375 173.222656 67.003906 155.648438 89.007812 C 149.179688 97.019531 146.648438 105.738281 147.421875 114.734375 C 145.3125 113.1875 143.0625 111.78125 141.097656 110.589844 C 135.402344 107.285156 129.144531 105.035156 122.609375 104.121094 C 109.183594 102.292969 94.492188 106.652344 84.085938 115.367188 C 76.003906 122.117188 68.621094 132.308594 65.808594 142.5 C 64.617188 146.71875 63.984375 151.851562 65.667969 156 C 65.738281 156.210938 65.878906 156.421875 65.949219 156.703125 C 32.773438 142.78125 -6.242188 197.332031 17.941406 226.785156 C 27.640625 238.59375 43.175781 243.09375 57.867188 245.0625 C 60.46875 265.800781 71.925781 283.863281 91.46875 292.722656 C 110.589844 301.4375 133.574219 300.523438 151.429688 289.207031 C 159.371094 284.144531 165.558594 277.46875 170.339844 269.734375 C 186.085938 292.863281 213.359375 307.976562 241.40625 295.957031 C 258.558594 288.574219 278.59375 269.664062 281.6875 249.5625 C 297.855469 261.160156 322.667969 261.511719 339.539062 251.949219 C 358.238281 241.335938 367.65625 215.679688 358.167969 195.925781 Z M 343.898438 232.550781 C 336.585938 242.671875 324.003906 246.1875 312.125 245.695312 C 299.1875 245.132812 287.941406 238.664062 280.28125 228.402344 C 278.59375 226.152344 276.273438 225.378906 274.234375 225.589844 C 270.578125 224.957031 266.292969 227.980469 267.695312 232.410156 C 271.351562 243.585938 269.3125 253.496094 262.777344 263.128906 C 256.378906 272.476562 246.679688 280.421875 236.136719 284.636719 C 211.109375 294.691406 186.367188 276.835938 175.117188 254.972656 C 172.589844 250.054688 166.332031 252.160156 164.574219 256.378906 C 155.4375 278.242188 132.800781 289.769531 109.675781 286.605469 C 86.195312 283.441406 67.988281 265.027344 66.371094 241.125 C 66.230469 238.523438 64.476562 236.976562 61.945312 236.695312 C 42.191406 234.449219 16.675781 225.519531 18.78125 201.339844 C 20.1875 185.03125 32.5625 168.863281 47.394531 162.324219 C 55.828125 158.597656 65.667969 158.457031 73.402344 163.941406 C 74.386719 164.644531 75.652344 163.027344 74.738281 162.183594 C 74.246094 161.761719 73.824219 161.410156 73.332031 161.058594 C 73.191406 158.316406 71.363281 155.859375 71.363281 152.835938 C 71.292969 148.6875 72.910156 144.820312 74.667969 141.167969 C 78.324219 133.644531 83.875 126.125 90.695312 121.203125 C 99.550781 114.804688 111.710938 111.570312 122.46875 113.75 C 127.878906 114.875 132.871094 117.125 137.441406 120.148438 C 142.574219 123.523438 146.296875 128.511719 151.289062 131.886719 C 155.367188 134.628906 159.511719 129.425781 157.617188 125.5625 C 156.703125 123.664062 155.367188 121.90625 153.820312 120.21875 C 152.695312 99.972656 170.550781 84.085938 188.898438 77.128906 C 208.578125 69.675781 239.4375 65.949219 255.183594 83.523438 C 265.308594 94.773438 261.863281 109.746094 260.035156 123.171875 C 260.035156 123.242188 260.035156 123.3125 260.035156 123.382812 C 259.683594 123.734375 259.402344 124.015625 259.050781 124.367188 C 257.222656 126.335938 259.613281 129.707031 262.003906 128.160156 C 262.074219 128.089844 262.214844 128.019531 262.285156 127.949219 C 264.113281 129.285156 266.714844 129.214844 268.046875 126.542969 C 268.46875 125.773438 268.820312 124.929688 269.171875 124.085938 C 288.011719 114.734375 314.023438 110.589844 328.433594 127.949219 C 334.757812 135.542969 338.90625 145.804688 339.1875 155.71875 C 339.539062 167.105469 333.703125 173.5 325.972656 180.882812 C 323.722656 182.992188 324.425781 185.734375 326.324219 187.28125 C 326.746094 188.265625 327.660156 189.035156 329.136719 188.964844 C 353.035156 188.546875 354.792969 217.367188 343.898438 232.550781 Z M 343.898438 232.550781 " fill-opacity="1" fill-rule="nonzero"/></svg>