<svg xmlns="http://www.w3.org/2000/svg" xmlns:xlink="http://www.w3.org/1999/xlink" width="500" zoomAndPan="magnify" viewBox="0 0 375 374.999991" height="500" preserveAspectRatio="xMidYMid meet" version="1.0"><defs><clipPath id="5cc95c22b1"><path d="M 10.246094 80.414062 L 342 80.414062 L 342 132 L 10.246094 132 Z M 10.246094 80.414062 " clip-rule="nonzero"/></clipPath><clipPath id="81b9f1e592"><path d="M 57 145 L 360.832031 145 L 360.832031 187.257812 L 57 187.257812 Z M 57 145 " clip-rule="nonzero"/></clipPath><clipPath id="268281a262"><path d="M 359 160 L 360.832031 160 L 360.832031 162 L 359 162 Z M 359 160 " clip-rule="nonzero"/></clipPath><clipPath id="00ba8ebf87"><path d="M 1 38 L 305 38 L 305 79.75 L 1 79.75 Z M 1 38 " clip-rule="nonzero"/></clipPath><clipPath id="849e0ab9dc"><path d="M 25.789062 113.664062 L 330 113.664062 L 330 156 L 25.789062 156 Z M 25.789062 113.664062 " clip-rule="nonzero"/></clipPath><clipPath id="9a877a79de"><path d="M 25 1 L 329.539062 1 L 329.539062 42.953125 L 25 42.953125 Z M 25 1 " clip-rule="nonzero"/></clipPath><clipPath id="2b5e06154f"><rect x="0" width="362" y="0" height="188"/></clipPath></defs><g transform="matrix(1, 0, 0, 1, 6, 100)"><g clip-path="url(#2b5e06154f)"><path fill="#2aa198" d="M 115.136719 114.386719 C 114.660156 113.992188 114.152344 113.636719 113.792969 113.390625 C 114.210938 113.761719 114.660156 114.09375 115.136719 114.386719 Z M 115.136719 114.386719 " fill-opacity="1" fill-rule="nonzero"/><path fill="#2aa198" d="M 171.605469 118.148438 L 170.636719 118.773438 C 170.328125 119.007812 170.007812 119.214844 169.664062 119.398438 C 170.617188 118.90625 172.019531 118.171875 171.605469 118.148438 Z M 171.605469 118.148438 " fill-opacity="1" fill-rule="nonzero"/><path fill="#2aa198" d="M 281.984375 125.867188 L 281.902344 125.847656 C 281.605469 125.816406 281.734375 125.832031 281.984375 125.867188 Z M 281.984375 125.867188 " fill-opacity="1" fill-rule="nonzero"/><path fill="#2aa198" d="M 37.703125 102.382812 C 37.703125 102.394531 37.75 102.367188 37.765625 102.371094 L 38.15625 102.070312 Z M 37.703125 102.382812 " fill-opacity="1" fill-rule="nonzero"/><path fill="#2aa198" d="M 315.144531 119.539062 L 315.179688 119.539062 L 315.242188 119.527344 Z M 315.144531 119.539062 " fill-opacity="1" fill-rule="nonzero"/><path fill="#2aa198" d="M 252.375 88.476562 C 252.972656 89.015625 253.542969 89.90625 253.632812 89.902344 C 253.25 89.394531 252.832031 88.917969 252.375 88.476562 Z M 252.375 88.476562 " fill-opacity="1" fill-rule="nonzero"/><g clip-path="url(#5cc95c22b1)"><path fill="#2aa198" d="M 341.03125 120.496094 C 341.09375 120.5 341.15625 120.496094 341.222656 120.496094 C 341.347656 120.570312 341.414062 120.667969 341.34375 120.78125 C 341.726562 120.949219 341.585938 121.1875 340.917969 121.488281 C 340.988281 121.371094 340.675781 121.082031 340.078125 121.265625 L 339.9375 121.503906 C 339.867188 121.621094 340.320312 121.671875 340.253906 121.789062 C 340.710938 121.839844 340.566406 122.074219 340.496094 122.191406 L 340.210938 122.664062 C 339.992188 123.042969 339.671875 123.300781 339.253906 123.433594 C 338.65625 123.617188 338.511719 123.851562 337.914062 124.035156 L 336.109375 124.578125 C 334.90625 124.9375 333.246094 125.25 332.109375 125.480469 C 329.304688 126.011719 327.167969 126.222656 325.410156 126.601562 C 325.332031 126.71875 328.015625 126.472656 325.792969 126.785156 C 325.945312 126.554688 324.183594 126.929688 324.261719 126.816406 C 321.882812 127.339844 320.425781 127.242188 318.644531 127.558594 C 319.261719 127.40625 317.648438 127.527344 316.5625 127.570312 C 316.726562 127.34375 313.863281 127.691406 317.429688 127.097656 C 313.78125 127.824219 310.78125 127.5625 308.074219 128.199219 L 309.164062 128.199219 C 307.894531 128.210938 306.621094 128.183594 305.34375 128.152344 C 303.910156 128.183594 302.484375 128.085938 301.070312 127.863281 C 302.253906 127.8125 303.347656 127.871094 304.527344 127.8125 C 302.441406 127.621094 300.433594 127.941406 298.148438 127.851562 C 298.34375 127.648438 300.976562 127.964844 300.078125 127.679688 C 299.257812 127.613281 298.53125 127.609375 297.785156 127.621094 C 297.042969 127.605469 296.285156 127.601562 295.417969 127.5625 L 295.519531 127.464844 C 291.265625 126.800781 293.914062 127.8125 290.847656 127.136719 L 290.636719 127.316406 C 289.535156 127.113281 286.914062 126.515625 289.316406 126.742188 C 288.21875 126.570312 286.382812 126.347656 285.726562 126.304688 C 286.40625 126.445312 287.054688 126.667969 287.675781 126.976562 L 284.828125 126.484375 C 283.882812 126.296875 282.941406 126.078125 281.996094 125.875 C 282.371094 125.921875 282.742188 125.988281 283.105469 126.074219 C 280.042969 125.082031 276.769531 124.179688 273.421875 122.933594 C 269.863281 121.699219 266.570312 119.972656 263.53125 117.75 C 264.335938 118.449219 262.789062 117.480469 262.1875 117.148438 C 260.933594 116.292969 259.734375 115.367188 258.589844 114.371094 C 257.460938 113.355469 256.40625 112.269531 255.433594 111.105469 L 255.964844 111.574219 C 253.925781 109.554688 252.238281 107.273438 250.90625 104.730469 C 250.367188 103.636719 249.890625 102.515625 249.480469 101.367188 C 249.117188 100.304688 248.859375 99.363281 248.605469 98.511719 C 248.605469 98.511719 248.726562 98.554688 248.980469 99.109375 C 248.53125 98.007812 248.269531 96.84375 247.960938 96.003906 C 247.675781 95.15625 247.316406 94.585938 246.96875 94.476562 C 247.105469 94.660156 247.230469 94.851562 247.347656 95.050781 C 246.183594 93.363281 244.644531 92.167969 242.722656 91.457031 C 240.542969 90.574219 238.285156 90.011719 235.945312 89.773438 C 235.351562 89.570312 236.082031 89.628906 236.808594 89.707031 C 237.523438 89.8125 238.25 89.921875 237.667969 89.679688 C 234.164062 88.980469 230.65625 88.960938 227.144531 89.617188 C 227.542969 89.480469 227.382812 89.484375 227.472656 89.464844 C 224.132812 89.960938 227.957031 89.570312 225.132812 90.15625 C 225.714844 89.839844 225.238281 89.90625 224.296875 90.101562 L 223.25 90.554688 C 222.78125 90.675781 222.824219 90.542969 223.355469 90.3125 C 222.832031 90.542969 221.511719 90.9375 220.199219 91.417969 C 219.101562 91.785156 218.054688 92.261719 217.058594 92.847656 C 217.09375 92.71875 217.632812 92.277344 217.203125 92.328125 C 215.871094 92.859375 214.597656 93.503906 213.382812 94.265625 C 212.273438 94.710938 211.191406 95.222656 210.144531 95.800781 C 207.335938 97.320312 209.628906 96.292969 207.722656 97.5 L 210.039062 96.332031 C 208.632812 97.101562 207.226562 97.910156 205.804688 98.730469 L 207.253906 97.738281 C 205.394531 98.695312 203.925781 99.710938 201.546875 101.070312 L 202.464844 100.714844 L 200.058594 102.210938 C 200.136719 101.808594 197.210938 103.820312 198.253906 102.789062 C 193.523438 105.375 190.597656 107.386719 186.3125 109.867188 C 186.78125 109.621094 186.808594 109.484375 186.808594 109.484375 C 184.976562 110.445312 183.214844 111.523438 181.53125 112.722656 C 182.027344 112.34375 182.496094 112.097656 182.523438 111.964844 C 179.675781 113.570312 181.058594 112.96875 177.714844 114.957031 C 178.707031 114.195312 178.238281 114.441406 177.296875 114.929688 C 177.742188 114.824219 176.773438 115.445312 176.304688 115.691406 C 178.8125 113.65625 172.566406 117.519531 174.105469 116.109375 C 174.082031 116.242188 169.273438 119.238281 170.632812 118.765625 C 165.882812 121.617188 160.96875 124.148438 155.890625 126.363281 C 156.679688 126.03125 157.960938 125.324219 156.667969 125.859375 C 153.777344 127.050781 151.539062 127.894531 149.242188 128.707031 C 146.609375 129.617188 143.914062 130.292969 141.164062 130.726562 C 141.042969 130.539062 142.863281 130.25 144.703125 129.867188 C 146.011719 129.660156 147.273438 129.289062 148.488281 128.753906 C 145.167969 129.738281 141.78125 130.378906 138.328125 130.667969 C 134.566406 130.976562 130.835938 130.765625 127.132812 130.03125 C 126.40625 129.710938 125.585938 129.441406 124.699219 129.140625 C 123.796875 128.878906 122.84375 128.546875 121.820312 128.210938 C 119.589844 127.464844 117.503906 126.421875 115.570312 125.078125 C 115.796875 125.472656 113.660156 124.265625 111.691406 122.90625 C 112.28125 123.226562 110.472656 121.832031 111.0625 122.152344 C 109.71875 121.28125 108.433594 120.332031 107.214844 119.292969 C 105.863281 118.148438 104.800781 117.117188 105.011719 117.089844 C 104.039062 116.796875 101.726562 114.121094 100.191406 113.078125 C 98.425781 111.222656 96.160156 109.476562 93.886719 107.484375 C 94.386719 108.1875 91.347656 105.585938 90.433594 105.070312 L 90.949219 105.328125 C 90.417969 104.660156 88.246094 103.652344 86.757812 102.636719 C 86.472656 102.339844 87.003906 102.515625 86.183594 102.039062 C 86.121094 102.082031 85.195312 101.617188 84.058594 101.148438 C 82.933594 100.648438 81.605469 100.140625 80.789062 99.789062 L 81.871094 99.972656 C 80.003906 99.304688 78.089844 98.808594 76.128906 98.488281 C 74.167969 98.167969 72.195312 98.03125 70.210938 98.074219 C 68.226562 98.121094 66.261719 98.34375 64.316406 98.75 C 62.371094 99.15625 60.480469 99.734375 58.644531 100.488281 C 59.136719 100.199219 59.644531 99.933594 60.164062 99.695312 C 55.550781 101.019531 57.171875 101.183594 53.527344 102.800781 C 50.949219 104.035156 48.445312 105.402344 46.011719 106.902344 C 43.535156 108.464844 41.085938 110.109375 38.804688 111.863281 C 36.296875 113.695312 34.289062 115.265625 31.789062 117.402344 L 28.464844 120.179688 C 27.222656 121.171875 26.390625 121.972656 24.730469 123.292969 C 23.902344 124.089844 25.5625 122.769531 25.5625 122.90625 C 24.699219 123.476562 23.867188 124.09375 23.070312 124.75 L 23.488281 124.558594 C 22.65625 125.082031 21.824219 125.742188 20.996094 126.265625 C 20.195312 126.882812 19.367188 127.453125 18.503906 127.972656 C 17.707031 128.503906 16.878906 128.984375 16.019531 129.410156 C 15.382812 129.851562 14.6875 130.171875 13.941406 130.375 C 11.035156 131.589844 10.199219 131.015625 11.441406 129.335938 C 10.609375 129.171875 11.023438 128.15625 11.851562 126.808594 C 12.285156 126.078125 12.660156 125.449219 13.09375 124.71875 C 13.921875 123.644531 14.335938 122.902344 15.164062 121.828125 C 16.824219 120.09375 14.753906 122.847656 16.410156 120.976562 C 17.238281 119.90625 18.898438 118.171875 20.144531 116.769531 C 22.832031 113.964844 25.742188 111.417969 28.882812 109.132812 C 31.726562 106.890625 35.023438 104.410156 37.765625 102.371094 C 38.5625 102.015625 39.308594 101.5625 39.996094 101.019531 C 40.480469 100.582031 39.546875 101.179688 39.097656 101.339844 C 40.5 100.328125 41.632812 99.558594 42.625 98.9375 C 43.59375 98.300781 44.410156 97.792969 45.199219 97.34375 C 46.75 96.414062 48.164062 95.65625 50.53125 94.472656 C 48.355469 95.640625 52.058594 93.941406 52.503906 94.007812 C 53.070312 93.65625 52.832031 93.695312 52.789062 93.65625 C 52.746094 93.613281 52.878906 93.460938 54.296875 92.871094 C 58.136719 91.363281 62.109375 90.421875 66.21875 90.050781 C 68.140625 89.648438 69.933594 89.691406 70.121094 89.441406 C 72.324219 89.40625 74.515625 89.53125 76.703125 89.820312 C 79.203125 90.109375 81.636719 90.691406 84 91.5625 L 83.871094 91.628906 C 85.957031 92.035156 88.761719 93.769531 90.007812 94.300781 C 89.871094 94.34375 89.363281 94.054688 89.226562 94.105469 C 90.171875 94.546875 91.097656 95.007812 92 95.511719 C 90.878906 94.929688 90.125 94.707031 92.074219 95.941406 C 93.933594 96.765625 91.246094 95.269531 92.488281 95.820312 C 92.722656 96.054688 92.9375 96.304688 93.164062 96.542969 C 94.710938 97.484375 95.585938 97.734375 93.714844 96.398438 C 98.386719 99.648438 102.789062 103.230469 106.917969 107.148438 L 106.261719 106.816406 C 108.3125 108.660156 111.0625 111.136719 112.070312 112.167969 C 112.203125 112.140625 112.714844 112.460938 112.335938 112.117188 C 113.929688 113.234375 113.382812 112.988281 113.792969 113.390625 C 113.65625 113.28125 113.507812 113.203125 113.34375 113.152344 C 115 114.425781 116.722656 115.609375 118.511719 116.699219 C 119.011719 117.203125 119.5625 117.640625 120.167969 118.007812 C 121.289062 118.769531 122.476562 119.398438 123.734375 119.894531 L 122.582031 119.195312 C 123.035156 119.410156 123.5 119.585938 123.964844 119.765625 C 124.316406 120.003906 124.660156 120.269531 125.027344 120.480469 C 125.722656 120.640625 126.402344 120.824219 127.097656 120.925781 L 126.886719 121.082031 C 128.324219 121.46875 129.070312 121.324219 130.421875 121.636719 C 131.667969 121.921875 132.558594 122.019531 133.234375 122.125 C 133.910156 122.25 134.382812 122.265625 134.804688 122.316406 L 136.113281 122.464844 L 138.191406 122.527344 C 138.542969 122.339844 138.917969 122.238281 139.3125 122.226562 L 140.355469 122.097656 L 141.550781 121.90625 C 142.332031 121.796875 143.101562 121.648438 143.867188 121.457031 C 144.332031 121.386719 144.773438 121.238281 145.191406 121.023438 C 148.21875 120.402344 151.136719 119.445312 153.9375 118.144531 C 157.097656 116.757812 160.390625 115.011719 163.660156 113.289062 L 163.167969 113.65625 C 165.933594 112.371094 166.089844 111.546875 168.910156 110.074219 L 168.414062 110.457031 C 172.152344 108.628906 178.863281 104.519531 182.234375 102.398438 C 181.738281 102.777344 182.15625 102.800781 183.121094 102.175781 C 184.113281 101.414062 182.257812 102.261719 184.140625 101.28125 C 183.671875 101.527344 184.113281 101.414062 184.585938 101.175781 L 186.546875 99.792969 C 192.199219 96.84375 198.304688 93.53125 203.609375 90.414062 C 204.566406 89.921875 203.582031 90.550781 203.554688 90.6875 C 207.859375 88.09375 212.339844 85.851562 216.996094 83.957031 L 217.425781 84.039062 C 219.667969 83.257812 218.179688 83.296875 221.472656 82.574219 C 222.03125 82.433594 219.160156 83.246094 218.574219 83.574219 C 219.734375 83.304688 220.871094 82.960938 221.984375 82.542969 C 223.152344 82.058594 224.363281 81.730469 225.617188 81.566406 C 225.15625 81.746094 224.691406 81.90625 224.234375 82.109375 C 225.941406 81.816406 226.878906 81.640625 227.566406 81.46875 C 228.257812 81.300781 228.660156 81.140625 229.351562 81 C 230.921875 80.710938 232.484375 80.734375 234.039062 81.070312 C 235.171875 81.351562 236.496094 81.476562 240 82.035156 C 241.414062 82.195312 239.65625 81.714844 241.078125 81.882812 C 242.867188 82.328125 244.605469 82.917969 246.300781 83.648438 C 248.132812 84.414062 249.796875 85.449219 251.296875 86.753906 C 251.792969 87.328125 251.878906 87.527344 251.796875 87.5 C 251.714844 87.472656 251.449219 87.230469 251.183594 87 C 250.644531 86.546875 250.136719 86.097656 251.183594 87.238281 C 250.199219 86.328125 249.136719 85.527344 247.992188 84.835938 C 248.753906 85.34375 248.957031 85.582031 248.871094 85.550781 C 248.785156 85.523438 248.394531 85.285156 247.90625 85.035156 C 247.246094 84.589844 246.527344 84.277344 245.746094 84.101562 C 247.988281 85.085938 250.03125 86.386719 251.878906 87.996094 C 251.570312 87.714844 251.453125 87.664062 251.847656 88.199219 C 252.222656 88.535156 252.574219 88.890625 252.910156 89.261719 C 252.757812 89.234375 252.621094 89.191406 251.691406 88.191406 C 251.996094 88.691406 252.507812 89.164062 252.980469 89.769531 C 253.488281 90.320312 253.925781 90.921875 254.292969 91.578125 C 254.4375 91.625 254.742188 91.734375 254.558594 91.160156 C 254.410156 91.109375 254.738281 91.730469 254.738281 91.730469 C 255.769531 93.5 256.539062 95.378906 257.039062 97.367188 C 257.246094 98.117188 257.492188 98.859375 257.78125 99.585938 C 258.070312 100.183594 258.332031 100.714844 258.570312 101.128906 C 258.300781 100.710938 258.449219 101.109375 258.449219 101.109375 C 258.785156 101.75 259.179688 102.351562 259.628906 102.917969 C 260.171875 103.515625 260.722656 104.164062 261.324219 104.863281 C 262.066406 105.902344 260.753906 104.9375 262.828125 106.957031 C 263.40625 107.242188 262.390625 105.894531 264.421875 107.820312 C 264.421875 107.820312 264.296875 107.730469 264.140625 107.597656 L 263.601562 107.160156 C 263.246094 106.886719 262.988281 106.738281 263.402344 107.242188 C 263.835938 107.589844 264.246094 107.960938 264.640625 108.355469 C 264.941406 108.769531 265.28125 109.148438 265.667969 109.488281 C 266.773438 109.976562 267.558594 110.941406 268.042969 110.78125 C 268.574219 111.421875 268.3125 111.09375 269.792969 112.210938 C 269.460938 111.90625 270.125 112.316406 270.925781 112.636719 C 271.71875 112.980469 272.566406 113.351562 272.476562 113.175781 C 273.082031 113.773438 269.894531 112.175781 271.757812 113.503906 C 273.265625 114.144531 275.71875 115.078125 276.074219 114.859375 C 277.046875 115.433594 278.066406 115.902344 279.136719 116.261719 C 278.796875 116.140625 278.453125 116.046875 278.097656 115.980469 C 278.878906 116.191406 279.746094 116.460938 280.644531 116.753906 L 283.398438 117.519531 C 284.84375 117.921875 286.316406 118.175781 287.816406 118.269531 C 287.5625 118.484375 289.304688 118.875 290.824219 119.074219 C 292.328125 119.324219 293.640625 119.433594 292.394531 119.527344 C 293.6875 119.664062 294.980469 119.695312 296.277344 119.628906 C 296.136719 119.777344 297.023438 119.875 298.113281 119.972656 C 299.210938 120.042969 300.523438 120.085938 301.238281 120.199219 C 301.925781 120.015625 304.46875 120.175781 306.175781 119.972656 C 305.582031 120.066406 305.066406 120.054688 305.492188 120.171875 C 306.523438 120.046875 307.546875 120.0625 308.570312 120.21875 C 310.707031 120.113281 308.222656 120.003906 309.410156 119.789062 C 311.460938 119.789062 309.761719 120 310.195312 120.105469 L 313.085938 119.617188 C 313.578125 119.582031 314.066406 119.601562 314.554688 119.667969 L 315.183594 119.539062 L 316.101562 119.601562 L 318.917969 119.117188 C 320.050781 119.066406 321.1875 119.089844 322.320312 119.191406 L 324.472656 118.894531 L 323.726562 119.285156 L 322.6875 119.378906 L 322.390625 119.832031 L 322.910156 119.792969 C 326.757812 119.257812 330.621094 119.03125 334.503906 119.109375 L 333.664062 119.003906 C 334.171875 118.917969 334.683594 118.863281 335.199219 118.839844 C 334.546875 118.945312 334.242188 119.0625 334.554688 119.109375 C 336.222656 119.105469 337.847656 119.378906 339.421875 119.929688 C 339.765625 119.957031 340.109375 119.949219 340.449219 119.902344 C 340.804688 119.894531 341.164062 119.878906 341.3125 120.019531 L 341.238281 120.136719 L 340.332031 120.027344 C 340.542969 120.101562 340.742188 120.199219 340.929688 120.320312 C 340.835938 120.328125 340.738281 120.328125 340.644531 120.316406 C 340.761719 120.335938 340.875 120.367188 340.984375 120.410156 C 340.988281 120.449219 341.050781 120.464844 341.03125 120.496094 Z M 276.832031 123.917969 L 276.894531 123.933594 L 276.847656 123.90625 Z M 276.832031 123.917969 " fill-opacity="1" fill-rule="nonzero"/></g><path fill="#2aa198" d="M 315.242188 119.53125 C 316.09375 119.464844 316.953125 119.386719 317.808594 119.292969 C 316.945312 119.292969 316.089844 119.371094 315.242188 119.53125 Z M 315.242188 119.53125 " fill-opacity="1" fill-rule="nonzero"/><path fill="#2aa198" d="M 342.152344 120.25 L 341.238281 120.144531 C 341.167969 120.261719 341.066406 120.324219 340.933594 120.332031 C 340.960938 120.355469 340.980469 120.386719 340.984375 120.421875 C 341.066406 120.441406 341.144531 120.464844 341.222656 120.496094 C 341.558594 120.511719 341.871094 120.429688 342.152344 120.25 Z M 342.152344 120.25 " fill-opacity="1" fill-rule="nonzero"/><path fill="#2aa198" d="M 337.507812 119.089844 L 336.597656 118.984375 C 336.386719 119.335938 337.363281 119.324219 338.273438 119.429688 C 338.90625 119.441406 339.53125 119.511719 340.148438 119.640625 C 340.457031 119.605469 340.765625 119.59375 341.074219 119.601562 C 339.902344 119.40625 338.640625 119.351562 337.4375 119.210938 C 337.578125 118.976562 339.011719 119.019531 339.992188 119 C 339.085938 118.859375 338.175781 118.792969 337.261719 118.800781 C 337.582031 118.882812 337.546875 119.023438 337.507812 119.089844 Z M 337.507812 119.089844 " fill-opacity="1" fill-rule="nonzero"/><path fill="#2aa198" d="M 335.765625 118.761719 L 335.199219 118.847656 C 335.859375 118.804688 336.566406 118.792969 337.261719 118.800781 C 336.765625 118.710938 336.265625 118.699219 335.765625 118.761719 Z M 335.765625 118.761719 " fill-opacity="1" fill-rule="nonzero"/><path fill="#2aa198" d="M 340.453125 119.910156 L 340.929688 119.855469 C 340.675781 119.761719 340.417969 119.6875 340.148438 119.636719 L 339.566406 119.703125 C 339.691406 119.914062 340.070312 119.914062 340.453125 119.910156 Z M 340.453125 119.910156 " fill-opacity="1" fill-rule="nonzero"/><path fill="#2aa198" d="M 152.09375 177.367188 C 151.582031 177.246094 151.0625 177.125 150.703125 177.074219 C 151.152344 177.222656 151.617188 177.320312 152.09375 177.367188 Z M 152.09375 177.367188 " fill-opacity="1" fill-rule="nonzero"/><path fill="#2aa198" d="M 203.808594 172.683594 L 202.964844 173.246094 C 202.699219 173.453125 202.417969 173.640625 202.121094 173.804688 C 202.953125 173.375 204.191406 172.726562 203.808594 172.683594 Z M 203.808594 172.683594 " fill-opacity="1" fill-rule="nonzero"/><path fill="#2aa198" d="M 311.519531 173.679688 L 311.449219 173.664062 C 311.1875 173.632812 311.296875 173.644531 311.519531 173.679688 Z M 311.519531 173.679688 " fill-opacity="1" fill-rule="nonzero"/><path fill="#2aa198" d="M 85.199219 150.019531 C 85.195312 150.027344 85.246094 150.035156 85.257812 150.046875 L 85.714844 150.046875 Z M 85.199219 150.019531 " fill-opacity="1" fill-rule="nonzero"/><path fill="#2aa198" d="M 340.050781 167.648438 L 340.074219 167.648438 L 340.125 167.632812 Z M 340.050781 167.648438 " fill-opacity="1" fill-rule="nonzero"/><path fill="#2aa198" d="M 275.207031 150.277344 C 275.609375 150.425781 276.015625 150.546875 276.4375 150.632812 Z M 275.207031 150.277344 " fill-opacity="1" fill-rule="nonzero"/><g clip-path="url(#81b9f1e592)"><path fill="#2aa198" d="M 359.570312 161.347656 C 359.613281 161.3125 359.648438 161.273438 359.6875 161.230469 C 359.820312 161.203125 359.929688 161.230469 359.972656 161.34375 C 360.332031 161.210938 360.429688 161.449219 360.234375 162.085938 C 360.183594 161.957031 359.808594 161.980469 359.542969 162.460938 L 359.613281 162.710938 C 359.648438 162.835938 359.988281 162.597656 360.023438 162.722656 C 360.371094 162.476562 360.441406 162.722656 360.476562 162.851562 L 360.609375 163.363281 C 360.722656 163.777344 360.675781 164.167969 360.464844 164.542969 C 360.167969 165.074219 360.183594 165.316406 359.84375 165.832031 C 359.5 166.347656 359.132812 166.84375 358.734375 167.316406 C 357.851562 168.339844 356.859375 169.253906 355.765625 170.046875 C 353.957031 171.292969 352.050781 172.367188 350.050781 173.269531 C 350.011719 173.429688 352.417969 172.460938 350.453125 173.359375 C 350.535156 173.101562 348.992188 173.863281 349.035156 173.734375 C 347.390625 174.414062 345.699219 174.945312 343.957031 175.328125 C 344.511719 175.113281 343.027344 175.40625 342.042969 175.527344 C 342.167969 175.289062 339.589844 175.875 342.789062 174.984375 C 339.519531 176.027344 336.78125 175.808594 334.363281 176.449219 L 335.34375 176.449219 C 334.199219 176.449219 333.054688 176.449219 331.914062 176.386719 C 330.632812 176.402344 329.367188 176.277344 328.117188 176.003906 C 329.167969 176.015625 330.136719 176.066406 331.1875 176.035156 C 329.339844 175.804688 327.550781 176.089844 325.535156 175.917969 C 325.714844 175.730469 328.027344 176.117188 327.246094 175.8125 C 325.804688 175.640625 324.667969 175.703125 323.144531 175.558594 L 323.238281 175.464844 C 319.542969 174.675781 321.804688 175.761719 319.164062 174.996094 L 318.964844 175.175781 C 318.019531 174.953125 315.777344 174.300781 317.855469 174.578125 C 316.828125 174.367188 315.792969 174.207031 314.75 174.105469 C 315.578125 174.445312 316.148438 174.480469 316.414062 174.773438 C 314.773438 174.457031 313.140625 174.101562 311.523438 173.675781 C 311.847656 173.722656 312.164062 173.789062 312.480469 173.875 C 309.878906 172.894531 307.007812 172.070312 304.167969 171.035156 C 301.234375 170.058594 298.40625 168.84375 295.679688 167.386719 C 296.40625 167.859375 295.027344 167.3125 294.496094 167.175781 C 292.714844 166.410156 289.703125 165.03125 288.058594 164.210938 L 288.589844 164.351562 C 284.019531 162.558594 280.949219 161.316406 277.96875 160.082031 C 277.96875 160.082031 278.074219 160.015625 278.597656 160.136719 C 276.632812 159.605469 274.289062 157.996094 273.445312 158.144531 L 274.273438 158.472656 C 269.960938 156.886719 265.539062 155.730469 261.003906 155.003906 C 259.925781 154.507812 263.703125 155.464844 262.628906 154.972656 C 259.453125 154.238281 256.234375 153.847656 252.972656 153.796875 C 253.347656 153.738281 253.207031 153.707031 253.285156 153.707031 C 250.289062 153.546875 253.6875 153.949219 251.132812 153.90625 C 251.699219 153.726562 251.273438 153.691406 250.417969 153.65625 L 249.433594 153.878906 C 249.007812 153.878906 249.074219 153.773438 249.566406 153.667969 C 248.582031 153.84375 244.742188 154.027344 243.734375 154.550781 C 243.789062 154.433594 244.324219 154.148438 243.949219 154.085938 C 243.242188 154.175781 242.546875 154.304688 241.859375 154.476562 C 241.296875 154.640625 240.835938 154.8125 240.390625 154.949219 C 239.382812 155.066406 238.394531 155.273438 237.425781 155.574219 C 234.851562 156.300781 236.917969 155.898438 235.167969 156.601562 C 235.863281 156.390625 236.558594 156.207031 237.261719 156.054688 C 235.96875 156.402344 234.703125 156.90625 233.425781 157.324219 L 234.75 156.71875 C 233.933594 156.945312 233.136719 157.230469 232.363281 157.570312 L 229.671875 158.710938 L 230.464844 158.53125 L 228.355469 159.546875 C 228.425781 159.144531 225.875 160.671875 226.789062 159.824219 C 223.246094 161.488281 219.8125 163.347656 216.484375 165.410156 C 216.890625 165.203125 216.902344 165.074219 216.902344 165.074219 C 215.320312 165.878906 213.816406 166.816406 212.398438 167.882812 C 212.816406 167.542969 213.21875 167.332031 213.234375 167.203125 C 210.789062 168.601562 211.992188 168.097656 209.125 169.859375 C 209.964844 169.171875 209.558594 169.386719 208.746094 169.816406 C 209.140625 169.730469 208.3125 170.292969 207.902344 170.511719 C 210.027344 168.648438 204.652344 172.117188 205.949219 170.820312 C 205.9375 170.949219 201.765625 173.636719 202.964844 173.246094 C 199.269531 175.527344 195.160156 177.640625 190.355469 180.035156 C 191 179.703125 192.089844 179.066406 190.980469 179.546875 C 189.773438 180.109375 188.703125 180.601562 187.699219 181.054688 C 186.707031 181.527344 185.773438 181.953125 184.828125 182.367188 C 183.890625 182.800781 182.9375 183.21875 181.871094 183.632812 C 180.820312 184.074219 179.65625 184.492188 178.296875 184.925781 C 178.148438 184.726562 179.640625 184.296875 181.125 183.757812 C 182.207031 183.464844 183.226562 183.03125 184.1875 182.457031 C 182.925781 182.988281 181.5625 183.429688 180.207031 183.9375 C 178.8125 184.363281 177.421875 184.875 175.945312 185.242188 C 172.929688 186.09375 169.871094 186.714844 166.765625 187.113281 C 164.152344 186.75 160.363281 187.679688 156.109375 186.769531 C 156.417969 187.035156 154.308594 186.855469 152.234375 186.503906 C 152.824219 186.535156 150.867188 186.078125 151.460938 186.097656 C 151.046875 186.050781 150.386719 185.941406 149.632812 185.796875 C 148.890625 185.636719 148.0625 185.417969 147.296875 185.210938 C 145.777344 184.753906 144.523438 184.273438 144.6875 184.164062 C 143.835938 184.082031 143.019531 183.855469 142.246094 183.492188 C 141.269531 183.058594 140.273438 182.691406 139.253906 182.378906 C 137.144531 181.316406 134.648438 180.382812 132.132812 178.992188 C 132.71875 179.582031 129.390625 177.695312 128.46875 177.253906 L 129 177.441406 C 128.421875 176.851562 126.203125 176.140625 124.726562 175.09375 C 124.449219 174.792969 124.964844 174.988281 124.175781 174.492188 C 122.40625 173.695312 120.71875 172.75 119.117188 171.65625 L 120.128906 172.046875 C 113.460938 168.28125 106.976562 164.203125 100.046875 161.824219 L 101.558594 162.144531 C 97.660156 160.347656 98.640625 161.449219 95.328125 160.386719 C 93.019531 159.652344 90.671875 159.101562 88.28125 158.722656 C 85.957031 158.34375 83.621094 158.226562 81.273438 158.378906 C 78.910156 158.472656 76.597656 158.863281 74.332031 159.542969 L 72.75 160.058594 C 72.234375 160.253906 71.734375 160.476562 71.222656 160.679688 C 70.695312 160.882812 70.191406 161.121094 69.703125 161.402344 C 69.457031 161.535156 69.1875 161.660156 68.910156 161.820312 C 68.632812 161.976562 68.34375 162.164062 68.003906 162.359375 C 67.324219 162.867188 68.683594 162.09375 68.679688 162.21875 C 67.683594 162.808594 67.621094 162.519531 66.710938 163.316406 L 67.027344 163.21875 C 66.710938 163.375 66.394531 163.5625 66.070312 163.75 C 65.746094 163.9375 65.492188 164.175781 65.1875 164.355469 L 63.523438 165.699219 C 62.960938 166.128906 62.554688 166.65625 61.964844 167.046875 C 61.636719 167.523438 61.222656 167.917969 60.730469 168.222656 C 59.152344 169.976562 58.074219 170.242188 58.152344 168.351562 C 57.765625 168.472656 57.515625 168.304688 57.355469 167.890625 C 57.269531 167.632812 57.214844 167.371094 57.191406 167.101562 C 57.183594 166.753906 57.203125 166.40625 57.253906 166.0625 C 57.308594 165.253906 57.4375 164.453125 57.644531 163.667969 C 57.902344 163.035156 58.054688 162.464844 58.28125 161.960938 C 58.511719 161.453125 58.753906 160.941406 59.101562 160.320312 C 60.636719 158.390625 58.734375 161.335938 60.296875 159.335938 C 60.492188 159.050781 60.742188 158.722656 61.027344 158.363281 C 61.3125 158.007812 61.671875 157.683594 62.027344 157.316406 C 62.746094 156.59375 63.5 155.917969 64.300781 155.285156 C 65.769531 154.097656 67.386719 153.171875 69.15625 152.503906 C 70.15625 152.078125 71.210938 151.789062 72.175781 151.480469 C 73.15625 151.242188 74.066406 151.054688 74.808594 150.914062 C 78.257812 150.277344 81.738281 149.988281 85.246094 150.042969 C 86.039062 150.25 86.84375 150.355469 87.660156 150.363281 C 88.265625 150.320312 87.246094 150.210938 86.824219 150.058594 C 89.03125 150.171875 91.21875 150.449219 93.386719 150.878906 C 94.960938 151.210938 96.339844 151.527344 98.566406 152.15625 C 97.515625 151.929688 97.839844 152.0625 98.460938 152.289062 C 99.03125 152.484375 99.574219 152.734375 100.089844 153.046875 C 101.226562 153.25 99.402344 152.53125 101.910156 153.289062 C 105.113281 154.496094 108.210938 155.933594 111.207031 157.59375 C 112.714844 158.152344 113.933594 158.882812 114.183594 158.761719 C 117.585938 160.613281 119.828125 161.769531 123.859375 164.214844 L 123.738281 164.269531 C 125.277344 164.871094 127.21875 166.5 128.234375 166.875 C 128.113281 166.929688 127.730469 166.683594 127.609375 166.738281 L 129.773438 167.839844 C 128.882812 167.414062 128.261719 167.28125 129.804688 168.242188 C 131.3125 168.796875 129.152344 167.710938 130.15625 168.078125 L 130.6875 168.667969 C 131.964844 169.3125 132.699219 169.378906 131.160156 168.445312 C 135.105469 170.726562 139.1875 172.734375 143.40625 174.460938 C 143.203125 174.453125 143 174.4375 142.796875 174.421875 C 144.886719 175.269531 147.804688 176.277344 148.929688 176.757812 C 149.027344 176.679688 149.53125 176.742188 149.125 176.601562 C 150.742188 176.882812 150.234375 176.90625 150.683594 177.082031 C 150.542969 177.042969 150.394531 177.039062 150.25 177.070312 C 151.996094 177.464844 153.761719 177.761719 155.542969 177.957031 C 156.117188 178.199219 156.710938 178.355469 157.328125 178.425781 C 158.507812 178.632812 159.699219 178.738281 160.894531 178.738281 C 160.503906 178.644531 160.109375 178.570312 159.707031 178.515625 C 160.152344 178.515625 160.597656 178.546875 161.039062 178.527344 L 162.164062 178.777344 C 162.804688 178.675781 163.433594 178.625 164.058594 178.488281 L 163.929688 178.710938 C 165.269531 178.535156 165.875 178.25 167.136719 178.132812 C 169.457031 177.941406 170.394531 177.78125 171.167969 177.707031 C 172.195312 177.617188 173.210938 177.472656 174.222656 177.269531 C 175.140625 176.789062 176.109375 176.441406 177.125 176.230469 C 178.21875 175.945312 179.269531 175.550781 180.277344 175.039062 C 184.804688 173.78125 190.65625 170.628906 196.324219 167.582031 L 195.898438 167.917969 C 198.320312 166.800781 198.402344 166.03125 200.835938 164.746094 L 200.414062 165.089844 C 203.640625 163.515625 209.421875 159.792969 212.429688 157.925781 C 211.996094 158.269531 212.375 158.316406 213.226562 157.761719 C 214.109375 157.085938 212.4375 157.792969 214.128906 156.957031 C 213.703125 157.167969 214.109375 157.085938 214.53125 156.875 C 215.117188 156.472656 215.691406 156.054688 216.289062 155.660156 C 221.566406 153.078125 226.972656 150.808594 232.507812 148.84375 C 233.441406 148.570312 232.460938 148.96875 232.417969 149.09375 C 236.636719 147.601562 240.960938 146.554688 245.394531 145.949219 L 245.746094 146.136719 C 247.789062 145.878906 246.535156 145.640625 249.445312 145.6875 C 249.945312 145.6875 247.375 145.816406 246.804688 145.953125 C 250.699219 146.011719 249.023438 145.492188 253.09375 145.597656 L 251.84375 145.855469 C 253.316406 145.953125 254.78125 145.890625 256.238281 145.675781 C 257.5625 145.589844 258.847656 145.78125 260.089844 146.257812 C 261.671875 146.757812 263.289062 147.113281 264.933594 147.328125 C 266.089844 147.394531 264.664062 147.039062 265.824219 147.105469 C 267.753906 147.601562 268.875 147.871094 270.003906 148.136719 C 271.105469 148.445312 272.234375 148.726562 274.09375 149.363281 C 275.886719 150.535156 272.199219 148.734375 274.101562 149.832031 C 273.21875 149.46875 272.292969 149.179688 271.386719 148.847656 C 273.894531 149.960938 269.355469 148.359375 269.59375 148.679688 C 270.980469 149.183594 272.871094 149.574219 274.742188 150.140625 C 274.46875 150.070312 274.375 150.085938 274.769531 150.328125 L 275.769531 150.605469 C 275.664062 150.675781 275.546875 150.75 274.660156 150.398438 C 275.550781 150.816406 276.472656 151.148438 277.425781 151.390625 C 277.53125 151.320312 277.757812 151.175781 277.429688 150.925781 C 277.324219 150.996094 277.757812 151.183594 277.757812 151.183594 C 280.402344 151.820312 284.164062 153.65625 286.175781 154.289062 C 285.644531 154.152344 286.0625 154.355469 286.0625 154.355469 C 287.335938 154.957031 289.039062 155.320312 290.824219 156.082031 C 291.960938 156.761719 290.371094 156.335938 293.082031 157.445312 C 293.71875 157.523438 292.296875 156.570312 294.890625 157.746094 C 294.890625 157.746094 292.59375 156.839844 293.71875 157.523438 C 296.011719 158.425781 294.546875 157.933594 296.488281 159.023438 C 297.652344 159.242188 298.542969 160.039062 298.992188 159.777344 C 299.585938 160.308594 299.289062 160.039062 300.8125 160.902344 C 300.109375 160.457031 303.601562 161.871094 303.414062 161.542969 C 304.011719 162.0625 300.925781 160.851562 302.75 161.945312 C 304.199219 162.40625 306.472656 163.179688 306.789062 162.964844 C 307.65625 163.476562 308.566406 163.90625 309.511719 164.253906 C 309.21875 164.140625 308.917969 164.054688 308.609375 163.996094 C 309.957031 164.402344 311.65625 164.953125 313.230469 165.398438 C 314.484375 165.785156 315.765625 166.039062 317.074219 166.152344 C 316.835938 166.355469 318.347656 166.746094 319.660156 166.992188 C 320.972656 167.261719 322.085938 167.417969 321.007812 167.46875 C 322.113281 167.640625 323.222656 167.710938 324.34375 167.679688 C 324.214844 167.824219 324.960938 167.945312 325.894531 168.066406 C 326.828125 168.164062 327.9375 168.265625 328.542969 168.367188 C 329.128906 168.222656 331.277344 168.414062 332.699219 168.234375 C 332.203125 168.320312 331.773438 168.300781 332.128906 168.425781 C 332.988281 168.304688 333.84375 168.324219 334.695312 168.488281 C 336.460938 168.355469 334.40625 168.28125 335.382812 168.046875 C 337.070312 168.011719 335.679688 168.261719 336.039062 168.355469 C 336.832031 168.210938 337.605469 167.992188 338.382812 167.808594 C 338.78125 167.75 339.175781 167.75 339.574219 167.804688 L 340.070312 167.648438 L 340.8125 167.648438 C 341.558594 167.453125 342.265625 167.199219 342.980469 166.96875 C 343.855469 166.816406 344.738281 166.714844 345.628906 166.65625 C 346.167969 166.484375 346.671875 166.253906 347.1875 166.050781 L 346.730469 166.542969 C 346.355469 166.679688 345.960938 166.789062 345.960938 166.789062 L 345.832031 167.269531 L 346.230469 167.164062 C 349.050781 166.144531 351.796875 164.945312 354.46875 163.574219 L 353.835938 163.796875 C 354.085938 163.589844 354.414062 163.347656 354.765625 163.074219 C 354.40625 163.421875 354.273438 163.644531 354.5 163.554688 C 355.675781 162.890625 356.898438 162.339844 358.175781 161.90625 C 358.414062 161.742188 358.617188 161.542969 358.789062 161.308594 C 358.988281 161.09375 359.1875 160.867188 359.378906 160.867188 L 359.421875 160.988281 L 358.816406 161.46875 C 359 161.390625 359.1875 161.335938 359.382812 161.300781 C 359.332031 161.367188 359.277344 161.425781 359.210938 161.472656 C 359.292969 161.414062 359.386719 161.367188 359.480469 161.328125 C 359.511719 161.34375 359.554688 161.3125 359.570312 161.347656 Z M 307.101562 171.875 L 307.152344 171.890625 L 307.113281 171.867188 Z M 307.101562 171.875 " fill-opacity="1" fill-rule="nonzero"/></g><path fill="#2aa198" d="M 340.125 167.632812 C 340.796875 167.5 341.480469 167.398438 342.136719 167.230469 C 341.449219 167.289062 340.78125 167.425781 340.125 167.632812 Z M 340.125 167.632812 " fill-opacity="1" fill-rule="nonzero"/><g clip-path="url(#268281a262)"><path fill="#2aa198" d="M 360.054688 160.488281 L 359.429688 160.988281 C 359.476562 161.101562 359.464844 161.203125 359.390625 161.300781 C 359.425781 161.296875 359.457031 161.304688 359.488281 161.328125 C 359.550781 161.289062 359.617188 161.253906 359.683594 161.230469 C 359.898438 161.027344 360.023438 160.78125 360.054688 160.488281 Z M 360.054688 160.488281 " fill-opacity="1" fill-rule="nonzero"/></g><path fill="#2aa198" d="M 356.40625 162.261719 L 355.765625 162.601562 C 355.851562 162.972656 356.464844 162.515625 357.125 162.152344 C 357.527344 161.820312 357.960938 161.535156 358.425781 161.300781 C 358.574219 161.097656 358.742188 160.90625 358.925781 160.730469 C 358.519531 161.019531 358.121094 161.320312 357.695312 161.597656 C 357.296875 161.890625 356.878906 162.152344 356.4375 162.386719 C 356.398438 162.160156 357.285156 161.484375 357.863281 160.949219 C 357.242188 161.324219 356.644531 161.726562 356.0625 162.160156 C 356.320312 162.074219 356.386719 162.195312 356.40625 162.261719 Z M 356.40625 162.261719 " fill-opacity="1" fill-rule="nonzero"/><path fill="#2aa198" d="M 355.089844 162.78125 C 354.964844 162.886719 354.863281 162.980469 354.769531 163.074219 C 355.183594 162.785156 355.632812 162.480469 356.0625 162.160156 C 355.707031 162.320312 355.382812 162.527344 355.089844 162.78125 Z M 355.089844 162.78125 " fill-opacity="1" fill-rule="nonzero"/><path fill="#2aa198" d="M 358.796875 161.304688 L 359.035156 160.988281 C 358.820312 161.074219 358.617188 161.179688 358.421875 161.304688 L 358.101562 161.667969 C 358.324219 161.734375 358.585938 161.542969 358.796875 161.304688 Z M 358.796875 161.304688 " fill-opacity="1" fill-rule="nonzero"/><path fill="#2aa198" d="M 96.300781 69.859375 C 95.789062 69.738281 95.269531 69.617188 94.910156 69.5625 C 95.363281 69.714844 95.824219 69.8125 96.300781 69.859375 Z M 96.300781 69.859375 " fill-opacity="1" fill-rule="nonzero"/><path fill="#2aa198" d="M 148.015625 65.171875 L 147.171875 65.734375 C 146.90625 65.945312 146.625 66.132812 146.328125 66.296875 C 147.160156 65.867188 148.398438 65.21875 148.015625 65.171875 Z M 148.015625 65.171875 " fill-opacity="1" fill-rule="nonzero"/><path fill="#2aa198" d="M 255.726562 66.171875 L 255.65625 66.152344 C 255.398438 66.121094 255.507812 66.136719 255.726562 66.171875 Z M 255.726562 66.171875 " fill-opacity="1" fill-rule="nonzero"/><path fill="#2aa198" d="M 29.410156 42.511719 C 29.402344 42.519531 29.457031 42.527344 29.464844 42.535156 L 29.921875 42.535156 Z M 29.410156 42.511719 " fill-opacity="1" fill-rule="nonzero"/><path fill="#2aa198" d="M 284.257812 60.140625 L 284.285156 60.140625 L 284.332031 60.125 Z M 284.257812 60.140625 " fill-opacity="1" fill-rule="nonzero"/><path fill="#2aa198" d="M 219.417969 42.765625 C 219.816406 42.917969 220.226562 43.035156 220.644531 43.125 Z M 219.417969 42.765625 " fill-opacity="1" fill-rule="nonzero"/><g clip-path="url(#00ba8ebf87)"><path fill="#2aa198" d="M 303.78125 53.839844 C 303.820312 53.804688 303.859375 53.761719 303.894531 53.722656 C 304.027344 53.691406 304.140625 53.722656 304.183594 53.835938 C 304.542969 53.703125 304.636719 53.941406 304.445312 54.578125 C 304.390625 54.449219 304.019531 54.472656 303.75 54.953125 L 303.820312 55.203125 C 303.855469 55.328125 304.199219 55.089844 304.234375 55.214844 C 304.578125 54.96875 304.648438 55.214844 304.683594 55.34375 L 304.820312 55.855469 C 304.929688 56.265625 304.882812 56.660156 304.671875 57.035156 C 304.378906 57.566406 304.390625 57.808594 304.050781 58.324219 C 303.710938 58.839844 303.339844 59.335938 302.941406 59.808594 C 302.058594 60.832031 301.070312 61.742188 299.972656 62.539062 C 298.164062 63.785156 296.261719 64.859375 294.257812 65.761719 C 294.21875 65.921875 296.628906 64.953125 294.660156 65.851562 C 294.742188 65.59375 293.203125 66.355469 293.246094 66.222656 C 291.597656 66.902344 289.90625 67.4375 288.167969 67.820312 C 288.722656 67.605469 287.238281 67.898438 286.253906 68.015625 C 286.375 67.78125 283.800781 68.367188 286.996094 67.476562 C 283.726562 68.515625 280.988281 68.300781 278.570312 68.941406 L 279.554688 68.941406 C 278.40625 68.941406 277.261719 68.941406 276.121094 68.878906 C 274.84375 68.894531 273.578125 68.769531 272.328125 68.496094 C 273.378906 68.503906 274.347656 68.558594 275.398438 68.527344 C 273.550781 68.296875 271.757812 68.582031 269.742188 68.410156 C 269.925781 68.222656 272.234375 68.609375 271.453125 68.300781 C 270.015625 68.132812 268.878906 68.195312 267.351562 68.050781 L 267.445312 67.953125 C 263.753906 67.167969 266.015625 68.253906 263.371094 67.488281 L 263.175781 67.664062 C 262.230469 67.441406 259.984375 66.792969 262.0625 67.070312 C 261.039062 66.855469 260.003906 66.699219 258.960938 66.597656 C 259.789062 66.9375 260.359375 66.972656 260.621094 67.265625 C 258.984375 66.949219 257.347656 66.589844 255.730469 66.167969 C 256.054688 66.214844 256.375 66.28125 256.6875 66.367188 C 254.085938 65.386719 251.214844 64.558594 248.375 63.527344 C 245.441406 62.550781 242.613281 61.335938 239.886719 59.878906 C 240.613281 60.351562 239.238281 59.804688 238.707031 59.664062 C 236.921875 58.902344 233.914062 57.523438 232.269531 56.703125 L 232.800781 56.84375 C 228.230469 55.050781 225.15625 53.808594 222.175781 52.574219 C 222.175781 52.574219 222.285156 52.507812 222.804688 52.625 C 220.84375 52.09375 218.5 50.484375 217.65625 50.636719 L 218.480469 50.964844 C 214.171875 49.378906 209.746094 48.222656 205.210938 47.496094 C 204.132812 47 207.910156 47.957031 206.839844 47.464844 C 203.660156 46.730469 200.441406 46.339844 197.183594 46.289062 C 197.554688 46.230469 197.414062 46.199219 197.496094 46.199219 C 194.5 46.035156 197.894531 46.441406 195.339844 46.394531 C 195.90625 46.21875 195.480469 46.183594 194.628906 46.144531 L 193.640625 46.371094 C 193.214844 46.371094 193.28125 46.265625 193.777344 46.160156 C 192.792969 46.335938 188.953125 46.519531 187.945312 47.042969 C 187.996094 46.925781 188.53125 46.640625 188.15625 46.578125 C 187.453125 46.667969 186.757812 46.796875 186.066406 46.96875 C 185.503906 47.132812 185.046875 47.304688 184.597656 47.441406 C 183.589844 47.558594 182.605469 47.765625 181.636719 48.066406 C 179.058594 48.792969 181.128906 48.390625 179.375 49.09375 C 180.070312 48.878906 180.769531 48.699219 181.46875 48.546875 C 180.175781 48.890625 178.914062 49.398438 177.632812 49.816406 L 178.957031 49.210938 C 178.140625 49.4375 177.347656 49.71875 176.574219 50.0625 L 173.878906 51.203125 L 174.675781 51.023438 L 172.5625 52.035156 C 172.632812 51.636719 170.082031 53.164062 170.996094 52.316406 C 167.453125 53.980469 164.019531 55.839844 160.691406 57.902344 C 161.097656 57.695312 161.113281 57.566406 161.113281 57.566406 C 159.527344 58.371094 158.027344 59.308594 156.605469 60.375 C 157.023438 60.035156 157.429688 59.824219 157.441406 59.695312 C 154.996094 61.09375 156.203125 60.585938 153.335938 62.351562 C 154.171875 61.664062 153.769531 61.878906 152.957031 62.308594 C 153.347656 62.222656 152.519531 62.785156 152.113281 63.003906 C 154.238281 61.140625 148.863281 64.609375 150.15625 63.3125 C 150.148438 63.441406 145.972656 66.128906 147.171875 65.734375 C 143.480469 68.015625 139.371094 70.128906 134.5625 72.523438 C 135.207031 72.191406 136.296875 71.558594 135.191406 72.035156 C 133.980469 72.601562 132.914062 73.09375 131.90625 73.546875 C 130.914062 74.019531 129.984375 74.445312 129.035156 74.859375 C 128.101562 75.292969 127.144531 75.710938 126.078125 76.125 C 125.027344 76.566406 123.863281 76.984375 122.503906 77.417969 C 122.359375 77.214844 123.851562 76.789062 125.332031 76.246094 C 126.414062 75.957031 127.433594 75.523438 128.398438 74.949219 C 127.132812 75.480469 125.769531 75.917969 124.417969 76.425781 C 123.019531 76.851562 121.628906 77.367188 120.152344 77.734375 C 117.140625 78.585938 114.082031 79.207031 110.972656 79.605469 C 108.363281 79.238281 104.570312 80.171875 100.316406 79.261719 C 100.628906 79.527344 98.519531 79.347656 96.445312 78.992188 C 97.035156 79.023438 95.074219 78.570312 95.671875 78.589844 C 95.253906 78.542969 94.59375 78.429688 93.84375 78.285156 C 93.097656 78.125 92.273438 77.910156 91.503906 77.703125 C 89.984375 77.246094 88.730469 76.765625 88.898438 76.65625 C 88.042969 76.574219 87.230469 76.347656 86.453125 75.980469 C 85.476562 75.550781 84.480469 75.179688 83.460938 74.871094 C 81.355469 73.808594 78.859375 72.875 76.339844 71.480469 C 76.925781 72.074219 73.601562 70.1875 72.675781 69.746094 L 73.207031 69.933594 C 72.628906 69.34375 70.410156 68.632812 68.9375 67.585938 C 68.660156 67.285156 69.175781 67.476562 68.382812 66.984375 C 66.613281 66.1875 64.929688 65.238281 63.324219 64.148438 L 64.339844 64.539062 C 57.671875 60.769531 51.183594 56.691406 44.253906 54.316406 L 45.765625 54.636719 C 41.871094 52.839844 42.847656 53.941406 39.535156 52.875 C 37.226562 52.144531 34.878906 51.589844 32.488281 51.214844 C 30.164062 50.835938 27.832031 50.71875 25.480469 50.871094 C 23.117188 50.964844 20.804688 51.355469 18.539062 52.03125 L 16.957031 52.550781 C 16.441406 52.746094 15.941406 52.96875 15.429688 53.171875 C 14.90625 53.375 14.398438 53.613281 13.914062 53.894531 C 13.667969 54.027344 13.394531 54.152344 13.117188 54.3125 C 12.839844 54.46875 12.550781 54.65625 12.210938 54.851562 C 11.535156 55.359375 12.890625 54.585938 12.886719 54.710938 C 11.894531 55.300781 11.832031 55.011719 10.917969 55.804688 L 11.238281 55.710938 C 10.917969 55.867188 10.605469 56.054688 10.28125 56.242188 C 9.957031 56.429688 9.699219 56.667969 9.394531 56.847656 L 7.734375 58.191406 C 7.167969 58.621094 6.761719 59.148438 6.175781 59.539062 C 5.84375 60.015625 5.433594 60.40625 4.941406 60.714844 C 3.359375 62.46875 2.28125 62.734375 2.359375 60.84375 C 1.976562 60.964844 1.722656 60.792969 1.566406 60.382812 C 1.480469 60.125 1.421875 59.863281 1.402344 59.59375 C 1.390625 59.246094 1.414062 58.898438 1.460938 58.554688 C 1.515625 57.742188 1.648438 56.945312 1.855469 56.160156 C 2.109375 55.527344 2.261719 54.957031 2.492188 54.449219 C 2.71875 53.945312 2.964844 53.433594 3.308594 52.8125 C 4.84375 50.882812 2.945312 53.828125 4.503906 51.828125 C 4.699219 51.542969 4.949219 51.214844 5.234375 50.855469 C 5.523438 50.496094 5.878906 50.175781 6.238281 49.808594 C 6.953125 49.085938 7.710938 48.410156 8.507812 47.777344 C 9.976562 46.589844 11.597656 45.664062 13.363281 44.992188 C 14.367188 44.570312 15.417969 44.277344 16.386719 43.972656 C 17.367188 43.734375 18.277344 43.546875 19.019531 43.40625 C 22.46875 42.769531 25.945312 42.480469 29.453125 42.535156 C 30.246094 42.742188 31.050781 42.847656 31.867188 42.855469 C 32.472656 42.8125 31.453125 42.699219 31.03125 42.546875 C 33.238281 42.664062 35.425781 42.9375 37.59375 43.371094 C 39.171875 43.703125 40.550781 44.019531 42.773438 44.648438 C 41.722656 44.417969 42.050781 44.554688 42.667969 44.78125 C 43.238281 44.972656 43.78125 45.226562 44.296875 45.539062 C 45.4375 45.742188 43.609375 45.019531 46.117188 45.78125 C 49.320312 46.988281 52.421875 48.425781 55.414062 50.085938 C 56.921875 50.644531 58.144531 51.375 58.390625 51.253906 C 61.792969 53.105469 64.039062 54.261719 68.066406 56.707031 L 67.945312 56.757812 C 69.484375 57.359375 71.429688 58.992188 72.441406 59.367188 C 72.320312 59.421875 71.9375 59.175781 71.816406 59.230469 L 73.980469 60.332031 C 73.09375 59.90625 72.472656 59.773438 74.011719 60.734375 C 75.523438 61.289062 73.359375 60.203125 74.367188 60.570312 L 74.898438 61.160156 C 76.171875 61.804688 76.910156 61.871094 75.367188 60.9375 C 79.316406 63.21875 83.398438 65.222656 87.617188 66.953125 C 87.410156 66.945312 87.207031 66.929688 87.003906 66.910156 C 89.09375 67.761719 92.011719 68.769531 93.136719 69.25 C 93.238281 69.171875 93.738281 69.234375 93.335938 69.089844 C 94.949219 69.375 94.441406 69.398438 94.894531 69.574219 C 94.75 69.535156 94.605469 69.53125 94.460938 69.558594 C 96.207031 69.957031 97.972656 70.253906 99.753906 70.449219 C 100.324219 70.691406 100.917969 70.847656 101.535156 70.917969 C 102.71875 71.125 103.90625 71.230469 105.105469 71.230469 C 104.710938 71.136719 104.316406 71.0625 103.917969 71.007812 C 104.359375 71.007812 104.804688 71.039062 105.25 71.019531 L 106.375 71.265625 C 107.011719 71.167969 107.640625 71.117188 108.269531 70.980469 L 108.136719 71.203125 C 109.476562 71.027344 110.082031 70.742188 111.34375 70.625 C 113.667969 70.433594 114.601562 70.273438 115.375 70.199219 C 116.402344 70.109375 117.421875 69.964844 118.429688 69.761719 C 119.351562 69.28125 120.320312 68.933594 121.335938 68.71875 C 122.429688 68.4375 123.480469 68.039062 124.488281 67.53125 C 129.011719 66.273438 134.867188 63.121094 140.53125 60.074219 L 140.109375 60.40625 C 142.527344 59.292969 142.609375 58.523438 145.042969 57.238281 L 144.625 57.582031 C 147.847656 56.003906 153.628906 52.285156 156.636719 50.417969 C 156.203125 50.761719 156.582031 50.808594 157.4375 50.253906 C 158.320312 49.578125 156.648438 50.28125 158.339844 49.445312 C 157.914062 49.660156 158.320312 49.578125 158.742188 49.367188 C 159.324219 48.964844 159.898438 48.546875 160.5 48.152344 C 165.773438 45.570312 171.179688 43.296875 176.714844 41.335938 C 177.652344 41.0625 176.667969 41.460938 176.625 41.585938 C 180.84375 40.09375 185.167969 39.046875 189.601562 38.441406 L 189.953125 38.628906 C 192 38.371094 190.742188 38.128906 193.652344 38.179688 C 194.152344 38.179688 191.582031 38.308594 191.011719 38.441406 C 194.90625 38.503906 193.230469 37.984375 197.300781 38.089844 L 196.054688 38.347656 C 197.523438 38.445312 198.988281 38.382812 200.445312 38.164062 C 201.773438 38.078125 203.054688 38.273438 204.296875 38.746094 C 205.882812 39.246094 207.496094 39.605469 209.144531 39.820312 C 210.296875 39.886719 208.875 39.53125 210.03125 39.597656 C 211.960938 40.09375 213.085938 40.363281 214.210938 40.628906 C 215.316406 40.9375 216.445312 41.21875 218.300781 41.855469 C 220.09375 43.027344 216.40625 41.226562 218.308594 42.324219 C 217.425781 41.957031 216.5 41.671875 215.59375 41.339844 C 218.105469 42.453125 213.5625 40.851562 213.800781 41.171875 C 215.191406 41.671875 217.082031 42.066406 218.953125 42.632812 C 218.675781 42.5625 218.582031 42.578125 218.980469 42.820312 L 219.976562 43.097656 C 219.871094 43.167969 219.757812 43.242188 218.871094 42.890625 C 219.757812 43.308594 220.679688 43.640625 221.632812 43.882812 C 221.738281 43.8125 221.964844 43.667969 221.640625 43.417969 C 221.535156 43.484375 221.964844 43.671875 221.964844 43.671875 C 224.609375 44.3125 228.371094 46.148438 230.382812 46.78125 C 229.851562 46.640625 230.269531 46.84375 230.269531 46.84375 C 231.546875 47.449219 233.246094 47.8125 235.03125 48.570312 C 236.167969 49.253906 234.582031 48.828125 237.289062 49.9375 C 237.929688 50.015625 236.507812 49.0625 239.097656 50.238281 C 239.097656 50.238281 236.804688 49.332031 237.929688 50.015625 C 240.222656 50.917969 238.753906 50.425781 240.699219 51.515625 C 241.859375 51.734375 242.753906 52.53125 243.199219 52.265625 C 243.792969 52.800781 243.496094 52.53125 245.023438 53.394531 C 244.316406 52.945312 247.8125 54.363281 247.621094 54.035156 C 248.21875 54.550781 245.132812 53.34375 246.957031 54.4375 C 248.410156 54.898438 250.679688 55.667969 251 55.453125 C 251.867188 55.96875 252.773438 56.398438 253.722656 56.746094 C 253.429688 56.632812 253.128906 56.546875 252.820312 56.488281 C 254.167969 56.890625 255.867188 57.445312 257.4375 57.890625 C 258.691406 58.277344 259.972656 58.527344 261.28125 58.644531 C 261.046875 58.847656 262.558594 59.234375 263.871094 59.484375 C 265.179688 59.75 266.292969 59.90625 265.21875 59.960938 C 266.320312 60.132812 267.433594 60.203125 268.550781 60.171875 C 268.421875 60.316406 269.171875 60.433594 270.101562 60.558594 C 271.035156 60.65625 272.148438 60.753906 272.753906 60.859375 C 273.339844 60.714844 275.484375 60.902344 276.910156 60.726562 C 276.410156 60.8125 275.980469 60.792969 276.335938 60.914062 C 277.195312 60.796875 278.050781 60.816406 278.902344 60.980469 C 280.671875 60.84375 278.613281 60.773438 279.589844 60.539062 C 281.28125 60.503906 279.886719 60.753906 280.246094 60.847656 C 281.042969 60.699219 281.816406 60.484375 282.59375 60.300781 C 282.988281 60.242188 283.386719 60.238281 283.78125 60.296875 L 284.277344 60.140625 L 285.019531 60.140625 C 285.765625 59.945312 286.472656 59.691406 287.1875 59.457031 C 288.066406 59.308594 288.949219 59.207031 289.835938 59.148438 C 290.378906 58.976562 290.882812 58.746094 291.398438 58.542969 L 290.941406 59.035156 C 290.5625 59.171875 290.167969 59.28125 290.167969 59.28125 L 290.039062 59.761719 L 290.4375 59.65625 C 293.261719 58.632812 296.007812 57.4375 298.675781 56.066406 L 298.042969 56.285156 C 298.296875 56.078125 298.621094 55.835938 298.972656 55.566406 C 298.613281 55.914062 298.480469 56.136719 298.710938 56.046875 C 299.882812 55.382812 301.105469 54.832031 302.382812 54.394531 C 302.621094 54.230469 302.828125 54.035156 302.996094 53.796875 C 303.199219 53.585938 303.394531 53.359375 303.589844 53.359375 L 303.632812 53.480469 L 303.023438 53.960938 C 303.207031 53.882812 303.394531 53.828125 303.589844 53.792969 C 303.542969 53.859375 303.484375 53.917969 303.417969 53.964844 C 303.503906 53.90625 303.59375 53.859375 303.691406 53.820312 C 303.71875 53.835938 303.765625 53.804688 303.78125 53.839844 Z M 251.308594 64.367188 L 251.363281 64.378906 L 251.324219 64.355469 Z M 251.308594 64.367188 " fill-opacity="1" fill-rule="nonzero"/></g><path fill="#2aa198" d="M 284.332031 60.125 C 285.003906 59.992188 285.6875 59.890625 286.34375 59.722656 C 285.660156 59.78125 284.988281 59.917969 284.332031 60.125 Z M 284.332031 60.125 " fill-opacity="1" fill-rule="nonzero"/><path fill="#2aa198" d="M 304.261719 52.980469 L 303.636719 53.480469 C 303.683594 53.59375 303.671875 53.695312 303.597656 53.792969 C 303.632812 53.789062 303.667969 53.796875 303.695312 53.820312 C 303.757812 53.777344 303.824219 53.746094 303.894531 53.722656 C 304.105469 53.519531 304.230469 53.273438 304.261719 52.980469 Z M 304.261719 52.980469 " fill-opacity="1" fill-rule="nonzero"/><path fill="#2aa198" d="M 300.613281 54.753906 L 299.976562 55.09375 C 300.0625 55.464844 300.671875 55.007812 301.332031 54.640625 C 301.734375 54.3125 302.167969 54.027344 302.632812 53.792969 C 302.785156 53.589844 302.949219 53.398438 303.132812 53.222656 C 302.726562 53.511719 302.328125 53.8125 301.902344 54.085938 C 301.503906 54.382812 301.085938 54.644531 300.648438 54.875 C 300.605469 54.652344 301.492188 53.976562 302.074219 53.441406 C 301.453125 53.816406 300.851562 54.21875 300.269531 54.652344 C 300.527344 54.566406 300.597656 54.683594 300.613281 54.753906 Z M 300.613281 54.753906 " fill-opacity="1" fill-rule="nonzero"/><path fill="#2aa198" d="M 299.296875 55.273438 C 299.171875 55.378906 299.074219 55.472656 298.980469 55.566406 C 299.394531 55.277344 299.839844 54.972656 300.269531 54.652344 C 299.914062 54.8125 299.589844 55.019531 299.296875 55.273438 Z M 299.296875 55.273438 " fill-opacity="1" fill-rule="nonzero"/><path fill="#2aa198" d="M 303.003906 53.796875 L 303.242188 53.476562 C 303.027344 53.566406 302.824219 53.671875 302.628906 53.796875 L 302.3125 54.15625 C 302.53125 54.226562 302.796875 54.035156 303.003906 53.796875 Z M 303.003906 53.796875 " fill-opacity="1" fill-rule="nonzero"/><path fill="#2aa198" d="M 234.527344 123.558594 C 235.035156 123.679688 235.554688 123.800781 235.917969 123.851562 C 235.464844 123.703125 235 123.605469 234.527344 123.558594 Z M 234.527344 123.558594 " fill-opacity="1" fill-rule="nonzero"/><path fill="#2aa198" d="M 182.8125 128.242188 L 183.652344 127.679688 C 183.917969 127.46875 184.199219 127.285156 184.5 127.121094 C 183.664062 127.550781 182.425781 128.199219 182.8125 128.242188 Z M 182.8125 128.242188 " fill-opacity="1" fill-rule="nonzero"/><path fill="#2aa198" d="M 75.097656 127.246094 L 75.171875 127.261719 C 75.429688 127.292969 75.320312 127.28125 75.097656 127.246094 Z M 75.097656 127.246094 " fill-opacity="1" fill-rule="nonzero"/><path fill="#2aa198" d="M 301.417969 150.90625 C 301.421875 150.898438 301.371094 150.890625 301.363281 150.878906 L 300.902344 150.878906 Z M 301.417969 150.90625 " fill-opacity="1" fill-rule="nonzero"/><path fill="#2aa198" d="M 46.570312 133.277344 L 46.542969 133.277344 L 46.496094 133.292969 Z M 46.570312 133.277344 " fill-opacity="1" fill-rule="nonzero"/><path fill="#2aa198" d="M 111.410156 150.648438 C 111.007812 150.5 110.601562 150.378906 110.183594 150.292969 Z M 111.410156 150.648438 " fill-opacity="1" fill-rule="nonzero"/><g clip-path="url(#849e0ab9dc)"><path fill="#2aa198" d="M 27.046875 139.578125 C 27.003906 139.613281 26.96875 139.652344 26.933594 139.695312 C 26.800781 139.722656 26.6875 139.695312 26.644531 139.582031 C 26.285156 139.714844 26.191406 139.476562 26.382812 138.839844 C 26.433594 138.96875 26.808594 138.945312 27.078125 138.464844 L 27.003906 138.214844 C 26.972656 138.089844 26.628906 138.328125 26.59375 138.203125 C 26.25 138.449219 26.179688 138.203125 26.140625 138.074219 L 26.007812 137.5625 C 25.894531 137.148438 25.945312 136.757812 26.152344 136.382812 C 26.449219 135.851562 26.433594 135.609375 26.773438 135.09375 C 27.117188 134.578125 27.488281 134.082031 27.882812 133.609375 C 28.769531 132.585938 29.757812 131.671875 30.855469 130.878906 C 32.660156 129.632812 34.566406 128.558594 36.570312 127.65625 C 36.605469 127.492188 34.199219 128.464844 36.164062 127.566406 C 36.082031 127.824219 37.625 127.0625 37.582031 127.191406 C 39.226562 126.511719 40.921875 125.980469 42.660156 125.597656 C 42.105469 125.8125 43.589844 125.519531 44.574219 125.398438 C 44.449219 125.632812 47.027344 125.050781 43.828125 125.941406 C 47.097656 124.898438 49.835938 125.117188 52.253906 124.476562 L 51.273438 124.476562 C 52.421875 124.476562 53.566406 124.476562 54.703125 124.539062 C 55.984375 124.523438 57.25 124.648438 58.5 124.921875 C 57.449219 124.910156 56.480469 124.859375 55.429688 124.890625 C 57.277344 125.121094 59.070312 124.835938 61.082031 125.007812 C 60.902344 125.195312 58.589844 124.804688 59.375 125.113281 C 60.8125 125.285156 61.949219 125.222656 63.472656 125.367188 L 63.378906 125.460938 C 67.074219 126.25 64.8125 125.164062 67.453125 125.929688 L 67.652344 125.75 C 68.597656 125.972656 70.839844 126.625 68.761719 126.347656 C 69.789062 126.558594 70.824219 126.71875 71.867188 126.820312 C 71.039062 126.480469 70.46875 126.445312 70.203125 126.148438 C 71.84375 126.46875 73.476562 126.824219 75.09375 127.25 C 74.773438 127.203125 74.453125 127.136719 74.136719 127.050781 C 76.738281 128.03125 79.609375 128.855469 82.449219 129.890625 C 85.382812 130.867188 88.214844 132.082031 90.941406 133.539062 C 90.214844 133.066406 91.589844 133.613281 92.121094 133.75 C 93.902344 134.515625 96.914062 135.894531 98.558594 136.714844 L 98.027344 136.574219 C 102.597656 138.367188 105.671875 139.609375 108.648438 140.84375 C 108.648438 140.84375 108.542969 140.910156 108.019531 140.789062 C 109.984375 141.320312 112.328125 142.929688 113.171875 142.78125 L 112.34375 142.453125 C 116.65625 144.039062 121.078125 145.195312 125.613281 145.921875 C 126.695312 146.417969 122.914062 145.460938 123.988281 145.953125 C 127.164062 146.6875 130.382812 147.078125 133.644531 147.128906 C 133.269531 147.1875 133.410156 147.21875 133.332031 147.21875 C 136.328125 147.378906 132.929688 146.976562 135.488281 147.019531 C 134.921875 147.199219 135.34375 147.234375 136.199219 147.269531 L 137.183594 147.046875 C 137.609375 147.046875 137.542969 147.152344 137.050781 147.257812 C 138.035156 147.082031 141.875 146.898438 142.882812 146.375 C 142.828125 146.492188 142.292969 146.777344 142.671875 146.839844 C 143.375 146.75 144.070312 146.621094 144.757812 146.449219 C 145.320312 146.285156 145.78125 146.113281 146.230469 145.976562 C 147.234375 145.859375 148.222656 145.652344 149.191406 145.351562 C 151.765625 144.625 149.699219 145.027344 151.449219 144.324219 C 150.757812 144.535156 150.058594 144.71875 149.355469 144.871094 C 150.648438 144.523438 151.914062 144.019531 153.191406 143.601562 L 151.871094 144.207031 C 152.683594 143.980469 153.480469 143.695312 154.253906 143.355469 L 156.945312 142.214844 L 156.152344 142.394531 L 158.265625 141.378906 C 158.191406 141.78125 160.746094 140.253906 159.828125 141.101562 C 163.371094 139.4375 166.804688 137.578125 170.132812 135.515625 C 169.730469 135.722656 169.714844 135.851562 169.714844 135.851562 C 171.296875 135.046875 172.800781 134.109375 174.21875 133.042969 C 173.800781 133.382812 173.398438 133.59375 173.382812 133.722656 C 175.828125 132.324219 174.625 132.828125 177.492188 131.066406 C 176.652344 131.753906 177.058594 131.539062 177.871094 131.109375 C 177.476562 131.195312 178.308594 130.632812 178.714844 130.414062 C 176.589844 132.277344 181.964844 128.808594 180.667969 130.105469 C 180.679688 129.976562 184.851562 127.289062 183.652344 127.679688 C 187.347656 125.398438 191.457031 123.285156 196.265625 120.890625 C 195.621094 121.222656 194.53125 121.859375 195.636719 121.378906 C 196.847656 120.816406 197.914062 120.324219 198.917969 119.871094 C 199.910156 119.398438 200.84375 118.972656 201.789062 118.558594 C 202.726562 118.125 203.683594 117.707031 204.746094 117.292969 C 205.796875 116.851562 206.964844 116.433594 208.320312 116 C 208.46875 116.199219 206.976562 116.628906 205.492188 117.167969 C 204.414062 117.460938 203.390625 117.894531 202.429688 118.46875 C 203.695312 117.9375 205.054688 117.496094 206.410156 116.988281 C 207.804688 116.5625 209.195312 116.050781 210.675781 115.683594 C 213.6875 114.832031 216.746094 114.207031 219.851562 113.8125 C 222.464844 114.175781 226.253906 113.246094 230.507812 114.15625 C 230.199219 113.890625 232.308594 114.070312 234.382812 114.421875 C 233.792969 114.390625 235.75 114.847656 235.15625 114.824219 C 235.570312 114.875 236.230469 114.984375 236.984375 115.128906 C 237.726562 115.289062 238.554688 115.507812 239.324219 115.714844 C 240.84375 116.167969 242.09375 116.652344 241.929688 116.761719 C 242.78125 116.84375 243.597656 117.070312 244.375 117.433594 C 245.347656 117.867188 246.34375 118.234375 247.363281 118.546875 C 249.472656 119.609375 251.96875 120.542969 254.488281 121.933594 C 253.898438 121.34375 257.226562 123.230469 258.148438 123.671875 L 257.617188 123.484375 C 258.195312 124.074219 260.414062 124.785156 261.890625 125.832031 C 262.167969 126.132812 261.652344 125.9375 262.441406 126.433594 C 264.210938 127.230469 265.898438 128.175781 267.5 129.269531 L 266.488281 128.878906 C 273.15625 132.644531 279.640625 136.722656 286.570312 139.101562 L 285.0625 138.78125 C 288.957031 140.578125 287.976562 139.476562 291.289062 140.539062 C 293.597656 141.273438 295.949219 141.824219 298.339844 142.203125 C 300.660156 142.582031 302.996094 142.699219 305.34375 142.546875 C 307.707031 142.453125 310.023438 142.0625 312.289062 141.382812 L 313.867188 140.867188 C 314.382812 140.671875 314.886719 140.449219 315.398438 140.246094 C 315.921875 140.042969 316.425781 139.804688 316.914062 139.523438 C 317.160156 139.390625 317.429688 139.265625 317.710938 139.105469 C 317.988281 138.949219 318.273438 138.761719 318.613281 138.566406 C 319.292969 138.058594 317.933594 138.828125 317.9375 138.707031 C 318.933594 138.117188 318.996094 138.40625 319.910156 137.609375 L 319.589844 137.707031 C 319.910156 137.550781 320.222656 137.363281 320.546875 137.175781 C 320.871094 136.988281 321.125 136.75 321.433594 136.570312 L 323.09375 135.226562 C 323.65625 134.796875 324.0625 134.269531 324.652344 133.878906 C 324.984375 133.402344 325.394531 133.007812 325.886719 132.703125 C 327.464844 130.949219 328.542969 130.683594 328.464844 132.574219 C 328.851562 132.453125 329.101562 132.621094 329.261719 133.035156 C 329.347656 133.292969 329.402344 133.554688 329.425781 133.824219 C 329.433594 134.171875 329.414062 134.519531 329.363281 134.863281 C 329.308594 135.671875 329.179688 136.472656 328.972656 137.257812 C 328.714844 137.890625 328.5625 138.457031 328.335938 138.964844 C 328.105469 139.472656 327.863281 139.984375 327.519531 140.605469 C 325.980469 142.535156 327.882812 139.589844 326.324219 141.589844 C 326.125 141.875 325.875 142.203125 325.589844 142.5625 C 325.304688 142.917969 324.945312 143.242188 324.589844 143.609375 C 323.875 144.332031 323.117188 145.007812 322.320312 145.640625 C 320.847656 146.828125 319.230469 147.753906 317.464844 148.421875 C 316.460938 148.847656 315.40625 149.136719 314.441406 149.445312 C 313.460938 149.683594 312.550781 149.871094 311.808594 150.011719 C 308.359375 150.648438 304.878906 150.9375 301.371094 150.882812 C 300.582031 150.675781 299.777344 150.570312 298.957031 150.5625 C 298.351562 150.605469 299.371094 150.714844 299.792969 150.867188 C 297.585938 150.753906 295.402344 150.476562 293.234375 150.046875 C 291.65625 149.714844 290.277344 149.398438 288.050781 148.769531 C 289.105469 148.996094 288.777344 148.863281 288.15625 148.636719 C 287.585938 148.441406 287.042969 148.191406 286.527344 147.878906 C 285.390625 147.675781 287.21875 148.394531 284.710938 147.636719 C 281.503906 146.429688 278.40625 144.992188 275.410156 143.332031 C 273.90625 142.773438 272.683594 142.042969 272.433594 142.164062 C 269.03125 140.3125 266.789062 139.15625 262.761719 136.710938 L 262.878906 136.65625 C 261.339844 136.054688 259.398438 134.425781 258.386719 134.050781 C 258.503906 133.996094 258.890625 134.242188 259.007812 134.1875 L 256.847656 133.085938 C 257.734375 133.511719 258.355469 133.644531 256.8125 132.683594 C 255.304688 132.128906 257.46875 133.214844 256.460938 132.847656 L 255.929688 132.257812 C 254.652344 131.613281 253.917969 131.546875 255.457031 132.480469 C 251.511719 130.199219 247.429688 128.191406 243.210938 126.464844 C 243.414062 126.472656 243.617188 126.488281 243.820312 126.503906 C 241.730469 125.65625 238.816406 124.648438 237.6875 124.167969 C 237.589844 124.246094 237.085938 124.183594 237.492188 124.324219 C 235.875 124.042969 236.382812 124.019531 235.933594 123.84375 C 236.078125 123.882812 236.222656 123.886719 236.367188 123.855469 C 234.621094 123.460938 232.855469 123.164062 231.074219 122.96875 C 230.503906 122.726562 229.90625 122.570312 229.289062 122.5 C 228.109375 122.292969 226.921875 122.1875 225.722656 122.1875 C 226.113281 122.28125 226.511719 122.355469 226.910156 122.40625 C 226.464844 122.40625 226.019531 122.378906 225.578125 122.398438 L 224.453125 122.148438 C 223.8125 122.25 223.1875 122.300781 222.558594 122.4375 L 222.6875 122.214844 C 221.351562 122.390625 220.742188 122.675781 219.480469 122.792969 C 217.160156 122.984375 216.226562 123.144531 215.449219 123.21875 C 214.425781 123.308594 213.40625 123.453125 212.394531 123.65625 C 211.476562 124.136719 210.507812 124.484375 209.492188 124.695312 C 208.398438 124.980469 207.347656 125.375 206.339844 125.886719 C 201.8125 127.144531 195.960938 130.296875 190.292969 133.34375 L 190.71875 133.007812 C 188.300781 134.125 188.214844 134.894531 185.78125 136.179688 L 186.203125 135.835938 C 182.980469 137.410156 177.195312 141.132812 174.191406 143 C 174.625 142.65625 174.242188 142.609375 173.390625 143.164062 C 172.507812 143.839844 174.179688 143.132812 172.488281 143.96875 C 172.914062 143.757812 172.507812 143.839844 172.085938 144.046875 C 171.5 144.453125 170.925781 144.871094 170.328125 145.265625 C 165.050781 147.847656 159.648438 150.117188 154.113281 152.082031 C 153.175781 152.355469 154.15625 151.957031 154.199219 151.832031 C 149.984375 153.324219 145.65625 154.371094 141.226562 154.976562 L 140.871094 154.789062 C 138.828125 155.046875 140.082031 155.285156 137.171875 155.238281 C 136.675781 155.238281 139.242188 155.109375 139.8125 154.972656 C 135.917969 154.914062 137.59375 155.433594 133.523438 155.328125 L 134.773438 155.070312 C 133.300781 154.972656 131.839844 155.035156 130.382812 155.25 C 129.054688 155.335938 127.769531 155.144531 126.527344 154.667969 C 124.945312 154.167969 123.328125 153.8125 121.683594 153.597656 C 120.527344 153.53125 121.953125 153.886719 120.792969 153.820312 C 118.867188 153.324219 117.742188 153.054688 116.613281 152.789062 C 115.511719 152.480469 114.382812 152.199219 112.527344 151.5625 C 110.734375 150.390625 114.417969 152.191406 112.515625 151.09375 C 113.398438 151.457031 114.324219 151.746094 115.234375 152.078125 C 112.722656 150.964844 117.265625 152.566406 117.023438 152.246094 C 115.636719 151.742188 113.746094 151.351562 111.875 150.785156 C 112.152344 150.855469 112.246094 150.835938 111.847656 150.597656 L 110.847656 150.320312 C 110.953125 150.25 111.070312 150.175781 111.957031 150.527344 C 111.066406 150.109375 110.144531 149.777344 109.191406 149.535156 C 109.085938 149.605469 108.859375 149.75 109.1875 150 C 109.292969 149.929688 108.859375 149.742188 108.859375 149.742188 C 106.214844 149.105469 102.453125 147.269531 100.441406 146.636719 C 100.972656 146.773438 100.554688 146.570312 100.554688 146.570312 C 99.28125 145.96875 97.578125 145.605469 95.792969 144.84375 C 94.65625 144.164062 96.246094 144.589844 93.535156 143.480469 C 92.898438 143.402344 94.320312 144.355469 91.726562 143.179688 C 91.726562 143.179688 94.023438 144.085938 92.898438 143.402344 C 90.605469 142.5 92.074219 142.992188 90.128906 141.902344 C 88.96875 141.683594 88.074219 140.886719 87.625 141.148438 C 87.03125 140.617188 87.332031 140.886719 85.804688 140.023438 C 86.507812 140.46875 83.015625 139.054688 83.203125 139.382812 C 82.605469 138.863281 85.691406 140.074219 83.867188 138.980469 C 82.417969 138.519531 80.148438 137.746094 79.828125 137.960938 C 78.960938 137.449219 78.050781 137.019531 77.105469 136.671875 C 77.398438 136.785156 77.699219 136.871094 78.007812 136.929688 C 76.660156 136.523438 74.960938 135.972656 73.386719 135.527344 C 72.132812 135.140625 70.851562 134.886719 69.542969 134.773438 C 69.78125 134.570312 68.269531 134.179688 66.957031 133.933594 C 65.644531 133.664062 64.53125 133.507812 65.609375 133.457031 C 64.503906 133.285156 63.394531 133.214844 62.277344 133.246094 C 62.402344 133.101562 61.65625 132.980469 60.722656 132.859375 C 59.792969 132.761719 58.679688 132.660156 58.074219 132.558594 C 57.488281 132.703125 55.339844 132.511719 53.917969 132.691406 C 54.417969 132.605469 54.84375 132.625 54.488281 132.5 C 53.628906 132.621094 52.773438 132.601562 51.921875 132.4375 C 50.15625 132.570312 52.210938 132.644531 51.234375 132.878906 C 49.546875 132.914062 50.941406 132.664062 50.582031 132.570312 C 49.785156 132.714844 49.011719 132.933594 48.234375 133.117188 C 47.839844 133.175781 47.441406 133.175781 47.042969 133.121094 L 46.550781 133.277344 L 45.804688 133.277344 C 45.0625 133.472656 44.351562 133.726562 43.640625 133.957031 C 42.761719 134.109375 41.878906 134.210938 40.988281 134.269531 C 40.449219 134.441406 39.945312 134.671875 39.429688 134.875 L 39.886719 134.382812 C 40.265625 134.246094 40.660156 134.136719 40.660156 134.136719 L 40.785156 133.65625 L 40.386719 133.761719 C 37.566406 134.78125 34.820312 135.980469 32.152344 137.351562 L 32.78125 137.128906 C 32.53125 137.335938 32.203125 137.578125 31.855469 137.851562 C 32.214844 137.503906 32.34375 137.28125 32.117188 137.371094 C 30.945312 138.035156 29.71875 138.585938 28.445312 139.019531 C 28.203125 139.183594 28 139.382812 27.828125 139.617188 C 27.628906 139.832031 27.429688 140.058594 27.238281 140.058594 L 27.195312 139.9375 L 27.800781 139.457031 C 27.617188 139.535156 27.429688 139.589844 27.234375 139.625 C 27.285156 139.558594 27.34375 139.5 27.410156 139.453125 C 27.324219 139.511719 27.234375 139.558594 27.136719 139.597656 C 27.109375 139.582031 27.0625 139.613281 27.046875 139.578125 Z M 79.515625 129.050781 L 79.464844 129.035156 L 79.503906 129.058594 Z M 79.515625 129.050781 " fill-opacity="1" fill-rule="nonzero"/></g><path fill="#2aa198" d="M 46.496094 133.292969 C 45.824219 133.425781 45.136719 133.527344 44.480469 133.695312 C 45.167969 133.636719 45.839844 133.5 46.496094 133.292969 Z M 46.496094 133.292969 " fill-opacity="1" fill-rule="nonzero"/><path fill="#2aa198" d="M 26.5625 140.4375 L 27.1875 139.9375 C 27.140625 139.824219 27.15625 139.722656 27.230469 139.625 C 27.191406 139.628906 27.160156 139.621094 27.128906 139.597656 C 27.066406 139.636719 27.003906 139.671875 26.933594 139.695312 C 26.71875 139.898438 26.597656 140.144531 26.5625 140.4375 Z M 26.5625 140.4375 " fill-opacity="1" fill-rule="nonzero"/><path fill="#2aa198" d="M 30.210938 138.660156 L 30.851562 138.324219 C 30.765625 137.953125 30.15625 138.410156 29.492188 138.773438 C 29.089844 139.105469 28.65625 139.390625 28.195312 139.625 C 28.042969 139.828125 27.875 140.019531 27.691406 140.195312 C 28.097656 139.90625 28.496094 139.605469 28.921875 139.328125 C 29.320312 139.035156 29.742188 138.773438 30.179688 138.539062 C 30.21875 138.765625 29.335938 139.441406 28.753906 139.976562 C 29.375 139.601562 29.976562 139.199219 30.554688 138.765625 C 30.300781 138.851562 30.230469 138.730469 30.210938 138.660156 Z M 30.210938 138.660156 " fill-opacity="1" fill-rule="nonzero"/><path fill="#2aa198" d="M 31.527344 138.144531 C 31.652344 138.039062 31.753906 137.945312 31.847656 137.851562 C 31.433594 138.140625 30.984375 138.445312 30.558594 138.765625 C 30.910156 138.605469 31.234375 138.398438 31.527344 138.144531 Z M 31.527344 138.144531 " fill-opacity="1" fill-rule="nonzero"/><path fill="#2aa198" d="M 27.824219 139.621094 L 27.582031 139.9375 C 27.796875 139.851562 28 139.746094 28.195312 139.621094 L 28.515625 139.257812 C 28.292969 139.191406 28.03125 139.382812 27.824219 139.621094 Z M 27.824219 139.621094 " fill-opacity="1" fill-rule="nonzero"/><path fill="#2aa198" d="M 120.800781 33.0625 C 120.292969 32.941406 119.773438 32.820312 119.410156 32.769531 C 119.863281 32.917969 120.328125 33.015625 120.800781 33.0625 Z M 120.800781 33.0625 " fill-opacity="1" fill-rule="nonzero"/><path fill="#2aa198" d="M 172.515625 28.378906 L 171.675781 28.941406 C 171.410156 29.148438 171.125 29.335938 170.828125 29.5 C 171.660156 29.070312 172.898438 28.421875 172.515625 28.378906 Z M 172.515625 28.378906 " fill-opacity="1" fill-rule="nonzero"/><path fill="#2aa198" d="M 280.230469 29.375 L 280.15625 29.359375 C 279.898438 29.328125 280.007812 29.339844 280.230469 29.375 Z M 280.230469 29.375 " fill-opacity="1" fill-rule="nonzero"/><path fill="#2aa198" d="M 53.910156 5.714844 C 53.90625 5.722656 53.957031 5.730469 53.964844 5.742188 L 54.425781 5.742188 Z M 53.910156 5.714844 " fill-opacity="1" fill-rule="nonzero"/><path fill="#2aa198" d="M 308.757812 23.34375 L 308.785156 23.34375 L 308.832031 23.328125 Z M 308.757812 23.34375 " fill-opacity="1" fill-rule="nonzero"/><path fill="#2aa198" d="M 243.917969 5.972656 C 244.316406 6.121094 244.726562 6.242188 245.144531 6.328125 Z M 243.917969 5.972656 " fill-opacity="1" fill-rule="nonzero"/><g clip-path="url(#9a877a79de)"><path fill="#2aa198" d="M 328.28125 17.042969 C 328.320312 17.007812 328.359375 16.96875 328.394531 16.925781 C 328.527344 16.898438 328.640625 16.925781 328.683594 17.039062 C 329.042969 16.90625 329.136719 17.144531 328.945312 17.78125 C 328.894531 17.652344 328.519531 17.675781 328.25 18.15625 L 328.324219 18.40625 C 328.355469 18.53125 328.699219 18.292969 328.734375 18.417969 C 329.078125 18.171875 329.148438 18.417969 329.1875 18.546875 L 329.320312 19.058594 C 329.433594 19.472656 329.382812 19.863281 329.175781 20.238281 C 328.878906 20.769531 328.890625 21.011719 328.554688 21.527344 C 328.210938 22.042969 327.839844 22.539062 327.441406 23.011719 C 326.558594 24.035156 325.570312 24.945312 324.472656 25.742188 C 322.667969 26.988281 320.761719 28.0625 318.757812 28.964844 C 318.722656 29.125 321.128906 28.15625 319.164062 29.054688 C 319.246094 28.796875 317.703125 29.558594 317.746094 29.425781 C 316.101562 30.109375 314.40625 30.640625 312.667969 31.023438 C 313.222656 30.808594 311.738281 31.101562 310.753906 31.222656 C 310.878906 30.984375 308.300781 31.570312 311.5 30.679688 C 308.230469 31.722656 305.488281 31.503906 303.074219 32.144531 L 304.054688 32.144531 C 302.90625 32.144531 301.761719 32.144531 300.625 32.082031 C 299.34375 32.097656 298.078125 31.972656 296.828125 31.699219 C 297.878906 31.710938 298.847656 31.761719 299.898438 31.730469 C 298.050781 31.5 296.257812 31.785156 294.246094 31.613281 C 294.425781 31.425781 296.738281 31.8125 295.953125 31.507812 C 294.515625 31.335938 293.378906 31.398438 291.855469 31.253906 L 291.949219 31.160156 C 288.253906 30.371094 290.515625 31.457031 287.875 30.691406 L 287.675781 30.871094 C 286.730469 30.648438 284.484375 29.996094 286.566406 30.273438 C 285.539062 30.0625 284.503906 29.902344 283.460938 29.800781 C 284.289062 30.140625 284.859375 30.175781 285.125 30.46875 C 283.484375 30.152344 281.851562 29.796875 280.234375 29.371094 C 280.554688 29.417969 280.875 29.484375 281.191406 29.570312 C 278.589844 28.589844 275.714844 27.765625 272.878906 26.730469 C 269.945312 25.753906 267.113281 24.539062 264.386719 23.082031 C 265.113281 23.554688 263.738281 23.007812 263.207031 22.871094 C 261.425781 22.105469 258.414062 20.726562 256.769531 19.90625 L 257.300781 20.046875 C 252.730469 18.253906 249.65625 17.011719 246.679688 15.777344 C 246.679688 15.777344 246.785156 15.710938 247.308594 15.832031 C 245.34375 15.300781 243 13.6875 242.15625 13.839844 L 242.984375 14.167969 C 238.671875 12.582031 234.25 11.425781 229.714844 10.699219 C 228.632812 10.203125 232.414062 11.160156 231.339844 10.667969 C 228.164062 9.933594 224.945312 9.542969 221.683594 9.492188 C 222.058594 9.433594 221.914062 9.402344 221.996094 9.402344 C 219 9.242188 222.398438 9.644531 219.839844 9.601562 C 220.40625 9.421875 219.984375 9.386719 219.128906 9.351562 L 218.144531 9.574219 C 217.71875 9.574219 217.785156 9.46875 218.277344 9.363281 C 217.292969 9.539062 213.453125 9.722656 212.445312 10.246094 C 212.496094 10.128906 213.035156 9.84375 212.65625 9.78125 C 211.953125 9.871094 211.257812 10 210.570312 10.171875 C 210.007812 10.335938 209.546875 10.507812 209.097656 10.644531 C 208.09375 10.761719 207.105469 10.96875 206.136719 11.269531 C 203.558594 11.996094 205.628906 11.59375 203.878906 12.296875 C 204.570312 12.085938 205.269531 11.902344 205.972656 11.75 C 204.679688 12.097656 203.414062 12.601562 202.136719 13.019531 L 203.457031 12.414062 C 202.644531 12.640625 201.847656 12.925781 201.074219 13.265625 L 198.382812 14.40625 L 199.175781 14.226562 L 197.0625 15.242188 C 197.136719 14.839844 194.582031 16.367188 195.5 15.519531 C 191.957031 17.183594 188.519531 19.042969 185.195312 21.105469 C 185.597656 20.898438 185.613281 20.769531 185.613281 20.769531 C 184.03125 21.574219 182.527344 22.511719 181.109375 23.578125 C 181.523438 23.238281 181.929688 23.027344 181.945312 22.898438 C 179.5 24.296875 180.703125 23.792969 177.835938 25.554688 C 178.675781 24.867188 178.269531 25.082031 177.457031 25.511719 C 177.851562 25.425781 177.019531 25.988281 176.613281 26.207031 C 178.738281 24.34375 173.363281 27.8125 174.660156 26.515625 C 174.648438 26.644531 170.472656 29.332031 171.675781 28.941406 C 167.980469 31.222656 163.871094 33.335938 159.0625 35.730469 C 159.707031 35.398438 160.796875 34.761719 159.691406 35.242188 C 158.480469 35.804688 157.414062 36.296875 156.410156 36.75 C 155.417969 37.222656 154.484375 37.648438 153.539062 38.0625 C 152.601562 38.496094 151.644531 38.914062 150.582031 39.328125 C 149.53125 39.769531 148.363281 40.1875 147.007812 40.621094 C 146.859375 40.421875 148.351562 39.992188 149.835938 39.453125 C 150.914062 39.160156 151.9375 38.726562 152.898438 38.152344 C 151.632812 38.683594 150.273438 39.125 148.917969 39.632812 C 147.523438 40.054688 146.132812 40.570312 144.652344 40.9375 C 141.640625 41.789062 138.582031 42.410156 135.476562 42.808594 C 132.863281 42.441406 129.074219 43.375 124.816406 42.464844 C 125.128906 42.730469 123.019531 42.550781 120.945312 42.199219 C 121.535156 42.230469 119.578125 41.773438 120.171875 41.792969 C 119.753906 41.746094 119.09375 41.636719 118.34375 41.492188 C 117.601562 41.332031 116.773438 41.113281 116.003906 40.90625 C 114.484375 40.449219 113.234375 39.96875 113.398438 39.859375 C 112.546875 39.777344 111.730469 39.550781 110.953125 39.1875 C 109.980469 38.753906 108.984375 38.382812 107.964844 38.074219 C 105.855469 37.011719 103.359375 36.078125 100.839844 34.6875 C 101.429688 35.277344 98.101562 33.390625 97.179688 32.949219 L 97.710938 33.136719 C 97.132812 32.546875 94.910156 31.835938 93.4375 30.789062 C 93.160156 30.488281 93.675781 30.683594 92.882812 30.1875 C 91.117188 29.390625 89.429688 28.445312 87.828125 27.351562 L 88.839844 27.742188 C 82.171875 23.976562 75.6875 19.898438 68.757812 17.519531 L 70.265625 17.839844 C 66.371094 16.042969 67.351562 17.144531 64.035156 16.082031 C 61.730469 15.347656 59.378906 14.796875 56.988281 14.417969 C 54.667969 14.039062 52.332031 13.921875 49.984375 14.074219 C 47.621094 14.167969 45.304688 14.558594 43.039062 15.234375 L 41.457031 15.753906 C 40.941406 15.949219 40.441406 16.171875 39.929688 16.375 C 39.40625 16.578125 38.902344 16.816406 38.414062 17.097656 C 38.167969 17.230469 37.894531 17.355469 37.617188 17.515625 C 37.339844 17.671875 37.054688 17.859375 36.714844 18.054688 C 36.035156 18.5625 37.394531 17.789062 37.390625 17.914062 C 36.394531 18.503906 36.332031 18.214844 35.417969 19.011719 L 35.738281 18.914062 C 35.417969 19.070312 35.105469 19.257812 34.78125 19.445312 C 34.457031 19.632812 34.203125 19.871094 33.894531 20.050781 L 32.234375 21.394531 C 31.667969 21.824219 31.261719 22.351562 30.675781 22.742188 C 30.34375 23.21875 29.933594 23.609375 29.441406 23.917969 C 27.863281 25.671875 26.785156 25.9375 26.863281 24.046875 C 26.476562 24.167969 26.222656 24 26.066406 23.585938 C 25.980469 23.328125 25.925781 23.066406 25.902344 22.796875 C 25.894531 22.449219 25.914062 22.101562 25.964844 21.757812 C 26.015625 20.945312 26.148438 20.148438 26.355469 19.363281 C 26.613281 18.730469 26.765625 18.160156 26.992188 17.65625 C 27.222656 17.148438 27.464844 16.636719 27.808594 16.015625 C 29.347656 14.085938 27.445312 17.03125 29.003906 15.03125 C 29.199219 14.746094 29.449219 14.417969 29.738281 14.058594 C 30.023438 13.699219 30.382812 13.378906 30.738281 13.011719 C 31.453125 12.289062 32.210938 11.613281 33.007812 10.980469 C 34.480469 9.792969 36.097656 8.867188 37.863281 8.199219 C 38.867188 7.773438 39.921875 7.484375 40.886719 7.175781 C 41.867188 6.9375 42.777344 6.75 43.519531 6.609375 C 46.96875 5.972656 50.449219 5.683594 53.957031 5.738281 C 54.746094 5.945312 55.550781 6.050781 56.371094 6.058594 C 56.976562 6.015625 55.957031 5.90625 55.535156 5.753906 C 57.742188 5.867188 59.925781 6.144531 62.09375 6.574219 C 63.671875 6.90625 65.050781 7.222656 67.277344 7.851562 C 66.222656 7.625 66.550781 7.757812 67.171875 7.984375 C 67.742188 8.179688 68.285156 8.429688 68.796875 8.742188 C 69.9375 8.945312 68.109375 8.226562 70.617188 8.984375 C 73.824219 10.191406 76.921875 11.628906 79.917969 13.289062 C 81.421875 13.847656 82.644531 14.578125 82.894531 14.457031 C 86.296875 16.308594 88.539062 17.464844 92.566406 19.910156 L 92.449219 19.960938 C 93.988281 20.566406 95.929688 22.195312 96.941406 22.570312 C 96.824219 22.625 96.4375 22.378906 96.320312 22.433594 L 98.480469 23.535156 C 97.59375 23.109375 96.972656 22.976562 98.511719 23.9375 C 100.023438 24.492188 97.859375 23.40625 98.867188 23.773438 L 99.398438 24.363281 C 100.675781 25.007812 101.410156 25.074219 99.867188 24.140625 C 103.816406 26.421875 107.898438 28.429688 112.117188 30.15625 C 111.914062 30.148438 111.710938 30.132812 111.507812 30.117188 C 113.597656 30.964844 116.511719 31.972656 117.640625 32.453125 C 117.738281 32.375 118.242188 32.4375 117.835938 32.292969 C 119.453125 32.578125 118.945312 32.601562 119.394531 32.777344 C 119.25 32.738281 119.105469 32.734375 118.960938 32.765625 C 120.707031 33.160156 122.472656 33.457031 124.253906 33.652344 C 124.824219 33.894531 125.421875 34.050781 126.039062 34.121094 C 127.21875 34.328125 128.40625 34.433594 129.605469 34.433594 C 129.214844 34.339844 128.816406 34.265625 128.417969 34.210938 C 128.863281 34.210938 129.304688 34.242188 129.75 34.222656 L 130.875 34.472656 C 131.511719 34.371094 132.140625 34.320312 132.769531 34.183594 L 132.640625 34.40625 C 133.976562 34.230469 134.585938 33.945312 135.847656 33.828125 C 138.167969 33.636719 139.101562 33.476562 139.878906 33.402344 C 140.902344 33.3125 141.921875 33.167969 142.933594 32.964844 C 143.851562 32.484375 144.820312 32.136719 145.835938 31.925781 C 146.929688 31.640625 147.980469 31.246094 148.988281 30.734375 C 153.515625 29.476562 159.367188 26.324219 165.035156 23.277344 L 164.609375 23.613281 C 167.027344 22.496094 167.113281 21.726562 169.546875 20.441406 L 169.125 20.785156 C 172.347656 19.210938 178.132812 15.488281 181.136719 13.621094 C 180.703125 13.964844 181.085938 14.011719 181.9375 13.457031 C 182.820312 12.78125 181.148438 13.488281 182.839844 12.652344 C 182.414062 12.863281 182.820312 12.78125 183.242188 12.570312 C 183.828125 12.167969 184.402344 11.75 185 11.355469 C 190.277344 8.773438 195.679688 6.5 201.214844 4.539062 C 202.152344 4.265625 201.171875 4.664062 201.125 4.789062 C 205.34375 3.296875 209.671875 2.25 214.101562 1.644531 L 214.453125 1.832031 C 216.5 1.574219 215.246094 1.332031 218.15625 1.382812 C 218.652344 1.382812 216.082031 1.511719 215.515625 1.648438 C 219.40625 1.707031 217.734375 1.1875 221.804688 1.292969 L 220.554688 1.550781 C 222.027344 1.648438 223.488281 1.585938 224.945312 1.367188 C 226.273438 1.28125 227.558594 1.476562 228.800781 1.953125 C 230.382812 2.449219 232 2.808594 233.644531 3.023438 C 234.800781 3.089844 233.375 2.734375 234.535156 2.800781 C 236.460938 3.296875 237.585938 3.566406 238.714844 3.832031 C 239.816406 4.140625 240.945312 4.421875 242.800781 5.058594 C 244.59375 6.230469 240.910156 4.429688 242.808594 5.527344 C 241.929688 5.164062 241.003906 4.875 240.09375 4.542969 C 242.605469 5.65625 238.0625 4.054688 238.300781 4.375 C 239.691406 4.878906 241.582031 5.269531 243.453125 5.835938 C 243.175781 5.765625 243.082031 5.78125 243.480469 6.023438 L 244.480469 6.300781 C 244.371094 6.371094 244.257812 6.445312 243.371094 6.09375 C 244.261719 6.511719 245.179688 6.84375 246.132812 7.085938 C 246.242188 7.015625 246.46875 6.871094 246.140625 6.621094 C 246.035156 6.691406 246.46875 6.878906 246.46875 6.878906 C 249.113281 7.515625 252.875 9.351562 254.886719 9.984375 C 254.355469 9.847656 254.769531 10.050781 254.769531 10.050781 C 256.046875 10.652344 257.746094 11.015625 259.535156 11.777344 C 260.671875 12.457031 259.082031 12.03125 261.792969 13.140625 C 262.429688 13.21875 261.007812 12.265625 263.597656 13.441406 C 263.597656 13.441406 261.304688 12.535156 262.429688 13.21875 C 264.722656 14.121094 263.253906 13.628906 265.199219 14.71875 C 266.359375 14.9375 267.253906 15.734375 267.699219 15.472656 C 268.296875 16.003906 267.996094 15.734375 269.523438 16.597656 C 268.816406 16.152344 272.3125 17.566406 272.125 17.238281 C 272.722656 17.753906 269.636719 16.546875 271.460938 17.640625 C 272.910156 18.101562 275.179688 18.875 275.5 18.660156 C 276.367188 19.171875 277.277344 19.601562 278.222656 19.949219 C 277.929688 19.835938 277.628906 19.75 277.320312 19.691406 C 278.667969 20.09375 280.367188 20.648438 281.941406 21.09375 C 283.195312 21.480469 284.476562 21.734375 285.785156 21.847656 C 285.546875 22.050781 287.058594 22.441406 288.371094 22.6875 C 289.683594 22.957031 290.792969 23.113281 289.71875 23.164062 C 290.824219 23.335938 291.933594 23.40625 293.050781 23.375 C 292.925781 23.519531 293.671875 23.640625 294.605469 23.761719 C 295.535156 23.859375 296.648438 23.960938 297.253906 24.0625 C 297.839844 23.917969 299.988281 24.109375 301.410156 23.929688 C 300.910156 24.015625 300.484375 23.996094 300.839844 24.121094 C 301.699219 24 302.554688 24.019531 303.40625 24.183594 C 305.171875 24.050781 303.113281 23.976562 304.09375 23.742188 C 305.78125 23.707031 304.386719 23.957031 304.746094 24.050781 C 305.542969 23.90625 306.316406 23.6875 307.09375 23.503906 C 307.488281 23.445312 307.886719 23.445312 308.285156 23.5 L 308.777344 23.34375 L 309.523438 23.34375 C 310.265625 23.148438 310.976562 22.894531 311.6875 22.660156 C 312.566406 22.511719 313.449219 22.410156 314.339844 22.351562 C 314.878906 22.179688 315.382812 21.949219 315.898438 21.746094 L 315.441406 22.238281 C 315.0625 22.375 314.667969 22.484375 314.667969 22.484375 L 314.542969 22.964844 L 314.941406 22.859375 C 317.761719 21.839844 320.507812 20.640625 323.175781 19.269531 L 322.546875 19.492188 C 322.796875 19.285156 323.125 19.042969 323.472656 18.769531 C 323.113281 19.117188 322.984375 19.339844 323.210938 19.25 C 324.382812 18.585938 325.609375 18.035156 326.882812 17.597656 C 327.125 17.4375 327.328125 17.238281 327.5 17.003906 C 327.699219 16.789062 327.898438 16.5625 328.089844 16.5625 L 328.132812 16.683594 L 327.527344 17.164062 C 327.707031 17.085938 327.898438 17.03125 328.09375 16.996094 C 328.042969 17.0625 327.984375 17.121094 327.917969 17.167969 C 328.003906 17.109375 328.09375 17.0625 328.191406 17.023438 C 328.21875 17.039062 328.265625 17.007812 328.28125 17.042969 Z M 275.808594 27.570312 L 275.863281 27.585938 L 275.824219 27.5625 Z M 275.808594 27.570312 " fill-opacity="1" fill-rule="nonzero"/></g><path fill="#2aa198" d="M 308.832031 23.328125 C 309.503906 23.195312 310.191406 23.09375 310.847656 22.925781 C 310.160156 22.984375 309.488281 23.121094 308.832031 23.328125 Z M 308.832031 23.328125 " fill-opacity="1" fill-rule="nonzero"/><path fill="#2aa198" d="M 328.765625 16.183594 L 328.140625 16.683594 C 328.1875 16.796875 328.171875 16.898438 328.097656 16.996094 C 328.136719 16.992188 328.167969 17 328.199219 17.023438 C 328.261719 16.984375 328.324219 16.949219 328.394531 16.925781 C 328.609375 16.722656 328.730469 16.476562 328.765625 16.183594 Z M 328.765625 16.183594 " fill-opacity="1" fill-rule="nonzero"/><path fill="#2aa198" d="M 325.113281 17.957031 L 324.476562 18.296875 C 324.5625 18.667969 325.171875 18.210938 325.835938 17.847656 C 326.238281 17.515625 326.671875 17.230469 327.132812 16.996094 C 327.285156 16.792969 327.453125 16.601562 327.632812 16.425781 C 327.230469 16.714844 326.828125 17.015625 326.40625 17.292969 C 326.007812 17.585938 325.585938 17.847656 325.148438 18.078125 C 325.109375 17.855469 325.992188 17.179688 326.574219 16.644531 C 325.953125 17.019531 325.351562 17.421875 324.773438 17.855469 C 325.027344 17.769531 325.097656 17.890625 325.113281 17.957031 Z M 325.113281 17.957031 " fill-opacity="1" fill-rule="nonzero"/><path fill="#2aa198" d="M 323.800781 18.476562 C 323.675781 18.582031 323.574219 18.675781 323.480469 18.769531 C 323.894531 18.480469 324.34375 18.175781 324.769531 17.855469 C 324.417969 18.015625 324.09375 18.222656 323.800781 18.476562 Z M 323.800781 18.476562 " fill-opacity="1" fill-rule="nonzero"/><path fill="#2aa198" d="M 327.503906 17 L 327.746094 16.683594 C 327.53125 16.769531 327.328125 16.875 327.132812 17 L 326.8125 17.363281 C 327.03125 17.429688 327.296875 17.238281 327.503906 17 Z M 327.503906 17 " fill-opacity="1" fill-rule="nonzero"/></g></g></svg>