<svg xmlns="http://www.w3.org/2000/svg" xmlns:xlink="http://www.w3.org/1999/xlink" width="500" zoomAndPan="magnify" viewBox="0 0 375 374.999991" height="500" preserveAspectRatio="xMidYMid meet" version="1.0"><defs><clipPath id="ca8787ef38"><path d="M 4 257 L 356 257 L 356 330 L 4 330 Z M 4 257 " clip-rule="nonzero"/></clipPath><clipPath id="fac28b727b"><path d="M 23.484375 18.097656 L 376.445312 45.195312 L 352.507812 357.027344 L -0.457031 329.929688 Z M 23.484375 18.097656 " clip-rule="nonzero"/></clipPath><clipPath id="d232338d78"><path d="M 23.484375 18.097656 L 376.445312 45.195312 L 352.507812 357.027344 L -0.457031 329.929688 Z M 23.484375 18.097656 " clip-rule="nonzero"/></clipPath><clipPath id="495a6de588"><path d="M 10 185 L 362 185 L 362 258 L 10 258 Z M 10 185 " clip-rule="nonzero"/></clipPath><clipPath id="e774d86293"><path d="M 23.484375 18.097656 L 376.445312 45.195312 L 352.507812 357.027344 L -0.457031 329.929688 Z M 23.484375 18.097656 " clip-rule="nonzero"/></clipPath><clipPath id="cdecfa0b3f"><path d="M 23.484375 18.097656 L 376.445312 45.195312 L 352.507812 357.027344 L -0.457031 329.929688 Z M 23.484375 18.097656 " clip-rule="nonzero"/></clipPath><clipPath id="cc316b17ee"><path d="M 17 112 L 368 112 L 368 185 L 17 185 Z M 17 112 " clip-rule="nonzero"/></clipPath><clipPath id="1c6a6d11c9"><path d="M 23.484375 18.097656 L 376.445312 45.195312 L 352.507812 357.027344 L -0.457031 329.929688 Z M 23.484375 18.097656 " clip-rule="nonzero"/></clipPath><clipPath id="0fd132935e"><path d="M 23.484375 18.097656 L 376.445312 45.195312 L 352.507812 357.027344 L -0.457031 329.929688 Z M 23.484375 18.097656 " clip-rule="nonzero"/></clipPath><clipPath id="cab21ee671"><path d="M 22 42 L 374 42 L 374 115 L 22 115 Z M 22 42 " clip-rule="nonzero"/></clipPath><clipPath id="d4c6b35339"><path d="M 23.484375 18.097656 L 376.445312 45.195312 L 352.507812 357.027344 L -0.457031 329.929688 Z M 23.484375 18.097656 " clip-rule="nonzero"/></clipPath><clipPath id="31d6ed6f47"><path d="M 23.484375 18.097656 L 376.445312 45.195312 L 352.507812 357.027344 L -0.457031 329.929688 Z M 23.484375 18.097656 " clip-rule="nonzero"/></clipPath></defs><g clip-path="url(#ca8787ef38)"><g clip-path="url(#fac28b727b)"><g clip-path="url(#d232338d78)"><path fill="#2aa198" d="M 347.660156 262.554688 C 337.300781 260.328125 326.773438 257.914062 316.1875 257.460938 C 301.0625 256.832031 289.78125 264.269531 283.09375 278.125 C 281.179688 282.171875 279.261719 286.21875 277.179688 290.078125 C 267.90625 307.394531 253.65625 308.175781 241.84375 292.273438 C 237.878906 286.96875 234.3125 281.074219 229.386719 276.679688 C 220.285156 268.484375 209.242188 269.332031 200.800781 278.144531 C 197.789062 281.304688 195.4375 285.230469 192.84375 288.78125 C 189.453125 293.429688 186.386719 298.457031 182.582031 302.71875 C 165.417969 321.660156 140.148438 318.292969 128.964844 295.390625 C 126.027344 289.453125 124.300781 282.890625 122.285156 276.578125 C 117.105469 260.382812 111.207031 258.144531 97.230469 268.140625 C 89.300781 273.777344 81.921875 280.351562 74.46875 286.742188 C 66.15625 293.871094 56.847656 296.546875 46.042969 295.449219 C 30.453125 293.894531 17.054688 288.226562 7.167969 275.148438 C 3.347656 283.066406 3.742188 284.882812 10.03125 291.347656 C 30.796875 312.664062 62.992188 314.15625 85.894531 294.851562 C 112.421875 272.519531 104.492188 273.515625 115.613281 299.542969 C 132.945312 340.054688 177.089844 334.695312 195.609375 309.699219 C 199.890625 303.957031 203.484375 297.808594 207.675781 292.058594 C 214.171875 283.007812 218.292969 282.789062 225.128906 291.4375 C 228.953125 296.28125 231.996094 301.960938 236.105469 306.558594 C 251.492188 323.539062 274.78125 321.3125 286.894531 301.890625 C 289.445312 297.714844 291.316406 293.125 293.609375 288.839844 C 300.949219 274.585938 306.730469 271.371094 322.558594 273.300781 C 329.636719 274.113281 336.558594 275.804688 343.628906 276.703125 C 348.222656 277.324219 352.214844 276.46875 354.589844 272.277344 C 357.109375 267.382812 351.695312 263.488281 347.660156 262.554688 Z M 347.660156 262.554688 " fill-opacity="1" fill-rule="nonzero"/></g></g></g><g clip-path="url(#495a6de588)"><g clip-path="url(#e774d86293)"><g clip-path="url(#cdecfa0b3f)"><path fill="#2aa198" d="M 353.785156 190.90625 C 343.425781 188.683594 332.898438 186.265625 322.3125 185.8125 C 307.1875 185.1875 295.90625 192.621094 289.21875 206.476562 C 287.304688 210.523438 285.386719 214.574219 283.304688 218.429688 C 274.03125 235.746094 259.78125 236.527344 247.96875 220.625 C 244.003906 215.324219 240.4375 209.425781 235.511719 205.03125 C 226.410156 196.835938 215.367188 197.683594 206.925781 206.496094 C 203.917969 209.65625 201.5625 213.582031 198.96875 217.132812 C 195.578125 221.78125 192.511719 226.8125 188.707031 231.070312 C 171.542969 250.015625 146.273438 246.644531 135.089844 223.742188 C 132.15625 217.804688 130.425781 211.246094 128.414062 204.929688 C 123.230469 188.734375 117.332031 186.496094 103.355469 196.492188 C 95.425781 202.132812 88.046875 208.707031 80.59375 215.09375 C 72.28125 222.222656 62.972656 224.898438 52.167969 223.800781 C 36.578125 222.246094 23.179688 216.578125 13.292969 203.5 C 9.472656 211.417969 9.867188 213.234375 16.15625 219.699219 C 36.921875 241.019531 69.117188 242.507812 92.023438 223.203125 C 118.550781 200.871094 110.617188 201.871094 121.742188 227.894531 C 139.070312 268.40625 183.214844 263.050781 201.738281 238.050781 C 206.015625 232.308594 209.609375 226.160156 213.800781 220.414062 C 220.296875 211.359375 224.421875 211.140625 231.253906 219.789062 C 235.078125 224.632812 238.121094 230.3125 242.230469 234.914062 C 257.617188 251.890625 280.90625 249.664062 293.019531 230.242188 C 295.570312 226.066406 297.441406 221.476562 299.734375 217.191406 C 307.074219 202.9375 312.855469 199.722656 328.683594 201.652344 C 335.761719 202.464844 342.683594 204.15625 349.753906 205.054688 C 354.347656 205.675781 358.339844 204.820312 360.714844 200.628906 C 363.242188 195.648438 357.828125 191.75 353.785156 190.90625 Z M 353.785156 190.90625 " fill-opacity="1" fill-rule="nonzero"/></g></g></g><g clip-path="url(#cc316b17ee)"><g clip-path="url(#1c6a6d11c9)"><g clip-path="url(#0fd132935e)"><path fill="#2aa198" d="M 360.035156 117.660156 C 349.671875 115.4375 339.148438 113.023438 328.5625 112.566406 C 313.4375 111.941406 302.15625 119.375 295.46875 133.230469 C 293.550781 137.28125 291.632812 141.328125 289.550781 145.183594 C 280.277344 162.503906 266.027344 163.28125 254.21875 147.378906 C 250.25 142.078125 246.6875 136.179688 241.757812 131.785156 C 232.660156 123.589844 221.617188 124.4375 213.171875 133.25 C 210.164062 136.410156 207.808594 140.335938 205.21875 143.886719 C 201.824219 148.535156 198.761719 153.566406 194.953125 157.824219 C 177.789062 176.769531 152.523438 173.402344 141.339844 150.496094 C 138.402344 144.558594 136.675781 138 134.660156 131.6875 C 129.476562 115.492188 123.578125 113.253906 109.601562 123.246094 C 101.671875 128.886719 94.296875 135.460938 86.84375 141.851562 C 78.53125 148.976562 69.222656 151.652344 58.414062 150.558594 C 42.828125 149.003906 29.425781 143.332031 19.542969 130.257812 C 15.625 138.257812 16.019531 140.074219 22.226562 146.441406 C 42.992188 167.757812 75.1875 169.25 98.09375 149.941406 C 124.621094 127.613281 116.6875 128.609375 127.8125 154.632812 C 145.140625 195.148438 189.285156 189.789062 207.808594 164.792969 C 212.085938 159.050781 215.683594 152.902344 219.871094 147.152344 C 226.367188 138.101562 230.492188 137.882812 237.324219 146.53125 C 241.148438 151.375 244.191406 157.054688 248.300781 161.652344 C 263.6875 178.632812 286.976562 176.40625 299.089844 156.984375 C 301.640625 152.808594 303.511719 148.21875 305.804688 143.933594 C 313.144531 129.679688 318.925781 126.464844 334.753906 128.394531 C 341.832031 129.203125 348.753906 130.898438 355.824219 131.796875 C 360.417969 132.417969 364.410156 131.5625 366.785156 127.371094 C 369.480469 122.492188 364.070312 118.59375 360.035156 117.660156 Z M 360.035156 117.660156 " fill-opacity="1" fill-rule="nonzero"/></g></g></g><g clip-path="url(#cab21ee671)"><g clip-path="url(#d4c6b35339)"><g clip-path="url(#31d6ed6f47)"><path fill="#2aa198" d="M 366.050781 47.433594 C 355.691406 45.207031 345.164062 42.792969 334.578125 42.339844 C 319.453125 41.710938 308.171875 49.148438 301.484375 63.003906 C 299.566406 67.050781 297.648438 71.101562 295.570312 74.957031 C 286.296875 92.273438 272.042969 93.054688 260.234375 77.152344 C 256.265625 71.851562 252.703125 65.953125 247.773438 61.558594 C 238.675781 53.363281 227.632812 54.210938 219.191406 63.023438 C 216.179688 66.183594 213.828125 70.109375 211.234375 73.660156 C 207.839844 78.308594 204.777344 83.339844 200.96875 87.597656 C 183.804688 106.539062 158.539062 103.171875 147.355469 80.269531 C 144.417969 74.332031 142.691406 67.773438 140.675781 61.457031 C 135.492188 45.261719 129.597656 43.023438 115.617188 53.019531 C 107.6875 58.65625 100.3125 65.230469 92.859375 71.621094 C 84.457031 78.742188 75.058594 81.414062 64.253906 80.316406 C 48.664062 78.761719 35.265625 73.089844 25.378906 60.015625 C 21.558594 67.933594 21.957031 69.75 28.242188 76.210938 C 49.007812 97.53125 81.207031 99.019531 104.109375 79.714844 C 130.636719 57.386719 122.703125 58.382812 133.828125 84.40625 C 151.15625 124.921875 195.300781 119.5625 213.824219 94.566406 C 218.101562 88.824219 221.699219 82.671875 225.886719 76.925781 C 232.382812 67.875 236.507812 67.65625 243.339844 76.300781 C 247.164062 81.148438 250.207031 86.824219 254.316406 91.425781 C 269.707031 108.40625 292.992188 106.175781 305.105469 86.757812 C 307.65625 82.578125 309.527344 77.992188 311.820312 73.703125 C 319.160156 59.453125 324.941406 56.238281 340.769531 58.164062 C 347.847656 58.976562 354.769531 60.667969 361.84375 61.570312 C 366.4375 62.1875 370.429688 61.335938 372.804688 57.144531 C 375.503906 52.175781 370.09375 48.277344 366.050781 47.433594 Z M 366.050781 47.433594 " fill-opacity="1" fill-rule="nonzero"/></g></g></g></svg>