<svg xmlns="http://www.w3.org/2000/svg" xmlns:xlink="http://www.w3.org/1999/xlink" width="500" zoomAndPan="magnify" viewBox="0 0 375 374.999991" height="500" preserveAspectRatio="xMidYMid meet" version="1.0"><defs><clipPath id="20700d29a9"><path d="M 139 289 L 199 289 L 199 365.296875 L 139 365.296875 Z M 139 289 " clip-rule="nonzero"/></clipPath><clipPath id="75ab137ad7"><path d="M 222 118 L 281 118 L 281 194.730469 L 222 194.730469 Z M 222 118 " clip-rule="nonzero"/></clipPath></defs><path fill="#2aa198" d="M 220.058594 206.804688 C 217.957031 206.804688 215.859375 207.503906 214.460938 209.605469 C 210.265625 214.5 189.984375 238.976562 189.984375 253.660156 C 189.984375 269.746094 203.273438 283.035156 219.355469 283.035156 C 235.441406 283.035156 248.730469 269.746094 248.730469 253.660156 C 248.730469 239.675781 228.449219 214.5 224.953125 209.605469 C 224.253906 207.503906 222.15625 206.804688 220.058594 206.804688 Z M 220.058594 268.347656 C 211.664062 268.347656 204.671875 261.355469 204.671875 252.960938 C 204.671875 248.066406 211.664062 235.480469 220.058594 224.988281 C 228.449219 236.179688 235.441406 248.066406 235.441406 252.960938 C 235.441406 261.355469 228.449219 268.347656 220.058594 268.347656 Z M 220.058594 268.347656 " fill-opacity="1" fill-rule="nonzero"/><path fill="#2aa198" d="M 291.386719 263.453125 C 289.289062 263.453125 287.191406 264.152344 285.792969 266.25 C 281.597656 271.144531 261.316406 295.621094 261.316406 310.308594 C 261.316406 326.390625 274.605469 339.679688 290.6875 339.679688 C 306.773438 339.679688 320.0625 326.390625 320.0625 310.308594 C 320.0625 296.320312 299.78125 271.144531 296.285156 266.25 C 294.886719 264.851562 293.488281 263.453125 291.386719 263.453125 Z M 291.386719 325.691406 C 282.996094 325.691406 276.003906 318.699219 276.003906 310.308594 C 276.003906 305.410156 282.996094 292.824219 291.386719 282.335938 C 299.78125 293.523438 306.773438 305.410156 306.773438 310.308594 C 306.773438 318.699219 299.78125 325.691406 291.386719 325.691406 Z M 291.386719 325.691406 " fill-opacity="1" fill-rule="nonzero"/><path fill="#2aa198" d="M 79.492188 246.667969 C 77.394531 246.667969 75.296875 246.667969 73.898438 248.066406 C 69 252.261719 45.222656 273.242188 43.125 287.230469 C 41.726562 294.921875 43.824219 302.613281 48.71875 308.910156 C 53.617188 315.203125 59.910156 319.398438 68.300781 320.796875 C 69.699219 320.796875 71.097656 320.796875 72.496094 320.796875 C 86.484375 320.796875 99.074219 310.308594 101.871094 296.320312 C 103.96875 282.335938 87.882812 254.359375 85.085938 249.464844 C 82.988281 248.066406 81.589844 247.367188 79.492188 246.667969 Z M 87.183594 294.921875 C 85.785156 303.3125 78.09375 308.910156 69.699219 307.511719 C 65.503906 306.8125 62.007812 304.710938 59.210938 301.214844 C 57.113281 297.71875 55.714844 293.523438 56.414062 290.027344 C 57.113281 285.132812 66.203125 273.941406 75.996094 264.851562 C 82.988281 276.738281 87.882812 290.027344 87.183594 294.921875 Z M 87.183594 294.921875 " fill-opacity="1" fill-rule="nonzero"/><g clip-path="url(#20700d29a9)"><path fill="#2aa198" d="M 169.703125 289.328125 C 167.605469 289.328125 165.507812 290.027344 164.109375 292.125 C 159.914062 297.019531 139.632812 321.496094 139.632812 336.183594 C 139.632812 352.265625 152.921875 365.554688 169.003906 365.554688 C 185.089844 365.554688 198.378906 352.265625 198.378906 336.183594 C 198.378906 322.195312 178.097656 297.019531 174.601562 292.125 C 173.902344 290.027344 171.804688 289.328125 169.703125 289.328125 Z M 169.703125 350.867188 C 161.3125 350.867188 154.320312 343.875 154.320312 335.484375 C 154.320312 330.589844 162.011719 318 169.703125 307.511719 C 178.097656 318.699219 185.089844 330.589844 185.089844 335.484375 C 185.089844 343.875 178.097656 350.867188 169.703125 350.867188 Z M 169.703125 350.867188 " fill-opacity="1" fill-rule="nonzero"/></g><path fill="#2aa198" d="M 305.375 173.238281 C 303.277344 173.238281 301.179688 173.9375 299.78125 176.035156 C 295.585938 180.929688 275.304688 205.40625 275.304688 220.09375 C 275.304688 236.179688 288.589844 249.464844 304.675781 249.464844 C 320.761719 249.464844 334.046875 236.179688 334.046875 220.09375 C 334.046875 206.105469 313.765625 180.929688 310.269531 176.035156 C 308.871094 173.9375 307.472656 173.238281 305.375 173.238281 Z M 305.375 234.78125 C 296.984375 234.78125 289.988281 227.785156 289.988281 219.394531 C 289.988281 214.5 296.984375 201.910156 305.375 191.421875 C 313.765625 202.609375 320.761719 214.5 320.761719 219.394531 C 320.761719 227.785156 313.765625 234.78125 305.375 234.78125 Z M 305.375 234.78125 " fill-opacity="1" fill-rule="nonzero"/><path fill="#2aa198" d="M 176.699219 222.191406 C 176.699219 208.203125 156.417969 183.027344 152.921875 178.132812 C 151.523438 176.734375 149.425781 175.335938 147.328125 175.335938 C 145.226562 175.335938 143.128906 176.035156 141.730469 178.132812 C 137.535156 183.027344 117.253906 207.503906 117.253906 222.191406 C 117.253906 238.277344 130.542969 251.5625 146.628906 251.5625 C 163.410156 251.5625 176.699219 238.277344 176.699219 222.191406 Z M 131.941406 222.191406 C 131.941406 217.296875 138.933594 204.707031 147.328125 194.21875 C 155.71875 205.40625 162.710938 217.296875 162.710938 222.191406 C 162.710938 230.582031 155.71875 237.578125 147.328125 237.578125 C 138.933594 237.578125 131.941406 230.582031 131.941406 222.191406 Z M 131.941406 222.191406 " fill-opacity="1" fill-rule="nonzero"/><path fill="#2aa198" d="M 302.59375 36.242188 C 300.496094 36.242188 298.398438 36.941406 297 39.039062 C 292.804688 43.933594 272.523438 68.410156 272.523438 83.09375 C 272.523438 99.179688 285.808594 112.46875 301.894531 112.46875 C 317.980469 112.46875 331.265625 99.179688 331.265625 83.09375 C 331.265625 69.109375 310.984375 43.933594 307.488281 39.039062 C 306.789062 36.941406 304.691406 36.242188 302.59375 36.242188 Z M 302.59375 97.78125 C 294.203125 97.78125 287.207031 90.789062 287.207031 82.394531 C 287.207031 77.5 294.203125 64.914062 302.59375 54.421875 C 310.984375 65.613281 317.980469 77.5 317.980469 82.394531 C 317.980469 90.789062 310.984375 97.78125 302.59375 97.78125 Z M 302.59375 97.78125 " fill-opacity="1" fill-rule="nonzero"/><path fill="#2aa198" d="M 162.027344 76.101562 C 159.929688 76.101562 157.832031 76.101562 156.433594 77.5 C 151.539062 81.695312 127.761719 102.675781 125.664062 116.664062 C 124.265625 124.355469 126.363281 132.046875 131.257812 138.34375 C 136.152344 144.636719 142.445312 148.832031 150.839844 150.230469 C 152.238281 150.230469 153.636719 150.230469 155.035156 150.230469 C 169.019531 150.230469 181.609375 139.742188 184.40625 125.753906 C 186.503906 111.769531 170.417969 83.792969 167.621094 78.898438 C 165.523438 77.5 164.125 76.800781 162.027344 76.101562 Z M 169.71875 124.355469 C 168.320312 132.75 160.628906 138.34375 152.238281 136.945312 C 148.042969 136.246094 144.542969 134.148438 141.746094 130.648438 C 139.648438 127.152344 138.25 122.957031 138.949219 119.460938 C 139.648438 114.566406 148.742188 103.375 158.53125 94.285156 C 165.523438 106.171875 170.417969 119.460938 169.71875 124.355469 Z M 169.71875 124.355469 " fill-opacity="1" fill-rule="nonzero"/><g clip-path="url(#75ab137ad7)"><path fill="#2aa198" d="M 252.242188 118.761719 C 250.144531 118.761719 248.046875 119.460938 246.648438 121.558594 C 242.449219 126.453125 222.171875 150.929688 222.171875 165.617188 C 222.171875 181.703125 235.457031 194.988281 251.542969 194.988281 C 267.625 194.988281 280.914062 181.703125 280.914062 165.617188 C 280.914062 151.628906 260.632812 126.453125 257.136719 121.558594 C 256.4375 119.460938 254.339844 118.761719 252.242188 118.761719 Z M 252.242188 180.300781 C 243.847656 180.300781 236.855469 173.308594 236.855469 164.917969 C 236.855469 160.023438 244.550781 147.433594 252.242188 136.945312 C 260.632812 148.132812 267.625 160.023438 267.625 164.917969 C 267.625 173.308594 260.632812 180.300781 252.242188 180.300781 Z M 252.242188 180.300781 " fill-opacity="1" fill-rule="nonzero"/></g><path fill="#2aa198" d="M 259.234375 51.625 C 259.234375 37.640625 238.953125 12.464844 235.457031 7.566406 C 234.058594 6.167969 231.960938 4.769531 229.863281 4.769531 C 227.765625 4.769531 225.667969 5.46875 224.269531 7.566406 C 220.074219 12.464844 199.792969 36.941406 199.792969 51.625 C 199.792969 67.710938 213.078125 80.996094 229.164062 80.996094 C 245.949219 80.996094 259.234375 67.710938 259.234375 51.625 Z M 214.476562 51.625 C 214.476562 46.730469 221.472656 34.140625 229.863281 23.652344 C 238.253906 34.839844 245.25 46.730469 245.25 51.625 C 245.25 60.019531 238.253906 67.011719 229.863281 67.011719 C 221.472656 67.011719 214.476562 60.019531 214.476562 51.625 Z M 214.476562 51.625 " fill-opacity="1" fill-rule="nonzero"/><path fill="#2aa198" d="M 77.480469 104.898438 C 75.382812 104.898438 73.285156 105.597656 71.886719 107.695312 C 67.691406 112.59375 47.410156 137.070312 47.410156 151.753906 C 47.410156 167.839844 60.695312 181.125 76.78125 181.125 C 92.867188 181.125 106.152344 167.839844 106.152344 151.753906 C 106.152344 137.769531 85.871094 112.59375 82.375 107.695312 C 80.976562 106.296875 79.578125 104.898438 77.480469 104.898438 Z M 77.480469 167.140625 C 69.089844 167.140625 62.09375 160.148438 62.09375 151.753906 C 62.09375 146.859375 69.089844 134.273438 77.480469 123.78125 C 85.871094 134.972656 92.867188 146.859375 92.867188 151.753906 C 92.867188 160.148438 85.871094 167.140625 77.480469 167.140625 Z M 77.480469 167.140625 " fill-opacity="1" fill-rule="nonzero"/><path fill="#2aa198" d="M 91.46875 14.6875 C 89.371094 14.6875 87.269531 15.386719 85.871094 17.484375 C 81.675781 22.378906 61.394531 46.855469 61.394531 61.542969 C 61.394531 77.625 74.683594 90.914062 90.769531 90.914062 C 106.851562 90.914062 120.140625 77.625 120.140625 61.542969 C 120.140625 47.554688 99.859375 22.378906 96.363281 17.484375 C 94.964844 15.386719 93.566406 14.6875 91.46875 14.6875 Z M 91.46875 76.226562 C 83.074219 76.226562 76.082031 69.234375 76.082031 60.84375 C 76.082031 55.945312 83.074219 43.359375 91.46875 32.867188 C 99.859375 44.058594 106.851562 55.945312 106.851562 60.84375 C 106.851562 69.234375 99.859375 76.226562 91.46875 76.226562 Z M 91.46875 76.226562 " fill-opacity="1" fill-rule="nonzero"/></svg>