<svg xmlns="http://www.w3.org/2000/svg" xmlns:xlink="http://www.w3.org/1999/xlink" width="500" zoomAndPan="magnify" viewBox="0 0 375 374.999991" height="500" preserveAspectRatio="xMidYMid meet" version="1.0"><defs><clipPath id="42d623bba0"><path d="M 181 6.476562 L 193 6.476562 L 193 49 L 181 49 Z M 181 6.476562 " clip-rule="nonzero"/></clipPath><clipPath id="818433a3d5"><path d="M 6.476562 181 L 49 181 L 49 193 L 6.476562 193 Z M 6.476562 181 " clip-rule="nonzero"/></clipPath><clipPath id="c89cb2de3b"><path d="M 181 325 L 193 325 L 193 367.226562 L 181 367.226562 Z M 181 325 " clip-rule="nonzero"/></clipPath><clipPath id="b3ae3c5dee"><path d="M 325 181 L 367.226562 181 L 367.226562 193 L 325 193 Z M 325 181 " clip-rule="nonzero"/></clipPath></defs><path fill="#2aa198" d="M 188.695312 257.878906 C 148.53125 257.804688 115.972656 225.316406 115.972656 185.15625 C 115.972656 182.324219 113.660156 180.015625 110.832031 180.015625 C 108 180.015625 105.6875 182.324219 105.6875 185.15625 C 105.765625 230.980469 142.871094 268.160156 188.769531 268.234375 C 191.601562 268.234375 193.910156 265.925781 193.910156 263.09375 C 193.835938 260.1875 191.527344 257.878906 188.695312 257.878906 Z M 188.695312 257.878906 " fill-opacity="1" fill-rule="nonzero"/><g clip-path="url(#42d623bba0)"><path fill="#2aa198" d="M 186.90625 48.652344 C 189.738281 48.652344 192.046875 46.339844 192.046875 43.511719 L 192.046875 11.621094 C 192.046875 8.789062 189.738281 6.476562 186.90625 6.476562 C 184.074219 6.476562 181.765625 8.789062 181.765625 11.621094 L 181.765625 43.511719 C 181.765625 46.339844 184.074219 48.652344 186.90625 48.652344 Z M 186.90625 48.652344 " fill-opacity="1" fill-rule="nonzero"/></g><path fill="#2aa198" d="M 110.757812 65.265625 C 111.648438 66.832031 113.363281 67.875 115.226562 67.875 C 116.121094 67.875 117.015625 67.652344 117.835938 67.203125 C 120.292969 65.789062 121.113281 62.660156 119.699219 60.125 L 103.753906 32.558594 C 103.753906 32.558594 103.753906 32.484375 103.753906 32.484375 C 102.335938 30.023438 99.132812 29.203125 96.671875 30.621094 C 94.214844 32.035156 93.394531 35.238281 94.8125 37.699219 Z M 110.757812 65.265625 " fill-opacity="1" fill-rule="nonzero"/><path fill="#2aa198" d="M 32.519531 103.714844 L 60.089844 119.660156 C 60.910156 120.105469 61.726562 120.332031 62.695312 120.332031 C 64.558594 120.332031 66.273438 119.363281 67.167969 117.722656 C 68.582031 115.265625 67.761719 112.132812 65.304688 110.644531 L 37.734375 94.699219 C 35.277344 93.285156 32.148438 94.101562 30.65625 96.5625 C 29.242188 99.09375 30.0625 102.300781 32.519531 103.714844 Z M 32.519531 103.714844 " fill-opacity="1" fill-rule="nonzero"/><g clip-path="url(#818433a3d5)"><path fill="#2aa198" d="M 48.613281 186.867188 C 48.613281 184.039062 46.304688 181.726562 43.472656 181.726562 L 11.65625 181.726562 C 8.824219 181.726562 6.515625 184.039062 6.515625 186.867188 C 6.515625 189.699219 8.824219 192.011719 11.65625 192.011719 L 43.546875 192.011719 C 46.378906 192.011719 48.613281 189.699219 48.613281 186.867188 Z M 48.613281 186.867188 " fill-opacity="1" fill-rule="nonzero"/></g><path fill="#2aa198" d="M 60.164062 254.152344 L 32.59375 270.097656 C 30.957031 270.992188 29.988281 272.707031 29.988281 274.566406 C 29.988281 277.398438 32.296875 279.710938 35.128906 279.710938 C 36.023438 279.710938 36.914062 279.484375 37.734375 279.039062 L 65.378906 263.09375 C 67.839844 261.675781 68.65625 258.546875 67.242188 256.015625 C 65.75 253.554688 62.621094 252.660156 60.164062 254.152344 Z M 60.164062 254.152344 " fill-opacity="1" fill-rule="nonzero"/><path fill="#2aa198" d="M 117.761719 306.683594 C 115.300781 305.265625 112.171875 306.085938 110.679688 308.542969 L 94.734375 336.113281 C 94.289062 336.859375 94.066406 337.753906 94.066406 338.722656 C 94.066406 341.554688 96.375 343.863281 99.207031 343.863281 C 101.070312 343.863281 102.785156 342.894531 103.675781 341.253906 L 119.621094 313.6875 C 121.039062 311.226562 120.21875 308.097656 117.761719 306.683594 Z M 117.761719 306.683594 " fill-opacity="1" fill-rule="nonzero"/><g clip-path="url(#c89cb2de3b)"><path fill="#2aa198" d="M 186.90625 325.160156 C 184.074219 325.160156 181.765625 327.46875 181.765625 330.300781 L 181.765625 362.191406 C 181.765625 365.023438 184.074219 367.332031 186.90625 367.332031 C 189.738281 367.332031 192.046875 365.023438 192.046875 362.191406 L 192.046875 330.300781 C 192.046875 327.46875 189.738281 325.160156 186.90625 325.160156 Z M 186.90625 325.160156 " fill-opacity="1" fill-rule="nonzero"/></g><path fill="#2aa198" d="M 263.054688 308.46875 C 261.566406 305.9375 258.4375 305.117188 255.976562 306.609375 C 253.519531 308.023438 252.699219 311.226562 254.113281 313.6875 L 270.058594 341.253906 C 270.953125 342.820312 272.667969 343.863281 274.53125 343.863281 C 275.425781 343.863281 276.320312 343.640625 277.136719 343.191406 C 279.597656 341.777344 280.417969 338.648438 279 336.113281 Z M 263.054688 308.46875 " fill-opacity="1" fill-rule="nonzero"/><path fill="#2aa198" d="M 341.292969 270.023438 L 313.648438 254.078125 C 311.191406 252.660156 308.058594 253.480469 306.570312 255.941406 C 305.15625 258.398438 305.972656 261.527344 308.433594 263.019531 L 336.003906 278.964844 C 336.820312 279.410156 337.640625 279.632812 338.609375 279.632812 C 340.472656 279.632812 342.1875 278.667969 343.082031 277.027344 C 344.570312 274.640625 343.75 271.4375 341.292969 270.023438 Z M 341.292969 270.023438 " fill-opacity="1" fill-rule="nonzero"/><g clip-path="url(#b3ae3c5dee)"><path fill="#2aa198" d="M 362.15625 181.726562 L 330.265625 181.726562 C 327.433594 181.726562 325.125 184.039062 325.125 186.867188 C 325.125 189.699219 327.433594 192.011719 330.265625 192.011719 L 362.15625 192.011719 C 364.988281 192.011719 367.296875 189.699219 367.296875 186.867188 C 367.296875 184.039062 365.0625 181.726562 362.15625 181.726562 Z M 362.15625 181.726562 " fill-opacity="1" fill-rule="nonzero"/></g><path fill="#2aa198" d="M 311.117188 120.332031 C 312.007812 120.332031 312.902344 120.105469 313.722656 119.660156 L 341.292969 103.714844 C 343.75 102.300781 344.570312 99.167969 343.15625 96.636719 C 341.738281 94.175781 338.609375 93.359375 336.078125 94.773438 L 308.507812 110.71875 C 306.941406 111.613281 305.898438 113.328125 305.898438 115.191406 C 305.972656 118.019531 308.285156 120.332031 311.117188 120.332031 Z M 311.117188 120.332031 " fill-opacity="1" fill-rule="nonzero"/><path fill="#2aa198" d="M 258.585938 67.800781 C 260.449219 67.800781 262.160156 66.832031 263.054688 65.191406 L 279 37.625 C 279 37.625 279 37.550781 279 37.550781 C 280.417969 35.089844 279.523438 31.960938 277.0625 30.546875 C 274.605469 29.128906 271.476562 30.023438 270.058594 32.484375 L 254.113281 60.050781 C 253.667969 60.796875 253.445312 61.691406 253.445312 62.660156 C 253.445312 65.492188 255.753906 67.800781 258.585938 67.800781 Z M 258.585938 67.800781 " fill-opacity="1" fill-rule="nonzero"/><path fill="#2aa198" d="M 268.496094 104.757812 C 252.773438 89.707031 233.921875 80.019531 214.101562 75.550781 C 213.65625 75.25 213.058594 74.953125 212.464844 74.804688 C 204.042969 72.867188 195.476562 71.824219 186.832031 71.898438 C 139.964844 72.867188 100.027344 101.851562 83.039062 142.832031 C 82.964844 142.980469 82.890625 143.132812 82.816406 143.28125 C 82.738281 143.429688 82.664062 143.578125 82.589844 143.726562 C 65.675781 184.707031 73.425781 233.4375 105.839844 267.265625 C 111.949219 273.375 118.730469 278.742188 126.03125 283.285156 C 126.550781 283.582031 127.148438 283.808594 127.671875 283.957031 C 144.808594 294.835938 165 301.316406 186.757812 301.765625 C 234.59375 301.539062 275.722656 272.183594 292.933594 230.308594 C 310.519531 188.582031 302.175781 138.808594 268.496094 104.757812 Z M 186.757812 291.554688 C 167.308594 291.554688 149.203125 286.265625 133.632812 277.027344 C 133.257812 276.058594 132.585938 275.238281 131.617188 274.640625 C 124.988281 270.542969 118.804688 265.625 113.289062 260.039062 C 82.664062 229.414062 74.917969 184.558594 90.191406 146.78125 C 90.265625 146.632812 90.339844 146.484375 90.339844 146.335938 C 90.414062 146.1875 90.488281 146.035156 90.488281 145.886719 C 106.433594 108.410156 143.617188 82.179688 186.90625 82.179688 C 194.730469 82.179688 202.554688 83.074219 210.152344 84.789062 C 211.269531 85.011719 212.3125 84.9375 213.28125 84.492188 C 230.792969 88.960938 247.410156 98.050781 261.191406 111.761719 C 281.980469 132.550781 292.265625 159.894531 291.890625 187.167969 C 291.667969 187.6875 291.519531 188.285156 291.519531 188.953125 C 291.222656 202.144531 288.539062 214.734375 283.769531 226.359375 C 278.925781 237.910156 271.921875 248.710938 262.832031 258.25 C 262.386719 258.695312 262.085938 259.21875 261.863281 259.816406 C 242.714844 279.484375 216.113281 291.554688 186.757812 291.554688 Z M 186.757812 291.554688 " fill-opacity="1" fill-rule="nonzero"/></svg>