<svg xmlns="http://www.w3.org/2000/svg" xmlns:xlink="http://www.w3.org/1999/xlink" width="500" zoomAndPan="magnify" viewBox="0 0 375 374.999991" height="500" preserveAspectRatio="xMidYMid meet" version="1.0"><defs><clipPath id="323909a9da"><path d="M 7 74.230469 L 368 74.230469 L 368 301.480469 L 7 301.480469 Z M 7 74.230469 " clip-rule="nonzero"/></clipPath></defs><g clip-path="url(#323909a9da)"><path fill="#2aa198" d="M 367.460938 190.546875 C 332.050781 266.019531 301.515625 301.183594 271.304688 301.183594 C 233.652344 301.183594 208.445312 247.433594 181.761719 190.546875 C 158.085938 139.929688 133.535156 87.585938 104.4375 87.585938 C 80.738281 87.585938 52.488281 122.222656 20.433594 190.546875 C 18.804688 193.859375 14.808594 195.210938 11.496094 193.582031 C 8.28125 191.992188 6.886719 188.144531 8.355469 184.867188 C 43.691406 109.394531 74.234375 74.230469 104.4375 74.230469 C 142.085938 74.230469 167.292969 127.980469 193.980469 184.867188 C 217.652344 235.472656 242.207031 287.828125 271.304688 287.828125 C 295 287.828125 323.25 253.191406 355.304688 184.867188 C 356.933594 181.554688 360.933594 180.203125 364.246094 181.835938 C 367.460938 183.421875 368.851562 187.269531 367.382812 190.546875 Z M 367.460938 190.546875 " fill-opacity="1" fill-rule="nonzero"/></g></svg>