<svg xmlns="http://www.w3.org/2000/svg" xmlns:xlink="http://www.w3.org/1999/xlink" width="500" zoomAndPan="magnify" viewBox="0 0 375 374.999991" height="500" preserveAspectRatio="xMidYMid meet" version="1.0"><defs><clipPath id="87eab69adc"><path d="M 87 273 L 368.78125 273 L 368.78125 302.222656 L 87 302.222656 Z M 87 273 " clip-rule="nonzero"/></clipPath><clipPath id="b9e8d41d24"><path d="M 87 219.269531 L 368.78125 219.269531 L 368.78125 346.402344 L 87 346.402344 Z M 87 219.269531 " clip-rule="nonzero"/></clipPath><clipPath id="bb68a77bac"><path d="M 5.796875 17.675781 L 95.503906 17.675781 L 95.503906 346.402344 L 5.796875 346.402344 Z M 5.796875 17.675781 " clip-rule="nonzero"/></clipPath><clipPath id="318ea31896"><path d="M 5.796875 47 L 50 47 L 50 55 L 5.796875 55 Z M 5.796875 47 " clip-rule="nonzero"/></clipPath><clipPath id="c581a4696e"><path d="M 5.796875 112 L 50 112 L 50 121 L 5.796875 121 Z M 5.796875 112 " clip-rule="nonzero"/></clipPath><clipPath id="cce8a1bd70"><path d="M 5.796875 178 L 50 178 L 50 186 L 5.796875 186 Z M 5.796875 178 " clip-rule="nonzero"/></clipPath><clipPath id="9d13a92bba"><path d="M 5.796875 243 L 50 243 L 50 252 L 5.796875 252 Z M 5.796875 243 " clip-rule="nonzero"/></clipPath><clipPath id="1fa6f8c9f4"><path d="M 5.796875 309 L 50 309 L 50 317 L 5.796875 317 Z M 5.796875 309 " clip-rule="nonzero"/></clipPath><clipPath id="e45031f816"><path d="M 5.796875 79 L 32 79 L 32 88 L 5.796875 88 Z M 5.796875 79 " clip-rule="nonzero"/></clipPath><clipPath id="8db5a42b2a"><path d="M 5.796875 145 L 32 145 L 32 153 L 5.796875 153 Z M 5.796875 145 " clip-rule="nonzero"/></clipPath><clipPath id="bd21dddfe1"><path d="M 5.796875 211 L 32 211 L 32 219 L 5.796875 219 Z M 5.796875 211 " clip-rule="nonzero"/></clipPath><clipPath id="ffb3bcd8ef"><path d="M 5.796875 276 L 32 276 L 32 285 L 5.796875 285 Z M 5.796875 276 " clip-rule="nonzero"/></clipPath><clipPath id="74679717e0"><path d="M 109 17.34375 L 193 17.34375 L 193 122 L 109 122 Z M 109 17.34375 " clip-rule="nonzero"/></clipPath></defs><g clip-path="url(#87eab69adc)"><path fill="#2aa198" d="M 306.511719 302.1875 C 296.714844 302.1875 287.945312 297.277344 283.59375 289.382812 C 283.59375 289.359375 283.570312 289.359375 283.570312 289.335938 C 280.742188 284.058594 274.375 280.632812 267.386719 280.632812 C 260.398438 280.632812 254.03125 284.035156 251.207031 289.335938 C 251.207031 289.359375 251.179688 289.359375 251.179688 289.382812 C 246.828125 297.277344 238.058594 302.1875 228.265625 302.1875 C 218.539062 302.1875 209.628906 297.164062 205.578125 289.382812 C 202.472656 284.011719 196.179688 280.65625 189.140625 280.65625 C 182.152344 280.65625 175.808594 284.058594 172.984375 289.335938 C 168.863281 297.277344 160.066406 302.1875 150.019531 302.1875 C 140.386719 302.1875 131.683594 297.277344 127.332031 289.382812 C 127.332031 289.359375 127.308594 289.359375 127.308594 289.335938 C 124.484375 284.058594 118.121094 280.632812 111.128906 280.632812 C 104.160156 280.632812 97.703125 284.152344 94.691406 289.59375 C 93.699219 291.375 91.453125 292.023438 89.667969 291.050781 C 87.886719 290.054688 87.238281 287.808594 88.210938 286.027344 C 92.5625 278.132812 101.335938 273.226562 111.128906 273.226562 C 120.804688 273.226562 129.71875 278.15625 133.835938 285.820312 C 136.890625 291.328125 143.097656 294.753906 150.019531 294.753906 C 157.285156 294.753906 163.585938 291.351562 166.410156 285.863281 C 166.410156 285.839844 166.429688 285.839844 166.429688 285.820312 C 170.53125 278.15625 179.441406 273.226562 189.140625 273.226562 C 198.84375 273.226562 207.613281 278.015625 212.039062 285.75 C 212.058594 285.796875 212.082031 285.839844 212.105469 285.886719 C 214.910156 291.28125 221.226562 294.777344 228.265625 294.777344 C 235.230469 294.777344 241.667969 291.257812 244.679688 285.839844 C 248.773438 278.199219 257.6875 273.25 267.386719 273.25 C 277.089844 273.25 285.976562 278.179688 290.09375 285.839844 C 293.105469 291.28125 299.542969 294.777344 306.511719 294.777344 C 313.523438 294.777344 319.867188 291.28125 322.667969 285.886719 C 322.667969 285.863281 322.691406 285.863281 322.691406 285.839844 C 324.75 282.019531 327.992188 278.804688 332.113281 276.582031 C 336.140625 274.40625 340.816406 273.25 345.632812 273.25 C 355.332031 273.25 364.246094 278.199219 368.339844 285.839844 C 369.3125 287.644531 368.621094 289.890625 366.839844 290.863281 C 365.035156 291.839844 362.789062 291.140625 361.816406 289.359375 C 358.988281 284.082031 352.621094 280.65625 345.632812 280.65625 C 338.503906 280.65625 332.070312 284.058594 329.242188 289.335938 C 325.167969 297.136719 316.253906 302.1875 306.511719 302.1875 " fill-opacity="1" fill-rule="evenodd"/></g><g clip-path="url(#b9e8d41d24)"><path fill="#2aa198" d="M 365.078125 346.402344 L 91.453125 346.402344 C 89.414062 346.402344 87.746094 344.734375 87.746094 342.699219 C 87.746094 340.660156 89.414062 338.992188 91.453125 338.992188 L 361.375 338.992188 L 361.375 235.351562 C 358.320312 230.445312 352.113281 227.179688 345.632812 227.179688 C 338.570312 227.179688 332.136719 230.675781 329.242188 236.09375 C 325.191406 243.894531 316.277344 248.941406 306.511719 248.941406 C 296.714844 248.941406 287.945312 244.035156 283.59375 236.140625 C 283.59375 236.117188 283.570312 236.117188 283.570312 236.09375 C 280.699219 230.746094 274.214844 227.15625 267.386719 227.15625 C 260.554688 227.15625 254.074219 230.746094 251.207031 236.09375 C 251.207031 236.117188 251.179688 236.117188 251.179688 236.140625 C 246.828125 244.035156 238.058594 248.941406 228.265625 248.941406 C 218.539062 248.941406 209.628906 243.921875 205.578125 236.140625 C 202.382812 230.609375 196.109375 227.179688 189.140625 227.179688 C 182.335938 227.179688 175.832031 230.769531 172.984375 236.09375 C 168.863281 244.035156 160.066406 248.941406 150.019531 248.941406 C 140.386719 248.941406 131.683594 244.035156 127.332031 236.140625 C 127.332031 236.117188 127.308594 236.117188 127.308594 236.09375 C 124.4375 230.746094 117.957031 227.15625 111.128906 227.15625 C 104.226562 227.15625 97.769531 230.769531 94.691406 236.347656 C 93.699219 238.132812 91.453125 238.78125 89.667969 237.808594 C 87.886719 236.808594 87.238281 234.566406 88.210938 232.78125 C 92.585938 224.867188 101.570312 219.75 111.128906 219.75 C 120.734375 219.75 129.644531 224.773438 133.835938 232.574219 C 136.890625 238.082031 143.097656 241.511719 150.019531 241.511719 C 157.285156 241.511719 163.585938 238.105469 166.410156 232.621094 C 166.410156 232.597656 166.429688 232.597656 166.429688 232.574219 C 170.597656 224.773438 179.535156 219.75 189.140625 219.75 C 198.769531 219.75 207.546875 224.636719 212.039062 232.507812 C 212.058594 232.554688 212.082031 232.597656 212.105469 232.644531 C 214.910156 238.039062 221.226562 241.53125 228.265625 241.53125 C 235.230469 241.53125 241.667969 238.015625 244.679688 232.597656 C 248.867188 224.820312 257.757812 219.773438 267.386719 219.773438 C 277.015625 219.773438 285.90625 224.796875 290.09375 232.597656 C 293.105469 238.039062 299.542969 241.53125 306.511719 241.53125 C 313.523438 241.53125 319.867188 238.039062 322.667969 232.644531 C 322.667969 232.621094 322.691406 232.621094 322.691406 232.597656 C 326.859375 224.796875 335.863281 219.773438 345.632812 219.773438 C 355.261719 219.773438 364.175781 224.820312 368.339844 232.597656 C 368.621094 233.128906 368.78125 233.730469 368.78125 234.359375 L 368.78125 342.699219 C 368.78125 344.734375 367.117188 346.402344 365.078125 346.402344 " fill-opacity="1" fill-rule="evenodd"/></g><g clip-path="url(#bb68a77bac)"><path fill="#2aa198" d="M 91.453125 346.402344 L 9.5 346.402344 C 7.464844 346.402344 5.796875 344.734375 5.796875 342.699219 L 5.796875 21.382812 C 5.796875 19.347656 7.46875 17.675781 9.5 17.675781 L 91.453125 17.675781 C 93.488281 17.675781 95.15625 19.347656 95.15625 21.382812 L 95.15625 342.699219 C 95.15625 344.734375 93.488281 346.402344 91.453125 346.402344 Z M 13.207031 338.992188 L 87.746094 338.992188 L 87.746094 25.085938 L 13.207031 25.085938 L 13.207031 338.992188 " fill-opacity="1" fill-rule="evenodd"/></g><g clip-path="url(#318ea31896)"><path fill="#2aa198" d="M 45.617188 54.71875 L 9.5 54.71875 C 7.464844 54.71875 5.796875 53.050781 5.796875 51.015625 C 5.796875 48.976562 7.464844 47.308594 9.5 47.308594 L 45.617188 47.308594 C 47.652344 47.308594 49.320312 48.976562 49.320312 51.015625 C 49.320312 53.050781 47.652344 54.71875 45.617188 54.71875 " fill-opacity="1" fill-rule="evenodd"/></g><g clip-path="url(#c581a4696e)"><path fill="#2aa198" d="M 45.617188 120.230469 L 9.5 120.230469 C 7.464844 120.230469 5.796875 118.566406 5.796875 116.527344 C 5.796875 114.488281 7.464844 112.824219 9.5 112.824219 L 45.617188 112.824219 C 47.652344 112.824219 49.320312 114.488281 49.320312 116.527344 C 49.320312 118.566406 47.652344 120.230469 45.617188 120.230469 " fill-opacity="1" fill-rule="evenodd"/></g><g clip-path="url(#cce8a1bd70)"><path fill="#2aa198" d="M 45.617188 185.746094 L 9.5 185.746094 C 7.464844 185.746094 5.796875 184.074219 5.796875 182.039062 C 5.796875 180.003906 7.464844 178.332031 9.5 178.332031 L 45.617188 178.332031 C 47.652344 178.332031 49.320312 180.003906 49.320312 182.039062 C 49.320312 184.074219 47.652344 185.746094 45.617188 185.746094 " fill-opacity="1" fill-rule="evenodd"/></g><g clip-path="url(#9d13a92bba)"><path fill="#2aa198" d="M 45.617188 251.257812 L 9.5 251.257812 C 7.464844 251.257812 5.796875 249.589844 5.796875 247.550781 C 5.796875 245.515625 7.464844 243.847656 9.5 243.847656 L 45.617188 243.847656 C 47.652344 243.847656 49.320312 245.515625 49.320312 247.550781 C 49.320312 249.589844 47.652344 251.257812 45.617188 251.257812 " fill-opacity="1" fill-rule="evenodd"/></g><g clip-path="url(#1fa6f8c9f4)"><path fill="#2aa198" d="M 45.617188 316.769531 L 9.5 316.769531 C 7.464844 316.769531 5.796875 315.101562 5.796875 313.066406 C 5.796875 311.027344 7.464844 309.359375 9.5 309.359375 L 45.617188 309.359375 C 47.652344 309.359375 49.320312 311.027344 49.320312 313.066406 C 49.320312 315.101562 47.652344 316.769531 45.617188 316.769531 " fill-opacity="1" fill-rule="evenodd"/></g><g clip-path="url(#e45031f816)"><path fill="#2aa198" d="M 27.558594 87.359375 L 9.5 87.359375 C 7.464844 87.359375 5.796875 85.691406 5.796875 83.65625 C 5.796875 81.617188 7.464844 79.953125 9.5 79.953125 L 27.558594 79.953125 C 29.59375 79.953125 31.265625 81.617188 31.265625 83.65625 C 31.265625 85.691406 29.59375 87.359375 27.558594 87.359375 " fill-opacity="1" fill-rule="evenodd"/></g><g clip-path="url(#8db5a42b2a)"><path fill="#2aa198" d="M 27.558594 152.871094 L 9.5 152.871094 C 7.464844 152.871094 5.796875 151.207031 5.796875 149.167969 C 5.796875 147.128906 7.464844 145.464844 9.5 145.464844 L 27.558594 145.464844 C 29.59375 145.464844 31.265625 147.132812 31.265625 149.167969 C 31.265625 151.207031 29.59375 152.871094 27.558594 152.871094 " fill-opacity="1" fill-rule="evenodd"/></g><g clip-path="url(#bd21dddfe1)"><path fill="#2aa198" d="M 27.558594 218.617188 L 9.5 218.617188 C 7.464844 218.617188 5.796875 216.949219 5.796875 214.910156 C 5.796875 212.875 7.464844 211.207031 9.5 211.207031 L 27.558594 211.207031 C 29.59375 211.207031 31.265625 212.875 31.265625 214.910156 C 31.265625 216.949219 29.59375 218.617188 27.558594 218.617188 " fill-opacity="1" fill-rule="evenodd"/></g><g clip-path="url(#ffb3bcd8ef)"><path fill="#2aa198" d="M 27.558594 284.128906 L 9.5 284.128906 C 7.464844 284.128906 5.796875 282.460938 5.796875 280.425781 C 5.796875 278.386719 7.464844 276.71875 9.5 276.71875 L 27.558594 276.71875 C 29.59375 276.71875 31.265625 278.386719 31.265625 280.425781 C 31.265625 282.460938 29.59375 284.128906 27.558594 284.128906 " fill-opacity="1" fill-rule="evenodd"/></g><g clip-path="url(#74679717e0)"><path fill="#2aa198" d="M 162.75 121.15625 L 138.90625 121.15625 C 136.867188 121.15625 135.203125 119.488281 135.203125 117.453125 L 135.203125 63.285156 L 112.746094 63.285156 C 111.246094 63.285156 109.902344 62.378906 109.324219 60.992188 C 108.742188 59.601562 109.066406 58.003906 110.132812 56.964844 L 148.332031 18.765625 C 149.023438 18.070312 149.972656 17.675781 150.945312 17.675781 C 151.941406 17.675781 152.867188 18.070312 153.5625 18.765625 L 191.523438 56.964844 C 192.589844 58.027344 192.894531 59.625 192.3125 60.992188 C 191.734375 62.355469 190.390625 63.285156 188.886719 63.285156 L 166.429688 63.285156 L 166.429688 117.453125 C 166.453125 119.488281 164.789062 121.15625 162.75 121.15625 Z M 142.609375 113.75 L 159.046875 113.75 L 159.046875 59.578125 C 159.046875 57.542969 160.714844 55.875 162.75 55.875 L 180 55.875 L 150.945312 26.636719 L 121.683594 55.875 L 138.90625 55.875 C 140.945312 55.875 142.609375 57.542969 142.609375 59.578125 L 142.609375 113.75 " fill-opacity="1" fill-rule="evenodd"/></g><path fill="#2aa198" d="M 304.65625 214.449219 C 303.707031 214.449219 302.757812 214.101562 302.042969 213.359375 L 263.84375 175.394531 C 262.78125 174.328125 262.457031 172.734375 263.035156 171.367188 C 263.613281 170.003906 264.957031 169.078125 266.460938 169.078125 L 288.914062 169.078125 L 288.914062 114.675781 C 288.914062 112.636719 290.582031 110.96875 292.621094 110.96875 L 316.460938 110.972656 C 318.5 110.972656 320.167969 112.636719 320.167969 114.675781 L 320.167969 169.078125 L 342.621094 169.078125 C 344.128906 169.078125 345.472656 169.980469 346.050781 171.367188 C 346.628906 172.757812 346.304688 174.355469 345.238281 175.394531 L 307.273438 213.359375 C 306.558594 214.078125 305.605469 214.449219 304.65625 214.449219 Z M 275.441406 176.484375 L 304.65625 205.515625 L 333.6875 176.484375 L 316.460938 176.484375 C 314.429688 176.484375 312.757812 174.820312 312.757812 172.78125 L 312.757812 118.378906 L 296.324219 118.378906 L 296.324219 172.78125 C 296.324219 174.820312 294.65625 176.484375 292.621094 176.484375 L 275.441406 176.484375 " fill-opacity="1" fill-rule="evenodd"/></svg>