<svg xmlns="http://www.w3.org/2000/svg" xmlns:xlink="http://www.w3.org/1999/xlink" width="500" zoomAndPan="magnify" viewBox="0 0 375 374.999991" height="500" preserveAspectRatio="xMidYMid meet" version="1.0"><defs><clipPath id="c070e8533c"><path d="M 6.480469 6 L 355 6 L 355 368.601562 L 6.480469 368.601562 Z M 6.480469 6 " clip-rule="nonzero"/></clipPath><clipPath id="5f89f1e864"><path d="M 332 187 L 368.730469 187 L 368.730469 203 L 332 203 Z M 332 187 " clip-rule="nonzero"/></clipPath><clipPath id="7f29d9bacf"><path d="M 332 158 L 368.730469 158 L 368.730469 173 L 332 173 Z M 332 158 " clip-rule="nonzero"/></clipPath><clipPath id="bff282ef42"><path d="M 332 129 L 368.730469 129 L 368.730469 144 L 332 144 Z M 332 129 " clip-rule="nonzero"/></clipPath><clipPath id="dee6aa3c72"><path d="M 332 100 L 368.730469 100 L 368.730469 115 L 332 115 Z M 332 100 " clip-rule="nonzero"/></clipPath></defs><path fill="#2aa198" d="M 144.269531 325.292969 C 92.285156 325.292969 49.996094 283 49.996094 231.015625 C 49.996094 227.007812 46.746094 223.765625 42.742188 223.765625 C 38.738281 223.765625 35.488281 227.007812 35.488281 231.015625 C 35.488281 291 84.289062 339.796875 144.269531 339.796875 C 148.277344 339.796875 151.523438 336.554688 151.523438 332.546875 C 151.523438 328.535156 148.277344 325.292969 144.269531 325.292969 Z M 144.269531 325.292969 " fill-opacity="1" fill-rule="nonzero"/><g clip-path="url(#c070e8533c)"><path fill="#2aa198" d="M 318.320312 211.152344 L 318.320312 56.96875 C 318.320312 28.976562 295.542969 6.203125 267.554688 6.203125 C 239.566406 6.203125 216.789062 28.976562 216.789062 56.96875 L 216.789062 87.234375 C 183.664062 42.757812 149.78125 8.710938 149.398438 8.328125 C 146.679688 5.609375 141.863281 5.609375 139.144531 8.328125 C 133.726562 13.746094 6.480469 142.011719 6.480469 231.015625 C 6.480469 306.992188 68.292969 368.804688 144.269531 368.804688 C 168.804688 368.804688 192.65625 362.265625 213.660156 349.980469 C 228.5 361.730469 247.199219 368.804688 267.554688 368.804688 C 315.542969 368.804688 354.578125 329.769531 354.578125 281.78125 C 354.578125 253.628906 341.09375 227.519531 318.320312 211.152344 Z M 267.554688 354.300781 C 227.570312 354.300781 195.035156 321.765625 195.035156 281.78125 C 195.035156 257.21875 207.359375 234.515625 228.007812 221.046875 C 230.054688 219.699219 231.296875 217.417969 231.296875 214.96875 L 231.296875 173 C 231.296875 168.996094 228.050781 165.75 224.042969 165.75 C 220.035156 165.75 216.789062 168.996094 216.789062 173 L 216.789062 211.152344 C 194.011719 227.519531 180.53125 253.628906 180.53125 281.78125 C 180.53125 303.984375 188.960938 324.207031 202.695312 339.601562 C 184.820312 349.238281 164.800781 354.300781 144.269531 354.300781 C 76.289062 354.300781 20.984375 298.996094 20.984375 231.015625 C 20.984375 157.625 120.351562 48.964844 144.273438 23.875 C 156.527344 36.707031 188.554688 71.441406 216.789062 112.050781 L 216.789062 143.992188 C 216.789062 147.996094 220.035156 151.246094 224.042969 151.246094 C 228.050781 151.246094 231.296875 147.996094 231.296875 143.992188 L 231.296875 56.96875 C 231.296875 36.976562 247.5625 20.707031 267.554688 20.707031 C 287.546875 20.707031 303.816406 36.976562 303.816406 56.96875 L 303.816406 214.96875 C 303.816406 217.417969 305.054688 219.699219 307.101562 221.046875 C 327.753906 234.515625 340.074219 257.21875 340.074219 281.78125 C 340.074219 321.765625 307.539062 354.300781 267.554688 354.300781 Z M 267.554688 354.300781 " fill-opacity="1" fill-rule="nonzero"/></g><path fill="#2aa198" d="M 289.3125 235.953125 L 289.3125 64.21875 C 289.3125 52.222656 279.550781 42.464844 267.554688 42.464844 C 255.558594 42.464844 245.800781 52.222656 245.800781 64.21875 L 245.800781 235.953125 C 228.257812 244.28125 216.789062 262.09375 216.789062 281.78125 C 216.789062 309.769531 239.566406 332.546875 267.554688 332.546875 C 295.542969 332.546875 318.320312 309.769531 318.320312 281.78125 C 318.320312 262.09375 306.851562 244.28125 289.3125 235.953125 Z M 267.554688 56.96875 C 271.554688 56.96875 274.808594 60.222656 274.808594 64.21875 L 274.808594 158.496094 L 260.304688 158.496094 L 260.304688 64.21875 C 260.304688 60.222656 263.554688 56.96875 267.554688 56.96875 Z M 267.554688 318.042969 C 247.5625 318.042969 231.296875 301.773438 231.296875 281.78125 C 231.296875 266.476562 241.011719 252.75 255.472656 247.632812 C 258.371094 246.613281 260.304688 243.871094 260.304688 240.796875 L 260.304688 173 L 274.808594 173 L 274.808594 240.796875 C 274.808594 243.871094 276.742188 246.613281 279.636719 247.632812 C 294.097656 252.75 303.816406 266.476562 303.816406 281.78125 C 303.816406 301.773438 287.546875 318.042969 267.554688 318.042969 Z M 267.554688 318.042969 " fill-opacity="1" fill-rule="nonzero"/><g clip-path="url(#5f89f1e864)"><path fill="#2aa198" d="M 361.832031 187.503906 L 340.074219 187.503906 C 336.066406 187.503906 332.824219 190.75 332.824219 194.757812 C 332.824219 198.765625 336.066406 202.007812 340.074219 202.007812 L 361.832031 202.007812 C 365.839844 202.007812 369.082031 198.765625 369.082031 194.757812 C 369.082031 190.75 365.839844 187.503906 361.832031 187.503906 Z M 361.832031 187.503906 " fill-opacity="1" fill-rule="nonzero"/></g><g clip-path="url(#7f29d9bacf)"><path fill="#2aa198" d="M 361.832031 158.496094 L 340.074219 158.496094 C 336.066406 158.496094 332.824219 161.742188 332.824219 165.75 C 332.824219 169.753906 336.066406 173 340.074219 173 L 361.832031 173 C 365.839844 173 369.082031 169.753906 369.082031 165.75 C 369.082031 161.742188 365.839844 158.496094 361.832031 158.496094 Z M 361.832031 158.496094 " fill-opacity="1" fill-rule="nonzero"/></g><g clip-path="url(#bff282ef42)"><path fill="#2aa198" d="M 361.832031 129.488281 L 340.074219 129.488281 C 336.066406 129.488281 332.824219 132.734375 332.824219 136.742188 C 332.824219 140.746094 336.066406 143.992188 340.074219 143.992188 L 361.832031 143.992188 C 365.839844 143.992188 369.082031 140.746094 369.082031 136.742188 C 369.082031 132.734375 365.839844 129.488281 361.832031 129.488281 Z M 361.832031 129.488281 " fill-opacity="1" fill-rule="nonzero"/></g><g clip-path="url(#dee6aa3c72)"><path fill="#2aa198" d="M 340.074219 114.984375 L 361.832031 114.984375 C 365.839844 114.984375 369.082031 111.738281 369.082031 107.730469 C 369.082031 103.726562 365.839844 100.480469 361.832031 100.480469 L 340.074219 100.480469 C 336.066406 100.480469 332.824219 103.726562 332.824219 107.730469 C 332.824219 111.738281 336.066406 114.984375 340.074219 114.984375 Z M 340.074219 114.984375 " fill-opacity="1" fill-rule="nonzero"/></g></svg>