<svg xmlns="http://www.w3.org/2000/svg" xmlns:xlink="http://www.w3.org/1999/xlink" width="500" zoomAndPan="magnify" viewBox="0 0 375 374.999991" height="500" preserveAspectRatio="xMidYMid meet" version="1.0"><path fill="#2aa198" d="M 364.429688 132.484375 C 355.675781 117.503906 343.222656 104.652344 329.355469 94.308594 C 316.238281 85.511719 302.210938 77.710938 287.34375 72.304688 C 246.6875 58.457031 200.644531 55.910156 159.054688 71.839844 C 134.4375 80.570312 108.25 99.492188 92.960938 113.78125 C 67.855469 135.675781 46.742188 162.085938 31.253906 191.597656 C 6.679688 236 -12.332031 279.472656 -54.605469 302.828125 C -60.011719 305.929688 -65.730469 307.523438 -72.265625 309.695312 C -75.011719 310.9375 -78.847656 310.515625 -80.550781 313.285156 C -81.882812 315.699219 -79.820312 318.980469 -77.027344 318.734375 C -63.710938 317.339844 -55.226562 316.277344 -41.289062 308.566406 C -33.691406 304.265625 -27.152344 298.394531 -20.707031 292.546875 C -11.464844 283.949219 -2.9375 274.554688 4.066406 264.03125 C 16.453125 245.328125 27.351562 225.675781 37.878906 205.890625 C 49.15625 184.816406 57.597656 169.152344 71.621094 152.578125 C 91.03125 129.714844 108.292969 113.828125 132 97.894531 C 159.054688 80.902344 187.792969 71.882812 221.449219 72.460938 C 239.707031 72.769531 261.972656 75.917969 283.023438 83.339844 C 286.457031 84.601562 289.871094 85.976562 293.171875 87.546875 C 301.058594 91.226562 308.546875 95.679688 315.90625 100.332031 C 328.777344 107.46875 354.28125 132.019531 359.597656 152.980469 C 362.789062 163.082031 362.679688 178.347656 355.078125 185.328125 C 352.816406 187.875 347.65625 187.964844 344.355469 187.101562 C 337.417969 185.835938 324.988281 176.886719 315.660156 170.703125 C 311.515625 168.199219 306.753906 165.894531 301.855469 165.585938 C 302.542969 165.652344 303.828125 165.761719 302.210938 165.519531 C 297.800781 164.589844 292.726562 166.9375 291.953125 171.65625 C 291.355469 176.507812 292.726562 177.460938 292.660156 179.832031 C 292.707031 180.410156 292.726562 181.007812 292.707031 181.582031 C 292.660156 181.804688 292.617188 182.09375 292.550781 182.382812 C 292.550781 182.382812 292.550781 182.382812 292.550781 182.425781 C 292.507812 182.515625 292.460938 182.582031 292.417969 182.667969 C 292.375 182.691406 292.328125 182.734375 292.261719 182.757812 C 292.019531 182.847656 291.777344 182.933594 291.53125 183 C 288.296875 183.332031 288.453125 182.847656 287.632812 182.957031 C 281.871094 182.316406 278.570312 181.296875 268.554688 175.113281 C 251.273438 164.433594 243.25 157.367188 224.859375 144.449219 C 219.253906 140.328125 204.699219 130.734375 193.707031 127.097656 C 167.851562 117.925781 137.050781 118.347656 111.925781 129.625 C 101.957031 133.746094 87.375 144.027344 82.234375 148.835938 C 71.554688 157.519531 62.695312 168.3125 56.136719 180.429688 C 53.320312 184.796875 59.480469 187.566406 61.453125 182.824219 C 80.996094 152.710938 113.765625 131.90625 148.464844 130.601562 C 168.40625 129.667969 185.066406 132.503906 202.570312 142.277344 C 210.214844 146.507812 217.683594 151.78125 225.238281 157.410156 C 215.378906 176.773438 213.5625 199.664062 217.4375 220.84375 C 220.804688 241.652344 232.238281 260.394531 246.730469 275.394531 C 263.679688 293.609375 286.191406 305.816406 310.210938 311.84375 C 323.28125 315.144531 331.835938 316.011719 343.867188 316.429688 C 348.03125 316.164062 352.375 317.230469 352.683594 312.464844 C 351.644531 307.96875 348.984375 309.519531 345.660156 308.652344 C 344.488281 308.476562 337.972656 307.921875 333.585938 307.257812 C 323.28125 305.90625 313.179688 303.292969 303.40625 299.769531 C 278.125 291.171875 247.707031 269.457031 232.570312 240.234375 C 226.101562 229.332031 222.136719 204.183594 223.777344 191.289062 C 224.21875 183.601562 227.121094 170.792969 228.828125 166.847656 C 229.492188 165.121094 230.222656 163.4375 231 161.753906 C 244.515625 172.054688 258.453125 183.023438 274.117188 191.089844 C 278.371094 192.839844 282.914062 193.679688 287.5 193.835938 C 288.738281 193.527344 289.78125 193.460938 287.789062 193.769531 C 290.933594 193.636719 294.144531 193.082031 296.894531 191.421875 C 299.664062 189.625 301.722656 186.769531 302.300781 183.488281 C 302.765625 180.078125 302.390625 177.550781 302.054688 175.601562 C 304.117188 176.421875 305.957031 177.351562 309.765625 179.699219 C 317.144531 184.199219 325.320312 191.488281 336.664062 195.808594 C 342.003906 198.132812 348.011719 198.488281 353.550781 196.695312 C 357.582031 195.054688 359.355469 194.390625 363.632812 189.691406 C 367.398438 185.460938 370.234375 178.835938 371.320312 174.359375 C 374.910156 157.742188 372.40625 147.792969 364.472656 132.484375 Z M 364.429688 132.484375 " fill-opacity="1" fill-rule="nonzero"/><path fill="#2aa198" d="M 195.679688 300.277344 C 192.445312 298.640625 189.277344 296.84375 186.152344 295.003906 C 178.996094 290.574219 177.289062 289.664062 169.402344 281.800781 C 158.789062 270.722656 150.636719 251.199219 149.195312 235.070312 C 145.695312 208.835938 147.953125 186.503906 159.851562 165.320312 C 162.554688 160.378906 166.054688 156.015625 169.378906 152.933594 C 169.535156 152.800781 169.691406 152.691406 169.867188 152.578125 C 170.996094 151.605469 172.8125 151.117188 173.167969 149.523438 C 173.699219 147.484375 171.175781 145.710938 169.445312 146.953125 C 158.789062 153.355469 152.9375 162.484375 148.132812 171.679688 C 138.226562 191.109375 136.386719 214.398438 139.933594 238.195312 C 142.257812 260.152344 152.960938 281.246094 170.53125 294.871094 C 176.957031 299.792969 184.027344 303.800781 191.269531 307.414062 C 194.238281 308.808594 197.5625 310.738281 199.601562 305.75 C 200.265625 303.003906 197.960938 301.230469 195.703125 300.300781 Z M 195.679688 300.277344 " fill-opacity="1" fill-rule="nonzero"/><path fill="#2aa198" d="M 116.933594 159.449219 C 108.003906 166.5625 101.113281 175.800781 94.820312 185.195312 C 86.46875 197.625 81.769531 212.160156 79.886719 226.9375 C 77.761719 244.132812 76.34375 262.058594 81.925781 278.765625 C 83.121094 282.597656 85.027344 286.144531 86.957031 289.644531 C 88.21875 291.570312 88.21875 293.609375 91.476562 293.078125 C 93.449219 292.390625 93.734375 290.175781 92.871094 288.511719 C 92.074219 286.230469 91.320312 283.925781 90.65625 281.601562 C 89.636719 278.097656 88.839844 274.53125 88.152344 270.941406 C 84.429688 248.875 87.730469 223.28125 93.914062 205.777344 C 97.371094 195.121094 108.757812 178.304688 116.226562 170.304688 C 117.554688 168.777344 118.90625 167.269531 120.367188 165.851562 C 121.054688 165.144531 121.984375 164.589844 122.230469 163.59375 C 123.515625 160.601562 119.660156 157.542969 117 159.449219 Z M 116.933594 159.449219 " fill-opacity="1" fill-rule="nonzero"/><path fill="#2aa198" d="M 195.347656 246.613281 C 191.804688 240.988281 189.917969 236.488281 187.660156 227.183594 C 186.949219 225.054688 187.371094 223.261719 186.640625 220.070312 C 185.53125 217.433594 181.257812 218.542969 181.523438 221.378906 C 181.875 233.476562 185.089844 245.972656 193.972656 254.636719 C 194.351562 255.078125 196.035156 256.851562 195.636719 256.386719 C 195.523438 256.273438 195.480469 256.1875 195.4375 256.140625 C 196.011719 257.027344 197.1875 257.582031 198.226562 257.316406 C 200.113281 257.09375 201.085938 254.65625 200.023438 253.152344 C 198.40625 251.023438 196.808594 248.875 195.371094 246.613281 Z M 195.347656 246.613281 " fill-opacity="1" fill-rule="nonzero"/><path fill="#2aa198" d="M 38.808594 234.183594 C 38.164062 234.914062 38.078125 235.957031 37.722656 236.84375 C 32.273438 252.972656 29.503906 268.152344 22.566406 282.265625 C 19.773438 287.980469 17.207031 290.464844 13.171875 295.671875 C 12.132812 298.128906 15.675781 300.257812 17.382812 298.195312 C 28.617188 287.027344 33.445312 271.476562 37.546875 256.585938 C 39.472656 250.027344 41.3125 243.421875 43.105469 236.820312 C 43.371094 236.046875 43.304688 235.179688 42.839844 234.496094 C 41.976562 233.121094 39.871094 232.964844 38.785156 234.183594 Z M 38.808594 234.183594 " fill-opacity="1" fill-rule="nonzero"/></svg>