<svg xmlns="http://www.w3.org/2000/svg" xmlns:xlink="http://www.w3.org/1999/xlink" width="500" zoomAndPan="magnify" viewBox="0 0 375 374.999991" height="500" preserveAspectRatio="xMidYMid meet" version="1.0"><defs><clipPath id="470d307046"><path d="M 0 56.015625 L 368 56.015625 L 368 313 L 0 313 Z M 0 56.015625 " clip-rule="nonzero"/></clipPath></defs><g clip-path="url(#470d307046)"><path fill="#2aa198" d="M 210.390625 56.015625 C 205.433594 56.03125 202.65625 56.523438 203.191406 57.386719 C 203.417969 57.75 205.085938 58.050781 206.898438 58.050781 C 216.882812 58.050781 231.871094 61.394531 240.304688 65.5 C 243.039062 66.832031 247.757812 69.90625 250.792969 72.335938 C 259.285156 79.125 264.964844 86.957031 269.609375 98.25 C 271.03125 101.710938 272.695312 105.484375 273.300781 106.640625 C 274.265625 108.457031 274.449219 108.550781 274.699219 107.367188 C 275.457031 103.789062 271.285156 91.960938 266.769531 84.871094 C 255.597656 67.347656 237.789062 57.273438 216.035156 56.167969 C 213.9375 56.058594 212.046875 56.011719 210.390625 56.015625 Z M 198.238281 76.0625 C 183.058594 75.808594 168.738281 80.253906 157.589844 89.136719 C 146.25 98.171875 140.648438 111.023438 142.53125 123.6875 C 144.152344 134.578125 148.964844 142.855469 156.996094 148.589844 C 162.847656 152.765625 167.902344 154.53125 174.011719 154.53125 C 179.582031 154.53125 184.578125 153.1875 190.9375 149.984375 C 196.53125 147.164062 198.539062 145.160156 197.457031 143.480469 C 196.480469 141.957031 195.171875 142.105469 189.1875 144.394531 C 184.878906 146.046875 183.546875 146.234375 178.003906 145.984375 C 168.765625 145.574219 164.601562 142.796875 160.683594 134.421875 C 158.835938 130.46875 158.65625 129.472656 158.878906 124.265625 C 159.085938 119.4375 159.503906 117.722656 161.449219 113.773438 C 167.597656 101.289062 178.21875 94.917969 193.035156 94.828125 C 209.011719 94.730469 220.25 102.824219 226.683594 119.0625 C 228.652344 124.035156 228.96875 125.671875 228.980469 131.109375 C 229 138.0625 227.953125 142.019531 224.089844 149.636719 C 215.984375 165.617188 200.09375 175.0625 179.75 175.980469 C 165.832031 176.617188 160.148438 174.46875 140.597656 161.179688 C 125.683594 151.046875 120.667969 148.140625 112.96875 145.175781 C 104.832031 142.042969 96.136719 140.550781 85.984375 140.550781 C 72.378906 140.542969 58.796875 143.667969 46.566406 149.617188 C 34.203125 155.632812 24.621094 165.234375 15.191406 181.050781 C 10.207031 189.402344 5.613281 198.472656 4.625 201.898438 C 3.433594 206.039062 9.550781 200.660156 14.757812 192.984375 C 23.230469 180.488281 36.605469 170.734375 52.535156 165.445312 C 62.246094 162.21875 69.589844 161.230469 80.0625 161.738281 C 99.21875 162.667969 118.988281 169.320312 150.039062 185.285156 C 159.652344 190.230469 170.03125 195.15625 173.109375 196.234375 C 178.363281 198.078125 179.402344 198.199219 190.238281 198.199219 C 201.71875 198.207031 201.804688 198.195312 209.234375 195.632812 C 222.425781 191.078125 231.578125 185.726562 240.265625 177.476562 C 253.1875 165.199219 259.652344 149.660156 259.691406 130.761719 C 259.714844 120.984375 258.566406 116.105469 254.113281 107.039062 C 251.480469 101.679688 249.820312 99.394531 245.203125 94.765625 C 238.53125 88.082031 233.179688 84.425781 225.992188 81.636719 C 216.761719 78.054688 207.34375 76.210938 198.238281 76.0625 Z M 197 81.121094 C 215.945312 81.121094 231.601562 87.226562 242.492188 98.867188 C 247.527344 104.25 250.3125 108.960938 252.882812 116.429688 C 254.550781 121.277344 254.808594 123.132812 254.84375 130.410156 C 254.921875 150.941406 246.136719 168.335938 229.738281 180.109375 C 224.734375 183.699219 213.941406 188.996094 207.015625 191.261719 C 201.824219 192.960938 199.792969 193.230469 190.9375 193.414062 C 176.222656 193.707031 178.757812 194.617188 143.046875 176.246094 C 116.144531 162.410156 88.722656 155.363281 69.460938 157.34375 C 54.3125 158.898438 42.136719 163.484375 27.757812 173.054688 L 25.734375 174.402344 L 26.644531 172.679688 C 28.308594 169.546875 37.398438 160.75 42.503906 157.332031 C 48.183594 153.53125 55.496094 150.515625 65.566406 147.824219 C 71.074219 146.351562 74.589844 145.914062 83.316406 145.625 C 95.75 145.214844 102.097656 146.148438 111.132812 149.726562 C 118.390625 152.605469 122.089844 154.757812 136.753906 164.652344 C 157.878906 178.910156 161.226562 180.355469 174.453125 180.917969 C 190.332031 181.601562 204.804688 177.070312 215.839844 167.964844 C 226.4375 159.226562 234.226562 143.617188 234.273438 131.042969 C 234.285156 126.035156 231.960938 117.53125 229.0625 112.023438 C 222.035156 98.667969 212.335938 91.839844 197.863281 90.054688 C 186.507812 88.652344 174.445312 92.03125 166.8125 98.746094 C 153.746094 110.25 149.9375 127.378906 157.667969 139.835938 C 158.984375 141.953125 159.957031 143.792969 159.828125 143.921875 C 159.242188 144.507812 155.75 141.472656 153.53125 138.449219 C 150.210938 133.921875 147.652344 126.816406 147.132812 120.660156 C 146.28125 110.566406 151.210938 100.449219 160.636719 92.960938 C 170.8125 84.875 182.34375 81.121094 197 81.121094 Z M 74.84375 123.269531 C 73.078125 123.320312 71.226562 123.441406 69.425781 123.640625 C 53.539062 125.394531 36.117188 133.503906 23.128906 145.183594 C 12.074219 155.132812 0.0742188 170.253906 0.0742188 174.238281 C 0.0742188 176.59375 1.964844 175.519531 4.476562 171.734375 C 5.855469 169.65625 9.324219 165.175781 12.1875 161.769531 C 29.9375 140.660156 48.832031 129.828125 73.132812 126.835938 C 83.382812 125.570312 84.667969 125.3125 84.667969 124.503906 C 84.667969 123.601562 80.144531 123.121094 74.84375 123.269531 Z M 303.148438 160.5625 C 294.96875 160.597656 289.082031 162.339844 281.082031 167.089844 C 263.652344 177.445312 254.558594 192.324219 254.558594 210.480469 C 254.558594 220.527344 258.558594 227.433594 266.703125 231.441406 C 272.242188 234.167969 277.109375 234.691406 283.828125 233.265625 C 290.464844 231.863281 300.167969 227.210938 301.203125 224.945312 C 302.570312 221.9375 301.472656 221.441406 293.25 221.328125 C 284.699219 221.214844 282.078125 220.394531 278.382812 216.699219 C 271.703125 210.019531 272.835938 200.785156 281.023438 195.230469 C 286.148438 191.75 289.808594 190.691406 296.855469 190.65625 C 310.347656 190.585938 321.992188 196.828125 326.929688 206.769531 C 329.554688 212.058594 330.140625 221.585938 328.335938 229.6875 C 325.308594 243.292969 314.734375 257.234375 302.902344 263.199219 C 287.191406 271.121094 263.078125 268.6875 234.980469 256.335938 C 218.339844 249.019531 210.042969 243.554688 189.011719 226.042969 C 166.667969 207.4375 153.550781 198.789062 136.753906 191.5625 C 120.304688 184.488281 101.910156 181.425781 86.308594 183.160156 C 79.097656 183.960938 63.175781 187.933594 59.449219 189.863281 C 57.015625 191.121094 56.679688 192.652344 58.976562 191.996094 C 59.84375 191.753906 65.898438 191.371094 72.433594 191.152344 C 82.800781 190.804688 85.230469 190.945312 91.464844 192.226562 C 107.292969 195.484375 128.960938 204.886719 144.445312 215.210938 C 152.957031 220.882812 168.941406 233.371094 176.59375 240.332031 C 187.382812 250.136719 204.375 261.246094 221.347656 269.589844 C 235.082031 276.34375 248.382812 280.246094 262.949219 281.808594 C 271.011719 282.671875 289.058594 282.078125 295.457031 280.742188 C 298.535156 280.097656 303.695312 278.503906 306.925781 277.195312 C 327.121094 269.015625 338.96875 256.371094 345.855469 235.628906 C 347.730469 229.984375 347.828125 229.0625 347.816406 217.105469 C 347.785156 192.480469 343.230469 179.847656 330.992188 170.441406 C 322.003906 163.53125 313.53125 160.523438 303.148438 160.566406 Z M 300.515625 165.839844 C 302.058594 165.757812 303.699219 165.777344 305.511719 165.882812 C 316.773438 166.546875 329.117188 173.1875 335.082031 181.796875 C 340.554688 189.699219 343.027344 202.484375 342.476562 220.003906 C 342.121094 231.300781 341.15625 235.222656 336.410156 244.609375 C 329 259.28125 315.925781 269.503906 297.710938 274.875 C 293.371094 276.15625 290.496094 276.398438 277.28125 276.585938 C 266.144531 276.75 260.300781 276.53125 256.109375 275.800781 C 242.789062 273.480469 229.003906 268.363281 214.457031 260.328125 C 198.8125 251.691406 190.859375 246.171875 178.613281 235.449219 C 150.886719 211.15625 131.09375 199.148438 104.070312 190.222656 C 100.320312 188.984375 97.253906 187.792969 97.253906 187.578125 C 97.253906 186.929688 107.753906 187.9375 113.734375 189.152344 C 136.132812 193.699219 157.273438 205.34375 182.898438 227.246094 C 202.230469 243.777344 211.292969 250.183594 224.492188 256.671875 C 247.097656 267.785156 265.148438 272.832031 282.171875 272.796875 C 296.457031 272.765625 307.992188 268.175781 317.539062 258.710938 C 334.320312 242.078125 339.714844 216.066406 329.464844 201.171875 C 321.351562 189.371094 302.75 182.648438 288.496094 186.359375 C 272.699219 190.472656 264.742188 203.101562 270.652344 214.691406 C 273.542969 220.351562 278.039062 223.96875 284.910156 226.160156 C 287.59375 227.011719 284.644531 228.261719 279.3125 228.53125 C 270.941406 228.953125 264.804688 225.789062 261.347656 219.265625 C 260.089844 216.890625 259.832031 215.265625 259.859375 209.761719 C 259.933594 192.566406 269.464844 178.546875 287.066406 169.753906 C 292.101562 167.238281 295.878906 166.082031 300.515625 165.839844 Z M 96.6875 172.144531 C 88.753906 171.933594 77.917969 172.523438 76.160156 173.523438 C 74.757812 174.324219 76.847656 174.507812 91.101562 174.832031 C 100.21875 175.035156 107.902344 175.429688 108.171875 175.703125 C 108.90625 176.433594 112.632812 176.3125 112.632812 175.554688 C 112.632812 174.710938 109.234375 173.65625 103.207031 172.636719 C 101.652344 172.375 99.332031 172.214844 96.6875 172.144531 Z M 364.425781 192.214844 C 363.9375 192.460938 363.886719 195.597656 364.125 205.027344 C 364.421875 216.808594 364.289062 219.351562 363.03125 225.261719 C 358.929688 244.566406 350.832031 257.921875 333.210938 274.472656 C 328.402344 278.984375 324.472656 282.945312 324.472656 283.273438 C 324.472656 284.375 325.691406 283.882812 329.921875 281.054688 C 336 277 347.125 266.238281 351.925781 259.777344 C 359.585938 249.464844 365.171875 235.503906 367.164062 221.695312 C 368.496094 212.457031 366.941406 194.167969 364.664062 192.277344 C 364.574219 192.203125 364.496094 192.179688 364.425781 192.214844 Z M 56.03125 199.59375 C 49.9375 199.507812 43.628906 200.25 37.476562 201.78125 C 28.359375 204.054688 12.898438 213.085938 10.519531 217.523438 C 9.359375 219.695312 10.800781 219.152344 18.40625 214.5625 C 32.707031 205.921875 39.304688 204.09375 58.21875 203.527344 C 65.78125 203.304688 72.199219 202.890625 72.472656 202.613281 C 73.359375 201.726562 69.582031 200.765625 62.035156 199.949219 C 60.066406 199.738281 58.058594 199.617188 56.03125 199.59375 Z M 72.71875 211.808594 C 65.8125 211.742188 58.863281 211.964844 54.566406 212.507812 C 43.972656 213.84375 34.332031 217.117188 34.332031 219.382812 C 34.332031 220.328125 35.335938 220.382812 42.546875 219.832031 C 57.160156 218.707031 66.558594 219.105469 75.851562 221.246094 C 107.089844 228.433594 131.8125 244.8125 136.027344 261.117188 C 138.015625 268.820312 136.992188 275.21875 132.941406 280.328125 C 125.515625 289.703125 101.300781 291.757812 93.839844 283.644531 C 92.4375 282.121094 92.226562 281.324219 92.53125 278.628906 C 92.730469 276.863281 93.480469 274.757812 94.199219 273.957031 C 95.738281 272.222656 100.484375 269.925781 102.5625 269.902344 C 104.476562 269.878906 106.5 267.621094 105.929688 266.136719 C 105.304688 264.503906 102.78125 264.042969 96.925781 264.488281 C 81.1875 265.679688 71.230469 280.558594 77.980469 292.800781 C 83.679688 303.136719 96.097656 311.015625 108.984375 312.476562 C 126.855469 314.5 145.421875 305.453125 152.371094 291.335938 C 156.515625 282.917969 157.832031 271.132812 155.597656 262.515625 C 149.285156 238.199219 122.378906 217.636719 90.625 212.855469 C 86.492188 212.230469 79.625 211.875 72.71875 211.808594 Z M 194.96875 214.277344 C 194.390625 214.167969 194.53125 214.910156 195.371094 216.511719 C 196.753906 219.140625 200.765625 222.898438 210.511719 230.699219 C 229.78125 246.117188 246.304688 254.992188 264.695312 259.785156 C 268.152344 260.6875 272.96875 261.445312 275.394531 261.460938 C 280.820312 261.503906 289.09375 259.695312 290.339844 258.195312 C 291.175781 257.1875 290.554688 257.121094 283.652344 257.46875 C 279.464844 257.6875 273.800781 257.558594 271.066406 257.1875 C 260.070312 255.703125 242.929688 248.609375 228.78125 239.699219 C 221.328125 235 204.476562 222.339844 198.824219 217.183594 C 196.820312 215.359375 195.539062 214.390625 194.96875 214.277344 Z M 84.871094 216.941406 C 85.441406 216.886719 86.453125 216.949219 87.910156 217.121094 C 101.507812 218.75 117.265625 224.898438 127.710938 232.660156 C 142.34375 243.527344 150.925781 257.015625 151.625 270.238281 C 152.582031 288.394531 143.121094 301.234375 125.113281 306.222656 C 117.390625 308.367188 108.9375 308.15625 101.761719 305.660156 C 88.261719 300.964844 78.78125 290.179688 81.15625 282.238281 C 82.164062 278.886719 84.617188 275.085938 86.742188 273.597656 C 88.234375 272.554688 88.246094 272.574219 87.6875 275.234375 C 85.078125 287.660156 94.738281 294.476562 113.542969 293.476562 C 130.792969 292.554688 141.078125 284.105469 141.84375 270.214844 C 142.441406 259.425781 139.199219 251.832031 130.066406 242.625 C 121.003906 233.480469 107.179688 225.46875 91.472656 220.25 C 85.398438 218.234375 83.148438 217.089844 84.867188 216.941406 Z M 70.707031 228.710938 C 66.59375 228.71875 63.695312 229.171875 63.695312 229.925781 C 63.695312 230.214844 67.707031 230.816406 72.609375 231.265625 C 86.226562 232.5 94.824219 235.328125 105.027344 241.917969 C 107.410156 243.460938 109.628906 244.71875 109.96875 244.71875 C 111.269531 244.71875 109.050781 242.023438 105.484375 239.273438 C 97.945312 233.457031 86.847656 229.644531 75.164062 228.863281 C 73.585938 228.757812 72.078125 228.710938 70.707031 228.710938 Z M 171.390625 262.96875 C 170.84375 262.890625 170.960938 264.132812 171.734375 266.707031 C 173.039062 271.042969 173.035156 279.617188 171.730469 284.535156 C 169.605469 292.507812 166.726562 297.066406 159.035156 304.632812 C 155.046875 308.554688 151.785156 311.933594 151.785156 312.148438 C 151.785156 314.429688 162.40625 307.707031 166.664062 302.730469 C 172.519531 295.894531 176.226562 285.789062 176.242188 276.609375 C 176.257812 270.96875 175.300781 267.316406 173.082031 264.542969 C 172.28125 263.539062 171.71875 263.015625 171.390625 262.96875 Z M 171.390625 262.96875 " fill-opacity="1" fill-rule="nonzero"/></g></svg>