<svg xmlns="http://www.w3.org/2000/svg" xmlns:xlink="http://www.w3.org/1999/xlink" width="500" zoomAndPan="magnify" viewBox="0 0 375 374.999991" height="500" preserveAspectRatio="xMidYMid meet" version="1.0"><path fill="#2aa198" d="M 301.289062 185.421875 C 295.316406 188.152344 290.699219 192.375 287.640625 198.03125 C 279.839844 212.449219 289.332031 231.773438 305.875 235.457031 C 326.824219 240.121094 347.015625 219.777344 343.332031 197.714844 C 340.308594 179.648438 325.699219 165.855469 306.144531 162.507812 C 290.890625 159.902344 276.03125 162.21875 261.640625 167.019531 C 246.761719 171.984375 232.101562 177.667969 217.546875 183.535156 C 187.210938 195.769531 157.105469 208.535156 125.324219 216.796875 C 79.4375 228.734375 33.140625 231.597656 -13.710938 223.789062 C -16.289062 223.355469 -18.875 222.992188 -21.445312 222.085938 C -19.722656 222.085938 -17.992188 221.980469 -16.277344 222.105469 C 29.96875 225.335938 75.40625 220.835938 119.363281 205.917969 C 140.648438 198.695312 161.335938 189.613281 182.085938 180.878906 C 205.792969 170.898438 229.070312 159.882812 252.925781 150.253906 C 269.160156 143.695312 286.332031 140.097656 304.046875 141.214844 C 327.738281 142.714844 346.765625 152.601562 358.902344 173.589844 C 374.9375 201.328125 365.203125 235.601562 337.644531 249.460938 C 315.753906 260.464844 290.285156 253.566406 279.183594 233.628906 C 270.988281 218.902344 273.269531 201.398438 284.636719 191.5 C 289.378906 187.355469 294.9375 185.496094 301.289062 185.421875 Z M 301.289062 185.421875 " fill-opacity="1" fill-rule="nonzero"/><path fill="#2aa198" d="M -22.570312 235.765625 C -13.144531 239.199219 -3.214844 243.554688 7.113281 246.402344 C 27.234375 251.941406 47.878906 251.769531 68.519531 250.085938 C 101.25 247.429688 133.203125 239.949219 165.445312 234.261719 C 183.546875 231.070312 201.734375 228.308594 220.203125 230.65625 C 237.402344 232.839844 253.011719 238.753906 265.5625 251.183594 C 294.449219 279.796875 285.484375 330.441406 248.664062 345.214844 C 230.582031 352.476562 212.777344 351.601562 197.070312 338.855469 C 182.382812 326.9375 178.265625 306.199219 186.789062 290.472656 C 193.769531 277.585938 208.746094 271.507812 221.800781 276.730469 C 220.558594 276.933594 219.847656 277.074219 219.125 277.152344 C 205.3125 278.605469 195.808594 287.300781 194.734375 299.46875 C 193.492188 313.5 201.667969 325.503906 215.007812 329.246094 C 235.527344 335.007812 256.984375 320.964844 260.304688 299.59375 C 263.113281 281.519531 256.242188 267.109375 240.152344 257.511719 C 229.945312 251.421875 218.816406 248.460938 206.988281 248.019531 C 188.664062 247.335938 170.609375 250.113281 152.546875 252.492188 C 119.671875 256.808594 86.84375 261.851562 53.503906 259.972656 C 27.128906 258.492188 1.988281 252.828125 -20.175781 237.484375 C -21.230469 236.753906 -22.28125 235.964844 -22.570312 235.765625 Z M -22.570312 235.765625 " fill-opacity="1" fill-rule="nonzero"/><path fill="#2aa198" d="M 149.171875 104.539062 C 138.078125 114.550781 120.679688 113.617188 109.832031 102.921875 C 93.816406 87.148438 94.921875 60.023438 112.226562 44.507812 C 136.617188 22.636719 175.003906 29.234375 191.472656 58.332031 C 202.984375 78.671875 201.984375 99.285156 191.625 119.734375 C 183.480469 135.828125 171.003906 148.050781 156.289062 158.125 C 142.1875 167.769531 127.007812 175.300781 111.03125 181.371094 C 93.257812 188.125 75.03125 193.269531 56.410156 196.867188 C 32.929688 201.40625 9.238281 204.503906 -14.757812 204.4375 C -15.144531 204.4375 -15.539062 204.339844 -16.992188 204.148438 C -8.277344 202.417969 -0.542969 201.023438 7.132812 199.320312 C 30.726562 194.078125 53.917969 187.460938 76.664062 179.214844 C 99.867188 170.808594 122.140625 160.652344 142.207031 146.136719 C 156.019531 136.152344 167.542969 124.140625 174.148438 108.078125 C 179.746094 94.449219 179.785156 81.019531 172.140625 68.09375 C 161.5 50.117188 137.167969 46.210938 121.746094 59.871094 C 111.9375 68.566406 109.628906 82.695312 116.160156 94.148438 C 122.441406 105.171875 134.222656 109.25 147.351562 104.953125 C 147.707031 104.835938 148.082031 104.789062 149.171875 104.539062 Z M 149.171875 104.539062 " fill-opacity="1" fill-rule="nonzero"/></svg>